<svg width="90" height="90" viewBox="0 0 90 90" fill="none" xmlns="http://www.w3.org/2000/svg">
<g clip-path="url(#clip0_110_27)">
<path d="M45.0084 47.2309L90 69.8533V20.1472L45.0084 42.7542L2.99048e-06 20.1472V69.8533L45.0084 47.2309Z" fill="#C5A266"/>
<path d="M69.8541 0L47.2458 44.9916L69.8541 90H20.1481L42.7691 44.9916L20.1481 0H69.8541Z" fill="#C5A266"/>
<path d="M66.6152 88.0002L45.0089 44.9925L66.6152 2.00073H23.4007L45.0089 44.9925L23.4007 88.0002H66.6152Z" fill="#F37021"/>
<path d="M88.0002 23.3853L45.0085 44.9916L2.00078 23.3853V66.5998L45.0085 44.9916L88.0002 66.5998V23.3853Z" fill="#F37021"/>
<path d="M67.1549 44.9921L80.1416 52.3118V37.6728L67.1549 44.9921Z" fill="#034EA2"/>
<path d="M22.8613 44.9921L9.87511 37.6728V52.3118L22.8613 44.9921Z" fill="#034EA2"/>
<path d="M45.0084 67.1386L37.6891 80.1262H52.3263L45.0084 67.1386Z" fill="#034EA2"/>
<path d="M45.0084 22.8455L52.3263 9.85931H37.6891L45.0084 22.8455Z" fill="#034EA2"/>
<path d="M45.0084 25.4649C34.2224 25.4649 25.4808 34.208 25.4808 44.9925C25.4808 55.7771 34.2224 64.5202 45.0084 64.5202C55.7943 64.5202 64.536 55.7771 64.536 44.9925C64.536 34.208 55.793 25.4649 45.0084 25.4649Z" fill="#034EA2"/>
<path d="M39.8173 27.989C40.4038 28.1478 40.9921 28.322 41.8806 28.624C42.4204 28.8155 42.8331 28.7674 43.1193 28.6086C43.2781 28.5138 43.3901 28.3859 43.4677 28.243C43.547 28.0997 43.5797 27.9255 43.5643 27.7514C43.547 27.4824 43.4368 27.2116 43.2295 26.9889C44.0233 27.0216 44.5318 26.7199 44.7858 26.3072C44.9772 25.9883 45.0393 25.6087 44.9617 25.2585C44.8978 24.9102 44.7082 24.5755 44.4061 24.3546C44.0233 24.0684 43.4523 23.989 42.771 24.3065C42.8331 24.0684 42.8504 23.8788 42.8177 23.7182C42.771 23.5127 42.6608 23.3699 42.5002 23.2746C42.3415 23.178 42.15 23.1313 41.9292 23.1313C41.5169 23.1313 41.008 23.2746 40.563 23.559C40.2614 23.7504 40.0246 23.9246 39.8005 24.1314C39.6277 24.2902 39.4522 24.4643 39.2776 24.6544C39.2776 24.4489 39.2309 24.2902 39.1501 24.1473C39.0553 23.9559 38.8966 23.8298 38.7224 23.7663C38.5482 23.6869 38.3255 23.6715 38.1033 23.7182C37.7685 23.7822 37.3889 23.9736 37.0387 24.3219C36.6745 24.6875 36.3244 25.1637 35.9588 25.6881C35.3238 26.5612 34.6253 27.5287 33.6574 28.2117L33.4986 28.3224L33.6728 28.3551C33.8002 28.3705 33.8642 28.3864 33.9263 28.4018C34.7527 28.5292 35.9116 28.7193 37.2451 29.2763C37.9436 29.5765 38.7682 29.5765 39.3411 29.3711C39.562 29.2917 39.738 29.1797 39.864 29.0536C39.9915 28.9102 40.0709 28.7515 40.0555 28.5605C40.0709 28.3864 39.9915 28.1963 39.8173 27.9895" fill="#231F20"/>
<path d="M33.9104 25.2268C33.8311 25.2907 33.7671 25.3701 33.7036 25.4495C33.6415 25.5288 33.5929 25.6236 33.5762 25.7184C33.5621 25.7511 33.5621 25.7665 33.5621 25.7978C33.5621 25.8291 33.5449 25.8459 33.5449 25.8772C33.5294 25.9738 33.5294 26.0532 33.5294 26.148C33.5294 26.2273 33.5294 26.3067 33.5621 26.3861C33.5762 26.4655 33.6088 26.5448 33.6569 26.6242C33.7036 26.7036 33.7517 26.7675 33.8156 26.8297C33.8778 26.8936 33.959 26.9417 34.0383 26.9898C34.1177 27.0365 34.2284 27.0692 34.3246 27.0846C34.4193 27.1 34.53 27.1159 34.6248 27.1159C34.7196 27.1159 34.8162 27.1005 34.911 27.0692C34.975 27.0519 35.0371 27.0211 35.0852 26.9898C35.1491 26.9571 35.1972 26.9258 35.2439 26.8778C35.356 26.783 35.4975 26.6396 35.6408 26.4968C35.7841 26.338 35.927 26.1793 36.0064 26.0532C36.0218 26.0205 36.0377 26.0051 36.0545 25.9738C36.0699 25.9566 36.0858 25.9257 36.1012 25.8944C36.1339 25.8618 36.1493 25.815 36.1806 25.767C36.2132 25.7189 36.2445 25.6876 36.2599 25.6563C36.3239 25.5756 36.372 25.4803 36.4033 25.3701C36.4346 25.2753 36.4346 25.1633 36.4346 25.0526C36.4191 24.9406 36.3878 24.8458 36.3398 24.7505C36.2917 24.6557 36.2291 24.5763 36.1343 24.497C36.0704 24.433 36.0068 24.4022 35.9275 24.3695C35.8481 24.3382 35.7687 24.3214 35.6893 24.3056C35.61 24.2901 35.5134 24.3056 35.434 24.3056C35.356 24.321 35.2598 24.3536 35.1977 24.3849C35.1337 24.4176 35.0856 24.433 35.0217 24.4643C34.9596 24.497 34.911 24.5283 34.8629 24.5591C34.8162 24.5918 34.7681 24.6231 34.7042 24.6557C34.6575 24.687 34.6094 24.7351 34.5627 24.7664C34.4661 24.8458 34.3713 24.8938 34.2919 24.9578C34.1644 25.0199 34.0383 25.1165 33.9109 25.2268" fill="#231F20"/>
<path d="M35.4662 25.9103C35.5936 26.0845 35.7197 26.0845 35.8472 25.9103C35.9279 25.7829 36.0213 25.6241 36.1334 25.4967C36.3543 25.2118 36.2921 24.8308 36.0213 24.5927C35.8004 24.4013 35.497 24.4185 35.2761 24.5133C35.0706 24.6081 34.862 24.736 34.6878 24.8775C34.5772 24.9742 34.5137 25.0535 34.6878 25.1637C34.9414 25.3379 35.1809 25.5447 35.4657 25.9108M34.3549 25.2431C34.0841 25.2744 33.7512 25.5915 33.7199 25.8781C33.6732 26.211 33.7045 26.4492 33.9267 26.6719C34.1322 26.8787 34.4978 26.9254 34.784 26.8479C35.0221 26.7685 35.2117 26.5617 35.3396 26.4342C35.6725 26.1167 34.7033 25.1973 34.3545 25.244" fill="#C5A266"/>
<path d="M39.7851 27.7028L39.6264 27.6561L39.3243 27.5767L38.8154 27.4334L39.2136 27.7817L39.4517 27.9886C39.5778 28.0992 39.6726 28.2113 39.7207 28.3061C39.7847 28.4009 39.8155 28.4961 39.8155 28.5768C39.8155 28.6236 39.8155 28.6716 39.7842 28.7184C39.7688 28.7664 39.7361 28.8132 39.6876 28.8617C39.6409 28.9098 39.5769 28.9565 39.5148 28.9891C39.4508 29.0359 39.356 29.0685 39.2753 29.0998C39.0063 29.1946 38.6888 29.2431 38.3387 29.2273C38.023 29.2119 37.6882 29.1479 37.3707 29.0204C36.6877 28.7342 36.0527 28.5442 35.4816 28.4013C35.004 28.2906 34.5758 28.2113 34.1962 28.1478C34.5604 27.8457 34.8933 27.4973 35.195 27.1472C35.5605 26.7195 35.878 26.2741 36.1801 25.8618C36.3702 25.6064 36.5443 25.3529 36.7199 25.1306C36.894 24.9097 37.0682 24.7029 37.2428 24.5283C37.3862 24.3849 37.5449 24.2575 37.7032 24.1781C37.862 24.0833 38.0221 24.0348 38.1636 24.0039C38.2584 23.9885 38.3378 23.9885 38.4171 23.9885C38.4965 23.9885 38.5759 24.0039 38.6398 24.0352C38.7038 24.0679 38.7673 24.0992 38.814 24.1473C38.8621 24.194 38.9106 24.2421 38.9415 24.306C38.9728 24.37 39.0054 24.4648 39.0208 24.5596C39.0363 24.6544 39.0363 24.7664 39.0208 24.8771L38.9895 25.1152L38.9415 25.5288L39.2122 25.21L39.371 25.0358C39.4817 24.9097 39.5919 24.7823 39.6867 24.6702C39.7987 24.5596 39.8935 24.4648 40.0055 24.37C40.1162 24.2734 40.211 24.1786 40.3385 24.0992C40.4659 24.0044 40.592 23.925 40.7353 23.8302C40.9254 23.7028 41.1476 23.6075 41.3545 23.544C41.5613 23.4801 41.7668 23.4492 41.9582 23.4492C42.053 23.4492 42.1323 23.4646 42.2117 23.4805C42.2911 23.4959 42.355 23.5286 42.4018 23.5599C42.4498 23.5925 42.4984 23.6238 42.5292 23.6719C42.5619 23.7186 42.5759 23.7667 42.5932 23.8307C42.6086 23.91 42.6086 23.9894 42.5932 24.0996C42.5759 24.1944 42.5451 24.3223 42.4984 24.4498L42.4176 24.6398L42.2915 24.9573L42.5936 24.7986L42.7678 24.7038C43.0853 24.5296 43.3543 24.4503 43.6096 24.4503C43.8786 24.4348 44.1013 24.5124 44.2755 24.6557C44.3875 24.7351 44.4823 24.8471 44.5617 24.9732C44.641 25.1007 44.6891 25.244 44.7204 25.3873C44.7517 25.5307 44.7517 25.6894 44.7204 25.8309C44.6891 25.9743 44.641 26.1171 44.5771 26.2278C44.451 26.4192 44.2596 26.5934 43.9906 26.6886C43.7353 26.7834 43.435 26.8161 43.054 26.768L42.7832 26.7367L42.3228 26.6886L42.7038 26.9594L42.9265 27.1182C43.054 27.213 43.1492 27.3236 43.2114 27.4357C43.2753 27.5618 43.3234 27.6892 43.3234 27.8167C43.3234 27.8788 43.3234 27.9428 43.308 28.0067C43.2926 28.0707 43.2753 28.1187 43.244 28.1655C43.2114 28.2135 43.1801 28.2621 43.1492 28.3088C43.1012 28.3569 43.0699 28.3882 43.0059 28.4195C42.8953 28.4834 42.7524 28.5161 42.5764 28.5161C42.4004 28.5161 42.2122 28.4834 41.9899 28.404C41.4982 28.2299 41.1168 28.102 40.7671 28.0072C40.4187 27.8797 40.1012 27.7845 39.7837 27.7051M35.7987 27.4515C38.2588 26.8478 40.2908 26.3875 42.3074 25.9112C39.3229 26.2614 37.2428 26.563 35.7987 27.4515Z" fill="#C5A266"/>
<path d="M32.625 32.4186C33.2287 32.3079 33.8152 32.1959 34.769 32.0857C35.3401 32.0217 35.6884 31.7995 35.8798 31.5301C35.9746 31.3867 36.0386 31.2112 36.0386 31.0525C36.0386 30.8937 35.9905 30.7195 35.9111 30.5762C35.7837 30.3381 35.5628 30.1485 35.2761 30.0532C36.0059 29.7357 36.3234 29.2427 36.3715 28.751C36.4028 28.3855 36.2921 28.0212 36.0694 27.735C35.8467 27.4488 35.5297 27.2279 35.1809 27.164C34.7033 27.0846 34.1649 27.2588 33.6886 27.8471C33.6405 27.6089 33.5612 27.4175 33.4659 27.2901C33.3385 27.1313 33.1638 27.052 32.9729 27.0365C32.7987 27.0211 32.5932 27.0692 32.3864 27.164C32.0054 27.3382 31.624 27.7037 31.355 28.1473C31.1636 28.4494 31.0375 28.7197 30.9273 28.9892C30.8307 29.2119 30.7672 29.4341 30.6878 29.7035C30.593 29.5294 30.4823 29.386 30.3549 29.2912C30.1807 29.1638 29.9893 29.1171 29.7992 29.1325C29.6092 29.1479 29.4024 29.2273 29.2282 29.3706C28.9574 29.5774 28.7039 29.9262 28.5451 30.3712C28.3864 30.8474 28.2743 31.4339 28.1641 32.0703C27.9881 33.133 27.7831 34.3232 27.2116 35.355L27.1168 35.5151L27.291 35.4671C27.4171 35.4358 27.481 35.4031 27.5445 35.3877C28.3383 35.1496 29.4663 34.784 30.91 34.7046C31.6725 34.6579 32.4023 34.2923 32.8318 33.8628C32.9906 33.704 33.1008 33.5299 33.1647 33.3557C33.2287 33.1815 33.2128 32.9901 33.1334 32.8314C33.0214 32.6572 32.8627 32.5139 32.6245 32.4191" fill="#231F20"/>
<path d="M26.0995 32.5297C26.0528 32.6245 26.0374 32.7212 26.0201 32.8159C26.0047 32.9107 26.0047 33.0214 26.0201 33.118C26.0201 33.1493 26.0374 33.1647 26.0374 33.1974C26.0374 33.2301 26.0528 33.2441 26.0528 33.2768C26.0841 33.3716 26.1149 33.4509 26.1476 33.5149C26.1789 33.5943 26.227 33.6582 26.275 33.7204C26.3218 33.7843 26.3857 33.8478 26.4478 33.8964C26.5132 33.9431 26.5925 33.9757 26.686 34.007C26.7667 34.0397 26.862 34.0551 26.9568 34.0551C27.0515 34.0551 27.1482 34.0397 27.243 34.007C27.3378 33.9757 27.4344 33.9431 27.5278 33.8964C27.6244 33.8483 27.7038 33.7843 27.7673 33.7362C27.814 33.6895 27.8621 33.6414 27.8947 33.5947C27.926 33.5308 27.9728 33.4827 27.9882 33.4206C28.0521 33.2772 28.1156 33.0858 28.1796 32.8962C28.2435 32.6894 28.2916 32.4826 28.307 32.3238C28.307 32.2925 28.3211 32.2617 28.3211 32.229C28.3211 32.1964 28.3211 32.1651 28.3383 32.1342C28.3383 32.0861 28.3538 32.0394 28.3538 31.9755C28.3538 31.9274 28.3692 31.8807 28.3851 31.8321C28.4177 31.7215 28.4177 31.6253 28.3851 31.5146C28.3696 31.404 28.3211 31.3078 28.2744 31.2298C28.2104 31.1332 28.1483 31.0697 28.0517 31.0071C27.9723 30.9431 27.8616 30.8951 27.7496 30.8638C27.6702 30.8465 27.5908 30.8311 27.5115 30.8311C27.4321 30.8311 27.3545 30.8465 27.2733 30.8792C27.194 30.9105 27.1146 30.9431 27.0506 30.9899C26.9713 31.0379 26.9091 31.1019 26.8606 31.1659C26.8139 31.2126 26.7812 31.2606 26.7499 31.3246C26.7173 31.3713 26.6846 31.4353 26.6551 31.4834C26.6225 31.5301 26.5912 31.594 26.5603 31.6421C26.5277 31.6888 26.495 31.7528 26.4796 31.8009C26.4329 31.9115 26.3689 32.0077 26.3208 32.1029C26.2415 32.2444 26.1621 32.3719 26.0981 32.5307" fill="#231F20"/>
<path d="M27.7822 32.4658C27.9736 32.5624 28.0843 32.5139 28.117 32.307C28.1324 32.1637 28.1483 31.9741 28.1809 31.8154C28.2589 31.4666 28.0208 31.1477 27.6879 31.0529C27.4017 30.9735 27.1323 31.1169 26.9894 31.3065C26.8479 31.4825 26.7204 31.6879 26.6238 31.8947C26.5617 32.0222 26.5458 32.1329 26.7513 32.1483C27.0688 32.181 27.3863 32.2603 27.7827 32.4658M26.5131 32.3551C26.2904 32.5139 26.1321 32.9416 26.2269 33.2124C26.339 33.5299 26.4664 33.7367 26.7667 33.8315C27.0375 33.9263 27.4017 33.7988 27.6085 33.6088C27.7986 33.4346 27.8639 33.1638 27.926 32.9897C28.0848 32.562 26.7993 32.1633 26.5131 32.3547" fill="#C5A266"/>
<path d="M32.4509 32.1642L32.2921 32.1968L31.9901 32.2608L31.4657 32.3556L31.9746 32.4989L32.2767 32.5783C32.4355 32.625 32.5615 32.6731 32.6563 32.737C32.7511 32.7992 32.8165 32.8631 32.8478 32.9271C32.879 32.9751 32.8791 33.0219 32.8958 33.0704C32.8958 33.1185 32.8958 33.1811 32.8786 33.2446C32.8632 33.3085 32.8319 33.372 32.7838 33.436C32.7371 33.4981 32.689 33.5793 32.6096 33.6414C32.4196 33.8483 32.1334 34.0224 31.8145 34.1658C31.5143 34.2932 31.1968 34.3885 30.8638 34.4039C30.1168 34.452 29.465 34.5626 28.894 34.6901C28.4177 34.8008 27.9882 34.9282 27.6244 35.0384C27.8158 34.5935 27.9728 34.1499 28.0848 33.6895C28.2263 33.1498 28.3075 32.6096 28.4023 32.1025C28.4504 31.7836 28.513 31.4988 28.561 31.2126C28.625 30.9277 28.6885 30.6728 28.7679 30.4501C28.83 30.2605 28.9266 30.0859 29.0214 29.943C29.1162 29.7843 29.2441 29.6722 29.3543 29.5774C29.4337 29.5307 29.4977 29.4826 29.5752 29.4513C29.656 29.4187 29.7199 29.4033 29.7993 29.4033C29.8614 29.4033 29.9408 29.4033 30.0061 29.4187C30.0683 29.4341 30.1322 29.4668 30.1803 29.4981C30.2443 29.5461 30.3064 29.6101 30.3545 29.6895C30.4012 29.7688 30.4493 29.8636 30.4978 29.9743L30.5772 30.197L30.7033 30.578L30.8153 30.1811L30.8793 29.9589C30.926 29.7847 30.9586 29.6414 31.0053 29.4981C31.0534 29.3547 31.102 29.2132 31.1487 29.0858C31.1968 28.9583 31.2593 28.8322 31.3228 28.6889C31.3882 28.5614 31.4662 28.4181 31.561 28.2766C31.6884 28.0698 31.8299 27.8956 31.9905 27.7523C32.1493 27.5935 32.3234 27.4815 32.4822 27.4021C32.5616 27.3708 32.6409 27.34 32.7203 27.3227C32.7997 27.3073 32.8636 27.3073 32.9271 27.3073C32.9906 27.3073 33.0378 27.3227 33.0859 27.3554C33.134 27.3867 33.1807 27.4193 33.2133 27.4661C33.2601 27.53 33.3068 27.6094 33.3394 27.7042C33.3707 27.8008 33.3875 27.911 33.4034 28.0543L33.4188 28.2612L33.4515 28.6095L33.6415 28.3233L33.7522 28.1646C33.959 27.8784 34.1817 27.6729 34.3872 27.5609C34.6267 27.4348 34.8634 27.4021 35.0857 27.4502C35.229 27.4815 35.3565 27.5296 35.4826 27.6089C35.61 27.6883 35.7207 27.8003 35.8173 27.911C35.9121 28.0371 35.976 28.1646 36.0228 28.3079C36.0708 28.4512 36.0867 28.5941 36.0708 28.7356C36.0554 28.9583 35.9447 29.1978 35.7533 29.4033C35.5792 29.5947 35.3097 29.7688 34.9428 29.8949L34.6893 29.9897L34.2457 30.1498L34.7047 30.2292L34.9755 30.2759C35.1342 30.3086 35.2603 30.3553 35.3723 30.4347C35.483 30.5141 35.5792 30.6089 35.6431 30.7209C35.6744 30.769 35.6898 30.8316 35.7053 30.8951C35.7207 30.959 35.7207 31.0071 35.7207 31.0692C35.7207 31.1314 35.7053 31.1813 35.6894 31.2452C35.674 31.2919 35.6427 31.3559 35.61 31.404C35.5306 31.5146 35.42 31.6094 35.2598 31.6888C35.1183 31.7682 34.9283 31.8163 34.6888 31.8476C34.1817 31.9115 33.7694 31.975 33.4193 32.0217C33.1018 32.039 32.7843 32.1025 32.4513 32.1651M28.7837 33.7054C30.7196 32.0703 32.3393 30.7694 33.9436 29.4513C31.4181 31.0697 29.6895 32.2617 28.7837 33.7054Z" fill="#C5A266"/>
<path d="M28.18 39.4835C28.6562 39.0866 29.1166 38.7056 29.8931 38.15C30.3553 37.8171 30.5608 37.4515 30.5935 37.134C30.6089 36.9598 30.5762 36.7856 30.4968 36.6423C30.4188 36.499 30.3068 36.3715 30.1485 36.2767C29.9258 36.1334 29.6396 36.0713 29.3393 36.118C29.8156 35.483 29.8623 34.8951 29.655 34.4515C29.5135 34.1168 29.2273 33.8478 28.8939 33.7045C28.5592 33.5612 28.1795 33.5303 27.8298 33.6406C27.3695 33.7993 26.9898 34.213 26.8619 34.9586C26.7032 34.7686 26.5598 34.6411 26.4015 34.5772C26.2101 34.4978 26.0205 34.515 25.8459 34.5944C25.6872 34.6738 25.5284 34.7999 25.401 34.9913C25.1628 35.3396 24.9887 35.8318 24.9732 36.3561C24.9578 36.7063 24.9732 37.0079 25.0045 37.3081C25.0372 37.5463 25.0839 37.7858 25.1479 38.0393C24.9891 37.9273 24.8149 37.8633 24.6562 37.8479C24.4494 37.8166 24.2593 37.8806 24.0838 37.9912C23.925 38.1019 23.7817 38.2602 23.6869 38.4829C23.5454 38.8004 23.4969 39.2141 23.5762 39.6903C23.671 40.1974 23.8611 40.753 24.0679 41.3567C24.4181 42.3727 24.8304 43.5166 24.8149 44.6914V44.8814L24.941 44.7553C25.0377 44.6587 25.0685 44.612 25.1324 44.5639C25.7035 43.9602 26.5299 43.1184 27.7514 42.3419C28.4032 41.9282 28.8622 41.2619 29.0209 40.6741C29.0862 40.4514 29.1017 40.2464 29.069 40.0718C29.0377 39.8803 28.9429 39.737 28.7842 39.6268C28.6408 39.4993 28.434 39.4526 28.1805 39.4835" fill="#231F20"/>
<path d="M22.528 42.7537C22.5435 42.8485 22.5607 42.9605 22.592 43.0558C22.6233 43.151 22.6714 43.2458 22.7353 43.3093C22.7507 43.3248 22.7666 43.3574 22.782 43.3733C22.7993 43.3887 22.8147 43.4046 22.8301 43.4214C22.8941 43.4835 22.9734 43.5475 23.0369 43.5955C23.1009 43.6436 23.1803 43.6903 23.2424 43.7062C23.3218 43.7389 23.4012 43.7543 23.4805 43.7702C23.5599 43.7856 23.6547 43.7702 23.7495 43.7547C23.8302 43.7393 23.9255 43.7067 24.0049 43.66C24.0842 43.6119 24.1636 43.5479 24.243 43.484C24.3224 43.4218 24.3863 43.3406 24.433 43.2458C24.4811 43.1665 24.5296 43.0717 24.5605 42.9923C24.5759 42.9283 24.5931 42.8648 24.5931 42.8022V42.5954C24.5759 42.4521 24.5451 42.2471 24.4965 42.0557C24.4498 41.8488 24.3859 41.6434 24.3378 41.5C24.3224 41.4687 24.3224 41.4361 24.3065 41.4207C24.2911 41.4052 24.2911 41.3726 24.2738 41.3259C24.2584 41.2778 24.2425 41.2311 24.2117 41.1825C24.1945 41.1345 24.179 41.0877 24.1636 41.0392C24.1323 40.9285 24.0842 40.8324 24.0203 40.7544C23.9563 40.675 23.8769 40.611 23.7822 40.5475C23.6874 40.4995 23.5921 40.4682 23.4801 40.4527C23.368 40.4355 23.2574 40.4527 23.1626 40.4682C23.0832 40.4836 23.0038 40.5162 22.9399 40.563C22.8605 40.611 22.8138 40.6578 22.7498 40.7217C22.6859 40.7857 22.6532 40.865 22.6065 40.9285C22.5752 41.0079 22.5425 41.0873 22.5271 41.1667C22.5117 41.2306 22.5117 41.2928 22.4958 41.3563C22.4958 41.4202 22.4786 41.4837 22.4786 41.5477V42.262C22.5112 42.4362 22.5112 42.5795 22.5267 42.7537" fill="#231F20"/>
<path d="M23.9727 41.8647C24.1954 41.8647 24.2589 41.754 24.1954 41.5626C24.1473 41.4193 24.068 41.2605 24.0213 41.1018C23.9246 40.7534 23.5609 40.5947 23.2261 40.6741C22.9413 40.738 22.7825 40.9916 22.7345 41.2297C22.6864 41.4678 22.6864 41.6901 22.7032 41.9282C22.7032 42.0715 22.7499 42.1817 22.9413 42.0869C23.2103 41.9609 23.5278 41.8801 23.9727 41.8647ZM22.8134 42.4044C22.6859 42.658 22.7667 43.1029 22.9721 43.293C23.2257 43.5152 23.4325 43.6277 23.7346 43.5792C24.0208 43.5325 24.273 43.2463 24.3696 42.9601C24.449 42.7219 24.385 42.4512 24.3542 42.2616C24.2734 41.818 22.9726 42.0874 22.8138 42.4049" fill="#C5A266"/>
<path d="M27.9092 39.341L27.7832 39.4358L27.545 39.6426L27.1309 39.9756L27.6552 39.8481L27.9573 39.7687C28.1161 39.7374 28.2594 39.722 28.3696 39.722C28.4798 39.722 28.5764 39.7533 28.6404 39.8014C28.6871 39.8327 28.7198 39.8653 28.7511 39.9121C28.7837 39.9601 28.7992 40.0069 28.815 40.0708C28.8305 40.1348 28.8305 40.2141 28.8305 40.2935C28.8305 40.3729 28.815 40.4677 28.7837 40.5625C28.7044 40.8333 28.5597 41.1349 28.3542 41.4043C28.1628 41.6597 27.9092 41.896 27.6244 42.072C27.0053 42.4689 26.481 42.8811 26.0355 43.278C25.6713 43.6109 25.3697 43.913 25.0989 44.1992C25.0676 43.723 24.9728 43.2472 24.8454 42.8018C24.702 42.262 24.5279 41.7372 24.3537 41.2614C24.243 40.9594 24.1469 40.675 24.0675 40.4042C23.9881 40.1352 23.9087 39.8812 23.8775 39.6436C23.8448 39.4367 23.8294 39.2467 23.8448 39.0711C23.8602 38.897 23.9087 38.7228 23.9722 38.5949C24.0049 38.5155 24.0516 38.4361 24.0983 38.3722C24.1464 38.31 24.2104 38.2615 24.2584 38.2153C24.3224 38.1826 24.3845 38.1513 24.4485 38.1345C24.5124 38.1191 24.5759 38.1191 24.6399 38.1191C24.7193 38.1345 24.7973 38.1518 24.8934 38.1985C24.9728 38.2465 25.0676 38.2933 25.147 38.3726L25.3212 38.5314L25.6232 38.8022L25.5284 38.4053L25.4645 38.1826C25.4178 38.0084 25.3851 37.8651 25.3538 37.7063C25.3212 37.563 25.3057 37.4201 25.2731 37.2768C25.2577 37.1335 25.2418 36.992 25.2418 36.8491V36.3728C25.2572 36.1347 25.2899 35.9125 25.3538 35.7052C25.4178 35.4997 25.5126 35.3083 25.6228 35.1496C25.6709 35.0702 25.7335 35.0062 25.797 34.9595C25.8609 34.9114 25.909 34.8647 25.9711 34.8475C26.0192 34.8162 26.0832 34.8162 26.1299 34.8162C26.1766 34.8162 26.2419 34.8316 26.29 34.8475C26.3539 34.8801 26.4315 34.9269 26.5109 34.9908C26.5916 35.0548 26.6542 35.1496 26.7336 35.2616L26.8456 35.4358L27.037 35.722L27.0683 35.3718L27.0837 35.165C27.115 34.8166 27.2098 34.53 27.3545 34.325C27.496 34.1023 27.6861 33.9594 27.8943 33.88C28.0358 33.8319 28.1619 33.8161 28.3052 33.8319C28.4485 33.8474 28.6073 33.88 28.7347 33.944C28.8781 34.0079 29.0037 34.0873 29.1158 34.1975C29.2105 34.2923 29.3058 34.4198 29.3539 34.5477C29.4487 34.7531 29.4645 35.0067 29.402 35.2929C29.338 35.5464 29.1792 35.8172 28.9257 36.1193L28.7343 36.3248L28.4322 36.6749L28.8772 36.5148L29.1461 36.42C29.2895 36.3733 29.4323 36.3579 29.5739 36.3733C29.7172 36.3887 29.8446 36.4373 29.9567 36.4994C30.0034 36.532 30.0515 36.5788 30.0982 36.6114C30.1463 36.6581 30.1776 36.7062 30.193 36.7548C30.2256 36.8015 30.2411 36.8654 30.2569 36.9135C30.2742 36.9756 30.2742 37.0242 30.2742 37.0877C30.2569 37.2138 30.2102 37.3566 30.1154 37.5C30.0206 37.6433 29.8773 37.7862 29.6859 37.9141C29.2736 38.2162 28.9407 38.4697 28.6545 38.692C28.4163 38.9283 28.1614 39.1356 27.9074 39.3424M25.4318 42.4856C26.3358 40.1207 27.1137 38.1989 27.8761 36.2617C26.4633 38.8974 25.5266 40.7711 25.4318 42.4856Z" fill="#C5A266"/>
<path d="M27.4012 47.9135C27.6393 47.3579 27.8943 46.8027 28.3379 45.9609C28.6086 45.4538 28.6241 45.0397 28.4966 44.7381C28.4326 44.5639 28.3224 44.436 28.1791 44.3412C28.0358 44.2464 27.877 44.1824 27.7187 44.167C27.4498 44.1357 27.1631 44.2151 26.925 44.3893C27.0683 43.6114 26.8456 43.0712 26.466 42.7541C26.1798 42.516 25.8142 42.404 25.4481 42.4212C25.0826 42.4366 24.7338 42.58 24.4802 42.8335C24.1473 43.1664 23.9886 43.7221 24.2113 44.4364C23.9886 44.3416 23.7971 44.2949 23.623 44.3103C23.4161 44.3258 23.2574 44.421 23.1313 44.5639C23.0193 44.7072 22.9399 44.8968 22.9072 45.1195C22.8451 45.5332 22.9245 46.0561 23.1313 46.5324C23.2746 46.8499 23.4161 47.1207 23.5917 47.3588C23.7178 47.5656 23.8765 47.7398 24.0353 47.9453C23.8452 47.914 23.6543 47.9298 23.5109 47.9933C23.3209 48.0573 23.1626 48.2002 23.0673 48.3744C22.9725 48.5485 22.924 48.7553 22.9399 48.9781C22.9553 49.3264 23.0986 49.7233 23.3848 50.1047C23.6869 50.517 24.116 50.9293 24.575 51.3743C25.3529 52.1213 26.2101 52.9613 26.7331 54.01L26.8139 54.1842L26.8619 54.01C26.8914 53.8825 26.9241 53.8199 26.9399 53.7564C27.1781 52.9613 27.5282 51.8347 28.2734 50.5964C28.6703 49.946 28.7824 49.1368 28.6703 48.5331C28.6236 48.3104 28.5442 48.119 28.4322 47.9775C28.3215 47.8341 28.1632 47.7394 27.9732 47.7067C27.8298 47.7239 27.6384 47.7706 27.4008 47.9135" fill="#231F20"/>
<path d="M23.8298 53.3591C23.8766 53.4385 23.9559 53.5179 24.0199 53.5972C24.0993 53.6612 24.1786 53.7247 24.258 53.7714C24.2734 53.7886 24.3061 53.7886 24.322 53.8041C24.3374 53.8195 24.37 53.8195 24.4027 53.8354C24.4975 53.868 24.5769 53.8834 24.6562 53.8993C24.7343 53.9147 24.8136 53.9147 24.8944 53.9147C24.9751 53.9147 25.0518 53.8834 25.1325 53.868C25.2119 53.8354 25.2899 53.7886 25.3688 53.7406C25.4341 53.6925 25.4963 53.6285 25.5602 53.5492C25.6069 53.4698 25.655 53.375 25.6877 53.2802C25.719 53.1854 25.7516 53.0901 25.7516 52.9781C25.767 52.8833 25.767 52.7881 25.7516 52.6933C25.7344 52.6293 25.719 52.5658 25.7035 52.5019C25.6709 52.4379 25.6555 52.3758 25.6069 52.3277C25.5289 52.2002 25.4169 52.0415 25.2894 51.8827C25.1479 51.724 25.0046 51.5652 24.8944 51.455C24.8771 51.4378 24.8463 51.4069 24.8304 51.3911C24.8132 51.3756 24.7823 51.3598 24.751 51.3271C24.7184 51.2958 24.6703 51.2632 24.6404 51.2323C24.6077 51.201 24.5596 51.1684 24.5283 51.1375C24.449 51.0581 24.3696 50.9942 24.273 50.9461C24.1782 50.898 24.0675 50.884 23.9727 50.884C23.8607 50.884 23.7659 50.898 23.6538 50.9307C23.5591 50.962 23.4638 51.0255 23.369 51.0894C23.305 51.1375 23.257 51.2015 23.2103 51.2808C23.1622 51.3602 23.1309 51.4224 23.1155 51.5017C23.1 51.5811 23.0828 51.6605 23.0828 51.7571C23.0828 51.8537 23.1 51.9313 23.1155 52.0106C23.1309 52.0746 23.1468 52.1381 23.1794 52.1848C23.1948 52.2488 23.2261 52.2955 23.2416 52.359C23.2742 52.4071 23.2896 52.471 23.3209 52.5177C23.3536 52.5658 23.3849 52.6298 23.4003 52.6765C23.4643 52.7731 23.5123 52.8833 23.5591 52.9786C23.6697 53.0906 23.735 53.2167 23.8298 53.3596" fill="#231F20"/>
<path d="M24.7338 51.9299C24.9252 51.8192 24.9406 51.7072 24.7818 51.5657C24.6712 51.4537 24.5283 51.343 24.4176 51.231C24.1781 50.962 23.7813 50.9774 23.5118 51.2155C23.2891 51.4069 23.2583 51.7072 23.3218 51.9453C23.3839 52.1676 23.496 52.3903 23.6066 52.5803C23.686 52.7078 23.75 52.7872 23.8928 52.613C24.0829 52.3422 24.3206 52.1367 24.7328 51.9299M23.9083 52.9151C23.9083 53.184 24.1772 53.5655 24.448 53.6449C24.7809 53.7397 25.019 53.7397 25.2572 53.5501C25.4967 53.3759 25.5919 53.0103 25.5434 52.7255C25.5107 52.4701 25.3207 52.2651 25.2105 52.1218C24.9723 51.7408 23.9083 52.5654 23.9083 52.9155" fill="#C5A266"/>
<path d="M27.116 47.8977L27.052 48.041L26.9259 48.3272L26.7191 48.8189L27.1314 48.486L27.3695 48.2791C27.497 48.1671 27.6249 48.105 27.7197 48.0564C27.8303 48.0084 27.9097 47.9925 27.9886 48.0084C28.0367 48.0084 28.0834 48.0256 28.132 48.0564C28.18 48.0891 28.2268 48.1204 28.2594 48.1671C28.3061 48.2152 28.3388 48.2791 28.3701 48.3585C28.4014 48.4379 28.434 48.5173 28.4495 48.6121C28.4962 48.8828 28.4962 49.2158 28.4341 49.5641C28.3701 49.8816 28.2599 50.1991 28.0839 50.4853C27.7029 51.1203 27.4181 51.724 27.2108 52.2792C27.0366 52.74 26.8933 53.1523 26.783 53.5179C26.5295 53.1056 26.2433 52.7241 25.924 52.3744C25.5598 51.9621 25.1629 51.5807 24.7819 51.2151C24.5592 50.9942 24.3369 50.7874 24.1315 50.5801C23.9401 50.3746 23.7505 50.1832 23.6071 49.9764C23.4797 49.8022 23.3863 49.6435 23.3209 49.4847C23.2588 49.3106 23.2261 49.1518 23.2103 48.9931C23.2103 48.8983 23.2103 48.8189 23.2257 48.7395C23.2411 48.6601 23.2738 48.5962 23.3051 48.5327C23.3377 48.4687 23.3858 48.422 23.4325 48.3739C23.4792 48.3272 23.5445 48.2946 23.6067 48.2791C23.6861 48.2465 23.7654 48.2311 23.8602 48.2311C23.955 48.2311 24.0671 48.2465 24.1777 48.2791L24.4172 48.3431L24.8123 48.4538L24.5433 48.1363L24.3846 47.9621C24.2725 47.8346 24.1619 47.7067 24.0671 47.5965C23.9723 47.4858 23.8929 47.3584 23.8135 47.2482C23.7341 47.1361 23.6548 47.01 23.5908 46.8826C23.5114 46.7551 23.4475 46.6118 23.3853 46.4549C23.2887 46.248 23.2252 46.0099 23.1939 45.8031C23.1626 45.5804 23.1459 45.3754 23.1785 45.184C23.1939 45.0892 23.2098 45.0098 23.2407 44.9304C23.2733 44.8665 23.3046 44.803 23.3373 44.7562C23.3686 44.7082 23.4153 44.6769 23.4634 44.6456C23.5114 44.6129 23.5582 44.5975 23.6221 44.5975C23.7015 44.5975 23.7809 44.5975 23.8757 44.6288C23.9723 44.6601 24.0825 44.7082 24.2104 44.7721L24.3846 44.8669L24.6866 45.0411L24.5592 44.7236L24.497 44.5335C24.3696 44.2006 24.3369 43.9144 24.3537 43.6609C24.385 43.3901 24.497 43.1846 24.6399 43.0259C24.7334 42.9293 24.8608 42.8499 24.9883 42.7864C25.1316 42.7242 25.2731 42.6916 25.4332 42.6916C25.5933 42.6916 25.7335 42.7088 25.8768 42.7555C26.0201 42.8036 26.1476 42.8676 26.2578 42.9624C26.432 43.1057 26.5753 43.3266 26.6234 43.5974C26.6701 43.8509 26.6701 44.1684 26.5753 44.5494L26.5114 44.8202L26.4007 45.2638L26.7336 44.9309L26.925 44.724C27.0357 44.6134 27.1613 44.534 27.2734 44.4859C27.3995 44.4392 27.5423 44.422 27.6702 44.422C27.7342 44.422 27.7977 44.4392 27.8444 44.47C27.8925 44.4855 27.9564 44.5181 28.0032 44.5494C28.0512 44.5821 28.0998 44.6288 28.1306 44.6769C28.1619 44.7236 28.1946 44.7717 28.2254 44.8356C28.2735 44.9617 28.2894 45.1046 28.2581 45.2806C28.2254 45.438 28.1787 45.6289 28.068 45.8516C27.8285 46.312 27.6539 46.6762 27.4956 47.011C27.3682 47.2958 27.2403 47.5974 27.1146 47.8995M26.3054 51.8206C26.0519 49.297 25.8759 47.2318 25.7017 45.1531C25.6224 48.153 25.6224 50.249 26.3054 51.8206Z" fill="#C5A266"/>
<path d="M30.6878 55.6451C30.6411 55.0414 30.593 54.439 30.5771 53.487C30.5617 52.9146 30.3857 52.5331 30.1476 52.3277C30.0061 52.2156 29.8473 52.1363 29.6886 52.1208C29.5284 52.1054 29.3538 52.1208 29.1955 52.2002C28.9574 52.295 28.7351 52.5023 28.5918 52.7713C28.3555 52.0102 27.8947 51.6446 27.4171 51.5498C27.0528 51.4704 26.6718 51.5498 26.3698 51.7394C26.0523 51.9308 25.8141 52.2156 25.7193 52.5658C25.5919 53.0262 25.7021 53.5818 26.2423 54.122C26.006 54.1374 25.8146 54.2014 25.6713 54.2808C25.4971 54.3914 25.4023 54.5497 25.3692 54.7398C25.3379 54.9158 25.3538 55.1208 25.4331 55.328C25.5765 55.7249 25.8935 56.1372 26.3076 56.4715C26.5766 56.6924 26.8306 56.8525 27.1014 56.9945C27.3068 57.1065 27.5291 57.2013 27.7831 57.2966C27.5917 57.3605 27.4502 57.4725 27.3381 57.5828C27.1948 57.7415 27.1327 57.9157 27.1327 58.1225C27.1327 58.3121 27.1794 58.5194 27.3069 58.7248C27.481 59.0269 27.7985 59.3131 28.2262 59.52C28.6884 59.7427 29.2595 59.8996 29.8786 60.0756C30.91 60.3604 32.0694 60.6947 33.0373 61.3764L33.1974 61.4885L33.1647 61.3125C33.1334 61.1864 33.1334 61.1224 33.1167 61.0589C32.9579 60.2498 32.737 59.0904 32.7992 57.6467C32.8318 56.8843 32.561 56.1064 32.1814 55.6455C32.0381 55.4714 31.8779 55.3435 31.7038 55.2646C31.5296 55.1852 31.3554 55.1698 31.1808 55.2491C30.974 55.2645 30.8306 55.4079 30.6878 55.646" fill="#231F20"/>
<path d="M30.1167 62.1385C30.1961 62.1852 30.3067 62.2333 30.4015 62.2491C30.4981 62.2818 30.6084 62.2818 30.7036 62.2818H30.783C30.8143 62.2818 30.8311 62.2818 30.8624 62.2664C30.9572 62.2491 31.0383 62.2183 31.1159 62.1856C31.1953 62.1543 31.276 62.1235 31.34 62.075C31.4021 62.0282 31.4661 61.9802 31.53 61.9162C31.5781 61.8522 31.6248 61.7729 31.6734 61.6935C31.7046 61.6141 31.7355 61.5347 31.7355 61.44C31.7527 61.3452 31.7355 61.2499 31.7201 61.1379C31.7046 61.0431 31.6733 60.931 31.6407 60.853C31.6094 60.7582 31.5613 60.6789 31.4974 60.5977C31.4506 60.551 31.418 60.5029 31.3713 60.4543C31.3232 60.4076 31.2592 60.3768 31.2112 60.3437C31.0851 60.2643 30.8955 60.1849 30.7195 60.1055C30.5294 60.0262 30.3244 59.9468 30.1639 59.9141C30.1326 59.8987 30.0999 59.8987 30.0691 59.8987C30.0382 59.8987 30.0069 59.8833 29.9743 59.8833C29.9262 59.8679 29.8795 59.8679 29.8309 59.852C29.7842 59.8366 29.7361 59.8193 29.6876 59.8039C29.5756 59.7713 29.4808 59.7572 29.3701 59.7572C29.2594 59.7572 29.1633 59.7885 29.068 59.8366C28.9732 59.8833 28.8939 59.9473 28.8145 60.0266C28.7505 60.106 28.687 60.2008 28.6403 60.3115C28.609 60.3922 28.5922 60.4716 28.5922 60.551C28.5922 60.6303 28.5922 60.7097 28.6095 60.7891C28.6235 60.8685 28.6562 60.9478 28.7043 61.0272C28.751 61.1066 28.7991 61.1705 28.863 61.2327C28.9111 61.2808 28.9578 61.3293 29.0063 61.3601C29.0531 61.4082 29.1011 61.4395 29.1479 61.4722C29.1959 61.5035 29.2445 61.5515 29.2912 61.5828C29.3393 61.6141 29.386 61.6468 29.4499 61.6776C29.5447 61.7416 29.6413 61.8037 29.7207 61.869C29.8468 61.9638 29.9588 62.0432 30.1176 62.138" fill="#231F20"/>
<path d="M30.2274 60.4398C30.3549 60.2484 30.3068 60.1378 30.1 60.0897C29.9585 60.0584 29.7671 60.0257 29.6237 59.9636C29.2908 59.8516 28.942 60.043 28.8146 60.3759C28.7039 60.6448 28.83 60.9315 28.9906 61.1057C29.1475 61.2798 29.3389 61.4078 29.5462 61.5352C29.6723 61.6146 29.7671 61.6459 29.8151 61.4404C29.8619 61.1215 29.9739 60.8213 30.2274 60.4398ZM29.9893 61.7094C30.1168 61.9475 30.5291 62.1543 30.8139 62.0904C31.1486 62.011 31.3555 61.9003 31.497 61.63C31.6244 61.361 31.5451 60.995 31.3555 60.7569C31.1954 60.5501 30.9432 60.4548 30.7831 60.3759C30.3554 60.169 29.8151 61.3919 29.9893 61.7094Z" fill="#C5A266"/>
<path d="M30.4347 55.7717L30.4501 55.9304L30.4814 56.2479L30.5295 56.7723L30.7363 56.2806L30.8624 55.9785C30.9264 55.8198 30.9899 55.7077 31.0693 55.6129C31.1332 55.5182 31.2108 55.4696 31.2902 55.4388C31.3382 55.4234 31.3868 55.4075 31.4335 55.4075C31.4802 55.4075 31.5455 55.4229 31.5922 55.4542C31.6562 55.4855 31.7197 55.5182 31.7836 55.5649C31.8476 55.613 31.9111 55.6769 31.9737 55.7563C32.1479 55.979 32.3084 56.2634 32.4186 56.5981C32.5134 56.8984 32.562 57.2485 32.5447 57.5815C32.5134 58.3285 32.5447 58.9943 32.6255 59.5667C32.6876 60.0584 32.7688 60.4861 32.8309 60.8676C32.4186 60.6295 31.9737 60.4226 31.5455 60.2652C31.0212 60.0738 30.4969 59.9151 29.9893 59.7876C29.6872 59.7083 29.401 59.6135 29.1162 59.5341C28.8454 59.4547 28.5919 59.3599 28.3691 59.2492C28.1791 59.1544 28.0208 59.0578 27.8929 58.9472C27.7496 58.8351 27.6394 58.6936 27.56 58.5662C27.5119 58.4868 27.4806 58.4074 27.4479 58.328C27.4325 58.2487 27.4166 58.1693 27.4166 58.1053C27.4166 58.0414 27.4321 57.962 27.4479 57.9139C27.4634 57.8518 27.5119 57.8032 27.56 57.7397C27.6067 57.6758 27.6861 57.6291 27.7654 57.581C27.8448 57.5343 27.9569 57.5016 28.0689 57.4703L28.3052 57.4222L28.7034 57.3275L28.3206 57.1841L28.0997 57.1047C27.9396 57.0408 27.7976 56.9787 27.6548 56.9306C27.5114 56.8666 27.3858 56.8031 27.2579 56.7405C27.1304 56.6766 27.0198 56.5972 26.8923 56.5178C26.7662 56.4385 26.6388 56.3437 26.5113 56.247C26.3213 56.1055 26.163 55.9454 26.0351 55.7708C25.8936 55.5966 25.7969 55.4066 25.733 55.231C25.7017 55.1517 25.6863 55.0569 25.669 54.9775C25.655 54.8981 25.669 54.8342 25.669 54.7707C25.6863 54.7085 25.7017 54.66 25.733 54.6133C25.7656 54.5652 25.7969 54.5325 25.8604 54.5012C25.9226 54.4532 26.0038 54.4219 26.0986 54.4064C26.1934 54.3892 26.3213 54.3738 26.4469 54.3738H26.6537L27.0039 54.3892L26.7504 54.1683L26.6057 54.0409C26.3367 53.8027 26.1621 53.5646 26.0827 53.3424C25.9879 53.0888 25.9707 52.8507 26.0346 52.6439C26.0827 52.5005 26.1466 52.3749 26.2247 52.2629C26.3213 52.1522 26.4315 52.042 26.5594 51.9608C26.6855 51.8814 26.8302 51.8347 26.9889 51.802C27.1304 51.7707 27.2738 51.7707 27.4166 51.802C27.6394 51.8501 27.8616 51.978 28.0516 52.1989C28.2258 52.4057 28.3691 52.6765 28.4485 53.0562L28.5125 53.3269L28.6232 53.7873L28.7506 53.3424L28.83 53.0734C28.8781 52.9301 28.942 52.8026 29.0368 52.6924C29.1316 52.5804 29.2423 52.501 29.3525 52.4543C29.4164 52.4216 29.4645 52.4062 29.5285 52.4062C29.5906 52.3908 29.6391 52.3908 29.7026 52.4062C29.7666 52.4062 29.8147 52.4216 29.8768 52.4543C29.9249 52.4697 29.9889 52.501 30.0215 52.5491C30.1163 52.6284 30.2116 52.7545 30.2578 52.9301C30.3231 53.0888 30.3544 53.2784 30.3544 53.5165C30.3544 54.0409 30.3699 54.4377 30.4012 54.8033C30.3699 55.1208 30.4011 55.4383 30.4338 55.7712M31.5605 59.5976C30.1476 57.4862 29.0196 55.7558 27.8775 54.01C29.2264 56.6925 30.227 58.5335 31.5605 59.5976Z" fill="#C5A266"/>
<path d="M37.1018 61.1855C36.7843 60.6612 36.4826 60.1382 36.0545 59.2964C35.8009 58.7875 35.4662 58.5339 35.1487 58.4391C34.9745 58.391 34.8003 58.4078 34.6398 58.4545C34.4828 58.5026 34.3395 58.6133 34.2288 58.7407C34.0528 58.9308 33.9426 59.217 33.9426 59.5186C33.387 58.9476 32.816 58.8042 32.3383 58.9303C31.9741 59.0251 31.6725 59.2651 31.4811 59.5653C31.291 59.8688 31.1963 60.2484 31.2584 60.5986C31.3391 61.0748 31.6879 61.518 32.4018 61.7579C32.1964 61.884 32.0535 62.0115 31.9569 62.153C31.8462 62.329 31.8294 62.5185 31.8775 62.6927C31.9256 62.8687 32.0363 63.0429 32.1964 63.2016C32.4966 63.4878 32.9575 63.7414 33.4818 63.8366C33.8301 63.9006 34.1168 63.9473 34.4184 63.9473C34.6565 63.9645 34.8947 63.9473 35.1636 63.9319C35.0221 64.0752 34.9409 64.234 34.8947 64.3768C34.8307 64.5823 34.862 64.7737 34.9414 64.9479C35.0221 65.122 35.1641 65.2826 35.3555 65.4082C35.6417 65.5997 36.054 65.7103 36.5289 65.7103C37.0378 65.6949 37.6261 65.5997 38.2606 65.4881C39.3247 65.298 40.4999 65.0758 41.6729 65.2654L41.8643 65.298L41.7536 65.1547C41.6729 65.0599 41.6416 64.996 41.5948 64.9479C41.0859 64.282 40.372 63.3454 39.801 62.0119C39.4989 61.3134 38.9111 60.7424 38.3554 60.487C38.15 60.3922 37.9431 60.3437 37.769 60.3437C37.5775 60.3437 37.4188 60.423 37.2927 60.5659C37.1961 60.7247 37.1167 60.9315 37.1013 61.185" fill="#231F20"/>
<path d="M39.4631 67.282C39.5547 67.282 39.664 67.282 39.757 67.2666C39.8505 67.2511 39.9439 67.2185 40.0369 67.1718C40.0523 67.1563 40.0836 67.1391 40.099 67.1391C40.1131 67.1237 40.1444 67.1078 40.1598 67.0924C40.2378 67.0284 40.3 66.9817 40.3467 66.9164C40.4088 66.8524 40.4542 66.7903 40.4868 66.7263C40.5317 66.647 40.563 66.583 40.5784 66.5036C40.5957 66.4243 40.6097 66.3295 40.6097 66.2347C40.6097 66.1553 40.5957 66.0587 40.563 65.9639C40.5317 65.8691 40.4868 65.7897 40.4247 65.7103C40.3625 65.631 40.3004 65.5516 40.2224 65.4876C40.1444 65.4237 40.0668 65.3602 39.9906 65.3289C39.9285 65.2976 39.8663 65.2822 39.8196 65.2649C39.7575 65.2495 39.6953 65.2336 39.6346 65.2336C39.4944 65.2182 39.2921 65.2182 39.0916 65.2336C38.8893 65.2491 38.6716 65.2649 38.5328 65.2976C38.5015 65.2976 38.4707 65.313 38.4394 65.313C38.4081 65.313 38.3773 65.3284 38.3478 65.3284C38.2997 65.3439 38.253 65.3439 38.2076 65.3597C38.1609 65.377 38.1142 65.377 38.0675 65.3924C37.9586 65.4078 37.8652 65.4405 37.7717 65.4872C37.6801 65.5353 37.6021 65.6146 37.5413 65.694C37.4774 65.7734 37.4307 65.8682 37.3998 65.9789C37.3685 66.0737 37.3685 66.1857 37.3685 66.2977C37.3685 66.3753 37.3998 66.4565 37.4307 66.5359C37.462 66.6139 37.5087 66.6792 37.5549 66.7427C37.6017 66.8048 37.6638 66.8688 37.7418 66.9155C37.818 66.9636 37.8801 67.0121 37.9582 67.0275C38.0203 67.0429 38.0824 67.0588 38.1292 67.0915C38.1913 67.1069 38.2521 67.1228 38.2988 67.1382C38.3609 67.1554 38.4077 67.1554 38.4698 67.1709C38.5319 67.1863 38.5941 67.1863 38.6408 67.1863C38.7483 67.2017 38.8571 67.2176 38.966 67.233C39.1529 67.2502 39.2912 67.2656 39.4622 67.2811" fill="#231F20"/>
<path d="M38.8013 65.7103C38.8326 65.4876 38.7374 65.4083 38.5305 65.4568C38.389 65.4881 38.1976 65.5362 38.0389 65.5675C37.6905 65.6155 37.4678 65.933 37.4991 66.2832C37.5304 66.5835 37.7527 66.7749 37.9754 66.8543C38.1981 66.9336 38.4357 66.9817 38.6584 66.9958C38.8018 67.013 38.912 66.9958 38.8485 66.7903C38.7691 66.4882 38.7378 66.1712 38.8018 65.7103M39.1347 66.9491C39.3574 67.1078 39.8178 67.1078 40.0405 66.9336C40.3094 66.7268 40.4528 66.5368 40.4373 66.2179C40.4373 65.9331 40.1992 65.6314 39.9284 65.5035C39.7057 65.3928 39.4213 65.4087 39.2454 65.4087C38.785 65.4087 38.8485 66.7436 39.1347 66.9491Z" fill="#C5A266"/>
<path d="M36.9272 61.4232L37.0066 61.5665L37.1653 61.8373L37.4343 62.2981L37.403 61.7738L37.3876 61.4563C37.3721 61.2803 37.3876 61.1542 37.403 61.044C37.4343 60.932 37.4669 60.8526 37.515 60.7886C37.5463 60.7573 37.593 60.7247 37.6257 60.7093C37.6738 60.6938 37.7364 60.678 37.7844 60.678C37.8484 60.678 37.9278 60.678 38.0071 60.6934C38.0865 60.7088 38.1659 60.7415 38.2607 60.7882C38.516 60.9002 38.7836 61.1057 39.0231 61.3438C39.2458 61.5819 39.4354 61.8527 39.5629 62.1702C39.8491 62.8533 40.182 63.4243 40.4995 63.916C40.7685 64.3301 41.0225 64.6785 41.262 64.9806C40.7857 64.9479 40.3081 64.9633 39.8319 65.0118C39.2762 65.0758 38.7365 65.172 38.2294 65.2654C37.9119 65.3293 37.6257 65.3774 37.3395 65.4241C37.0546 65.4722 36.7997 65.4881 36.5457 65.5049C36.3403 65.5049 36.1489 65.4876 35.9747 65.4409C35.8005 65.3928 35.6418 65.3289 35.5143 65.2495C35.4349 65.2028 35.371 65.1388 35.3229 65.0753C35.2762 65.0114 35.2295 64.9479 35.1968 64.8853C35.1655 64.8213 35.1487 64.7578 35.1487 64.6939C35.1487 64.6299 35.1487 64.5678 35.166 64.5043C35.1814 64.4249 35.2299 64.3456 35.2766 64.2662C35.3406 64.1868 35.4041 64.1074 35.4975 64.0435L35.6889 63.8847L36.0064 63.6312L35.5941 63.6625L35.356 63.6779C35.1818 63.6933 35.0231 63.7105 34.8798 63.7105H34.4502C34.3087 63.7105 34.1654 63.6933 34.0225 63.6779C33.8792 63.6625 33.7204 63.6312 33.5621 63.5985C33.3394 63.5518 33.1172 63.4724 32.9117 63.3758C32.7049 63.281 32.5461 63.1531 32.4028 63.0275C32.3388 62.9635 32.2921 62.9 32.2441 62.8361C32.1973 62.7721 32.1819 62.71 32.1647 62.6465C32.1493 62.5825 32.1493 62.5358 32.1493 62.4723C32.1493 62.4242 32.1819 62.3603 32.2132 62.3135C32.2445 62.2496 32.308 62.1861 32.3874 62.124C32.4668 62.0586 32.5615 61.9947 32.6895 61.948L32.8795 61.8686L33.1984 61.7253L32.8636 61.6305L32.6736 61.5824C32.3234 61.4876 32.0699 61.3443 31.8957 61.1855C31.6889 61.0113 31.5936 60.7886 31.5455 60.5832C31.5143 60.4398 31.5301 60.297 31.561 60.1536C31.5936 60.0103 31.6576 59.8688 31.737 59.7413C31.815 59.6139 31.927 59.5032 32.0372 59.4084C32.1493 59.329 32.2767 59.2651 32.42 59.217C32.6409 59.1531 32.8963 59.1703 33.1653 59.2964C33.4034 59.4084 33.6569 59.5985 33.8951 59.8829L34.071 60.0897L34.3713 60.4553L34.2919 59.9949L34.2452 59.7259C34.2126 59.5672 34.2298 59.4238 34.2606 59.2964C34.2919 59.1531 34.3554 59.0428 34.4507 58.948C34.4988 58.9 34.5473 58.8514 34.594 58.8206C34.6421 58.7893 34.6888 58.7566 34.7528 58.7412C34.8008 58.7258 34.8634 58.7086 34.9287 58.7086C34.9941 58.7086 35.0394 58.7086 35.1029 58.7258C35.2304 58.7571 35.3565 58.8365 35.4826 58.9485C35.61 59.0592 35.7207 59.2175 35.8327 59.4402C36.0708 59.9005 36.2622 60.2648 36.4364 60.5668C36.5952 60.8689 36.7539 61.1379 36.9281 61.4241M39.6277 64.3619C37.4352 63.0923 35.6585 62.0278 33.8642 60.9651C36.245 62.7903 37.9595 64.0131 39.6277 64.3619Z" fill="#C5A266"/>
<path d="M50.1996 27.989C49.6113 28.1478 49.0262 28.322 48.1363 28.624C47.5947 28.8155 47.1838 28.7674 46.8976 28.6086C46.7388 28.5138 46.6268 28.3859 46.5474 28.243C46.4681 28.0997 46.4368 27.9255 46.4526 27.7514C46.4681 27.4824 46.5801 27.2116 46.7874 26.9889C45.9923 27.0216 45.4852 26.7199 45.2312 26.3072C45.0398 25.9883 44.9758 25.6087 45.0552 25.2585C45.1191 24.9102 45.3106 24.5755 45.6108 24.3546C45.9918 24.0684 46.5647 23.989 47.2459 24.3065C47.1838 24.0684 47.1666 23.8788 47.1992 23.7182C47.2459 23.5127 47.358 23.3699 47.5167 23.2746C47.6755 23.178 47.8651 23.1313 48.0878 23.1313C48.5001 23.1313 49.009 23.2746 49.4526 23.559C49.756 23.7504 49.9923 23.9246 50.2164 24.1314C50.3906 24.2902 50.5647 24.4643 50.7393 24.6544C50.7393 24.4489 50.7861 24.2902 50.8668 24.1473C50.9616 23.9559 51.1204 23.8298 51.2945 23.7663C51.4687 23.6869 51.6914 23.6715 51.9136 23.7182C52.2484 23.7822 52.628 23.9736 52.9782 24.3219C53.3424 24.6875 53.6926 25.1637 54.0581 25.6881C54.6931 26.5612 55.3916 27.5287 56.3596 28.2117L56.5183 28.3224L56.3441 28.3551C56.2167 28.3705 56.1527 28.3864 56.0906 28.4018C55.2642 28.5292 54.1053 28.7193 52.7718 29.2763C52.0733 29.5765 51.2487 29.5765 50.6759 29.3711C50.455 29.2917 50.279 29.1797 50.1529 29.0536C50.0254 28.9102 49.9461 28.7515 49.9615 28.5605C49.9461 28.3864 50.0254 28.1963 50.1996 27.9895" fill="#231F20"/>
<path d="M56.1056 25.2268C56.1849 25.2907 56.2489 25.3701 56.311 25.4495C56.375 25.5288 56.4231 25.6236 56.4385 25.7184C56.4539 25.7511 56.4539 25.7665 56.4539 25.7978C56.4539 25.8291 56.4693 25.8459 56.4693 25.8772C56.4866 25.9738 56.4866 26.0532 56.4866 26.148C56.4866 26.2273 56.4866 26.3067 56.4539 26.3861C56.4385 26.4655 56.4058 26.5448 56.3591 26.6242C56.311 26.7036 56.2643 26.7675 56.2004 26.8297C56.1364 26.8936 56.057 26.9417 55.9777 26.9898C55.8983 27.0365 55.7876 27.0692 55.6928 27.0846C55.5962 27.1 55.486 27.1159 55.3907 27.1159C55.2955 27.1159 55.1993 27.1005 55.1045 27.0692C55.0406 27.0519 54.9771 27.0211 54.9304 26.9898C54.8664 26.9571 54.8183 26.9258 54.7716 26.8778C54.6596 26.783 54.5163 26.6396 54.3734 26.4968C54.2319 26.338 54.0885 26.1793 54.0092 26.0532C53.9937 26.0205 53.9765 26.0051 53.9611 25.9738C53.9457 25.9566 53.9298 25.9257 53.9144 25.8944C53.8817 25.8618 53.8663 25.815 53.835 25.767C53.8023 25.7189 53.771 25.6876 53.7556 25.6563C53.6917 25.5756 53.6436 25.4803 53.6123 25.3701C53.581 25.2753 53.581 25.1633 53.581 25.0526C53.5964 24.9406 53.6277 24.8458 53.6758 24.7505C53.7225 24.6557 53.7865 24.5763 53.8813 24.497C53.9452 24.433 54.0087 24.4022 54.0881 24.3695C54.1675 24.3382 54.2468 24.3214 54.3262 24.3056C54.4056 24.2901 54.5022 24.3056 54.5798 24.3056C54.6591 24.321 54.7539 24.3536 54.8179 24.3849C54.8818 24.4176 54.9299 24.433 54.9921 24.4643C55.056 24.497 55.1041 24.5283 55.1522 24.5591C55.1989 24.5918 55.247 24.6231 55.3109 24.6557C55.3576 24.687 55.4057 24.7351 55.4524 24.7664C55.549 24.8458 55.6438 24.8938 55.7232 24.9578C55.8507 25.0199 55.9613 25.1165 56.1042 25.2268" fill="#231F20"/>
<path d="M54.5493 25.9103C54.4232 26.0845 54.2958 26.0845 54.1683 25.9103C54.089 25.7829 53.9942 25.6241 53.8835 25.4967C53.6608 25.2118 53.7247 24.8308 53.9942 24.5927C54.2169 24.4013 54.5185 24.4185 54.7412 24.5133C54.9467 24.6081 55.1535 24.736 55.3277 24.8775C55.4383 24.9742 55.5018 25.0535 55.3277 25.1637C55.0587 25.3379 54.8206 25.5447 54.5498 25.9108M55.6452 25.2431C55.916 25.2744 56.2489 25.5915 56.2802 25.8781C56.3282 26.211 56.2974 26.4492 56.0747 26.6719C55.8679 26.8787 55.5023 26.9254 55.2175 26.8479C54.978 26.7685 54.7879 26.5617 54.6618 26.4342C54.3271 26.1167 55.2968 25.1973 55.6452 25.244" fill="#C5A266"/>
<path d="M50.2318 27.7028L50.3905 27.6561L50.6908 27.5767L51.1997 27.4334L50.8028 27.7817L50.5647 27.9886C50.4373 28.0992 50.342 28.2113 50.2939 28.3061C50.2318 28.4009 50.1991 28.4961 50.1991 28.5768C50.1991 28.6236 50.1991 28.6716 50.2318 28.7184C50.2472 28.7664 50.2785 28.8132 50.3266 28.8617C50.3733 28.9098 50.4373 28.9565 50.5026 28.9891C50.5647 29.0359 50.6595 29.0685 50.7389 29.0998C51.0097 29.1946 51.3272 29.2431 51.6755 29.2273C51.993 29.2119 52.3259 29.1479 52.6434 29.0204C53.3265 28.7342 53.9615 28.5442 54.5326 28.4013C55.0102 28.2906 55.4383 28.2113 55.8193 28.1478C55.4538 27.8457 55.1208 27.4973 54.8188 27.1472C54.4545 26.7195 54.1357 26.2741 53.8354 25.8618C53.644 25.6064 53.4698 25.3529 53.2957 25.1306C53.1197 24.9097 52.9455 24.7029 52.7713 24.5283C52.628 24.3849 52.4693 24.2575 52.311 24.1781C52.1522 24.0833 51.9935 24.0348 51.8519 24.0039C51.7553 23.9885 51.676 23.9885 51.5966 23.9885C51.5172 23.9885 51.4378 24.0039 51.3739 24.0352C51.3117 24.0679 51.2478 24.0992 51.1997 24.1473C51.1516 24.194 51.1049 24.2421 51.0736 24.306C51.041 24.37 51.0097 24.4648 50.9929 24.5596C50.9775 24.6544 50.9775 24.7664 50.9929 24.8771L51.0255 25.1152L51.0736 25.5288L50.8028 25.21L50.6441 25.0358C50.532 24.9097 50.4214 24.7823 50.3266 24.6702C50.2159 24.5596 50.1198 24.4648 50.0091 24.37C49.897 24.2734 49.8023 24.1786 49.6743 24.0992C49.5483 24.0044 49.4222 23.925 49.2793 23.8302C49.0879 23.7028 48.8652 23.6075 48.6602 23.544C48.4533 23.4801 48.246 23.4492 48.0565 23.4492C47.9598 23.4492 47.8823 23.4646 47.8029 23.4805C47.7235 23.4959 47.6582 23.5286 47.6115 23.5599C47.5634 23.5925 47.5167 23.6238 47.4854 23.6719C47.4527 23.7186 47.4373 23.7667 47.4215 23.8307C47.406 23.91 47.406 23.9894 47.4215 24.0996C47.4369 24.1944 47.4682 24.3223 47.5162 24.4498L47.5956 24.6398L47.7231 24.9573L47.421 24.7986L47.2468 24.7038C46.928 24.5296 46.6585 24.4503 46.4036 24.4503C46.1347 24.4348 45.912 24.5124 45.7378 24.6557C45.6271 24.7351 45.5323 24.8471 45.4529 24.9732C45.3722 25.1007 45.3255 25.244 45.2942 25.3873C45.2615 25.5307 45.2615 25.6894 45.2942 25.8309C45.3255 25.9743 45.3722 26.1171 45.4357 26.2278C45.5632 26.4192 45.7532 26.5934 46.024 26.6886C46.2775 26.7834 46.5796 26.8161 46.9606 26.768L47.2296 26.7367L47.69 26.6886L47.309 26.9594L47.0881 27.1182C46.9606 27.213 46.8654 27.3236 46.8019 27.4357C46.7379 27.5618 46.6898 27.6892 46.6898 27.8167C46.6898 27.8788 46.6898 27.9428 46.7053 28.0067C46.7225 28.0707 46.7379 28.1187 46.7692 28.1655C46.8019 28.2135 46.8332 28.2621 46.8658 28.3088C46.9125 28.3569 46.9452 28.3882 47.0073 28.4195C47.1194 28.4834 47.2627 28.5161 47.4369 28.5161C47.611 28.5161 47.8025 28.4834 48.0233 28.404C48.5164 28.2299 48.8978 28.102 49.2462 28.0072C49.5945 27.8797 49.912 27.7845 50.2313 27.7051M54.2164 27.4515C51.7549 26.8478 49.7229 26.3875 47.7063 25.9112C50.6749 26.2614 52.7555 26.563 54.2164 27.4515Z" fill="#C5A266"/>
<path d="M57.3914 32.4186C56.7877 32.3079 56.1994 32.1959 55.2473 32.0857C54.6763 32.0217 54.3279 31.7995 54.1365 31.5301C54.0417 31.3867 53.9778 31.2112 53.9778 31.0525C53.9778 30.8937 54.0259 30.7195 54.1052 30.5762C54.2327 30.3381 54.4536 30.1485 54.7402 30.0532C54.0091 29.7357 53.6929 29.2427 53.6449 28.751C53.6122 28.3855 53.7242 28.0212 53.9469 27.735C54.1696 27.4488 54.4867 27.2279 54.8355 27.164C55.3117 27.0846 55.8515 27.2588 56.3277 27.8471C56.3758 27.6089 56.4552 27.4175 56.5504 27.2901C56.6779 27.1313 56.8525 27.052 57.0435 27.0365C57.2176 27.0211 57.4231 27.0692 57.6299 27.164C58.0109 27.3382 58.3924 27.7037 58.6614 28.1473C58.8514 28.4494 58.9789 28.7197 59.0909 28.9892C59.1857 29.2119 59.2496 29.4341 59.329 29.7035C59.4238 29.5294 59.5358 29.386 59.6619 29.2912C59.8361 29.1638 60.0262 29.1171 60.2176 29.1325C60.4076 29.1479 60.6144 29.2273 60.7886 29.3706C61.0594 29.5774 61.3129 29.9262 61.4717 30.3712C61.6304 30.8474 61.7425 31.4339 61.8527 32.0703C62.0269 33.133 62.2337 34.3232 62.8047 35.355L62.8995 35.5151L62.7254 35.4671C62.5979 35.4358 62.5353 35.4031 62.4718 35.3877C61.6781 35.1496 60.55 34.784 59.1063 34.7046C58.3439 34.6579 57.6141 34.2923 57.1845 33.8628C57.0258 33.704 56.9156 33.5299 56.8516 33.3557C56.7877 33.1815 56.8035 32.9901 56.8829 32.8314C56.9949 32.6572 57.1383 32.5139 57.3918 32.4191" fill="#231F20"/>
<path d="M63.916 32.5297C63.9641 32.6245 63.98 32.7212 63.9954 32.8159C64.0126 32.9107 64.0126 33.0214 63.9954 33.118C63.9954 33.1493 63.98 33.1647 63.98 33.1974C63.98 33.2301 63.9645 33.2441 63.9645 33.2768C63.9332 33.3716 63.9006 33.4509 63.8697 33.5149C63.8371 33.5943 63.7904 33.6582 63.7423 33.7204C63.6942 33.7843 63.6302 33.8478 63.5681 33.8964C63.5042 33.9431 63.4248 33.9757 63.33 34.007C63.2492 34.0397 63.1558 34.0551 63.0592 34.0551C62.9626 34.0551 62.8692 34.0397 62.773 34.007C62.6796 33.9757 62.583 33.9431 62.4882 33.8964C62.3934 33.8483 62.314 33.7843 62.25 33.7362C62.202 33.6895 62.1552 33.6414 62.1239 33.5947C62.0913 33.5308 62.0432 33.4827 62.0273 33.4206C61.9634 33.2772 61.8999 33.0858 61.8373 32.8962C61.7733 32.6894 61.7252 32.4826 61.7098 32.3238C61.7098 32.2925 61.6944 32.2617 61.6944 32.229C61.6944 32.1964 61.6944 32.1651 61.679 32.1342C61.679 32.0861 61.6617 32.0394 61.6617 31.9755C61.6617 31.9274 61.6463 31.8807 61.6305 31.8321C61.5992 31.7215 61.5992 31.6253 61.6305 31.5146C61.6459 31.404 61.6944 31.3078 61.7425 31.2298C61.8046 31.1332 61.8686 31.0697 61.9634 31.0071C62.0427 30.9431 62.1548 30.8951 62.2655 30.8638C62.3448 30.8465 62.4242 30.8311 62.5036 30.8311C62.583 30.8311 62.6623 30.8465 62.7417 30.8792C62.8211 30.9105 62.9005 30.9431 62.9644 30.9899C63.0438 31.0379 63.1077 31.1019 63.1545 31.1659C63.2025 31.2126 63.2352 31.2606 63.2665 31.3246C63.2978 31.3713 63.3304 31.4353 63.3613 31.4834C63.3926 31.5301 63.4252 31.594 63.4561 31.6421C63.4887 31.6888 63.52 31.7528 63.5355 31.8009C63.5835 31.9115 63.6475 32.0077 63.6942 32.1029C63.7736 32.2444 63.8375 32.3719 63.9169 32.5307" fill="#231F20"/>
<path d="M62.2169 32.4658C62.0269 32.5624 61.9166 32.5139 61.884 32.307C61.8686 32.1637 61.8527 31.9741 61.8218 31.8154C61.7425 31.4666 61.9788 31.1477 62.3135 31.0529C62.5984 30.9735 62.8691 31.1169 63.0106 31.3065C63.1553 31.4825 63.2814 31.6879 63.3762 31.8947C63.4402 32.0222 63.4556 32.1329 63.2488 32.1483C62.9331 32.181 62.631 32.2603 62.2173 32.4658M63.5041 32.3551C63.7268 32.5139 63.8851 32.9416 63.7903 33.2124C63.6783 33.5299 63.5509 33.7367 63.2488 33.8315C62.9798 33.9263 62.6138 33.7988 62.4088 33.6088C62.2174 33.4346 62.1534 33.1638 62.0913 32.9897C61.9325 32.562 63.2021 32.1633 63.5041 32.3547" fill="#C5A266"/>
<path d="M57.5502 32.1642L57.7089 32.1968L58.011 32.2608L58.534 32.3556L58.0269 32.4989L57.7248 32.5783C57.5661 32.625 57.44 32.6731 57.3438 32.737C57.249 32.7992 57.1851 32.8631 57.1538 32.9271C57.1211 32.9751 57.1211 33.0219 57.1057 33.0704C57.1057 33.1185 57.1057 33.1811 57.1211 33.2446C57.1383 33.3085 57.1692 33.372 57.2177 33.436C57.2644 33.4981 57.3125 33.5793 57.3919 33.6414C57.5819 33.8483 57.8681 34.0224 58.1856 34.1658C58.4877 34.2932 58.8048 34.3885 59.1395 34.4039C59.8847 34.452 60.5351 34.5626 61.1062 34.6901C61.5824 34.8008 62.012 34.9282 62.3757 35.0384C62.1857 34.5935 62.0274 34.1499 61.9167 33.6895C61.7734 33.1498 61.694 32.6096 61.5992 32.1025C61.5511 31.7836 61.4885 31.4988 61.4405 31.2126C61.3765 30.9277 61.313 30.6728 61.2336 30.4501C61.1697 30.2605 61.0749 30.0859 60.9801 29.943C60.8853 29.7843 60.7574 29.6722 60.6472 29.5774C60.5678 29.5307 60.5038 29.4826 60.4245 29.4513C60.3451 29.4187 60.2811 29.4033 60.2018 29.4033C60.1378 29.4033 60.0584 29.4033 59.9949 29.4187C59.9314 29.4341 59.8688 29.4668 59.8208 29.4981C59.7568 29.5461 59.6933 29.6101 59.6466 29.6895C59.5985 29.7688 59.5518 29.8636 59.5033 29.9743L59.4239 30.197L59.2964 30.578L59.1858 30.1811L59.1218 29.9589C59.0737 29.7847 59.0424 29.6414 58.9957 29.4981C58.9476 29.3547 58.8991 29.2132 58.851 29.0858C58.8043 28.9583 58.7422 28.8322 58.6769 28.6889C58.6129 28.5614 58.5335 28.4181 58.4387 28.2766C58.3126 28.0698 58.1698 27.8956 58.011 27.7523C57.8523 27.5935 57.6781 27.4815 57.5193 27.4021C57.44 27.3708 57.3606 27.34 57.2799 27.3227C57.2005 27.3073 57.1383 27.3073 57.0744 27.3073C57.0104 27.3073 56.9637 27.3227 56.9156 27.3554C56.8676 27.3867 56.8208 27.4193 56.7882 27.4661C56.7401 27.53 56.6934 27.6094 56.6621 27.7042C56.6308 27.8008 56.614 27.911 56.5968 28.0543L56.5827 28.2612L56.5501 28.6095L56.36 28.3233L56.248 28.1646C56.0425 27.8784 55.8203 27.6729 55.613 27.5609C55.3748 27.4348 55.1367 27.4021 54.9145 27.4502C54.773 27.4815 54.6455 27.5296 54.5176 27.6089C54.3915 27.6883 54.2795 27.8003 54.1847 27.911C54.0899 28.0371 54.0259 28.1646 53.9778 28.3079C53.9311 28.4512 53.9139 28.5941 53.9311 28.7356C53.9466 28.9583 54.0572 29.1978 54.2486 29.4033C54.4228 29.5947 54.6936 29.7688 55.0578 29.8949L55.3114 29.9897L55.7563 30.1498L55.2959 30.2292L55.027 30.2759C54.8682 30.3086 54.7408 30.3553 54.6301 30.4347C54.5181 30.5141 54.4233 30.6089 54.3593 30.7209C54.328 30.769 54.3112 30.8316 54.2953 30.8951C54.2795 30.9586 54.2799 31.0071 54.2799 31.0692C54.2799 31.1314 54.2953 31.1813 54.3112 31.2452C54.3285 31.2919 54.3593 31.3559 54.392 31.404C54.4713 31.5146 54.582 31.6094 54.7403 31.6888C54.8836 31.7682 55.0732 31.8163 55.3114 31.8476C55.8203 31.9115 56.2326 31.975 56.5827 32.0217C56.8984 32.039 57.2331 32.1025 57.5506 32.1651M61.2336 33.7054C59.2964 32.0703 57.6781 30.7694 56.0738 29.4513C58.5975 31.0697 60.3279 32.2617 61.2336 33.7054Z" fill="#C5A266"/>
<path d="M61.8368 39.4835C61.3606 39.0866 60.9002 38.7056 60.1223 38.15C59.662 37.8171 59.4565 37.4515 59.4238 37.134C59.4084 36.9598 59.4393 36.7856 59.5186 36.6423C59.598 36.499 59.71 36.3715 59.8688 36.2767C60.0897 36.1334 60.3759 36.0713 60.678 36.118C60.2017 35.483 60.1536 34.8951 60.3605 34.4515C60.5038 34.1168 60.7882 33.8478 61.1216 33.7045C61.4563 33.5612 61.8373 33.5303 62.1856 33.6406C62.6478 33.7993 63.0275 34.213 63.1549 34.9586C63.3137 34.7686 63.457 34.6411 63.6153 34.5772C63.8053 34.4978 63.9963 34.515 64.1709 34.5944C64.3297 34.6738 64.4884 34.7999 64.6145 34.9913C64.854 35.3396 65.0286 35.8318 65.044 36.3561C65.0595 36.7063 65.044 37.0079 65.0114 37.3081C64.9801 37.5463 64.9334 37.7858 64.8681 38.0393C65.0282 37.9273 65.2028 37.8633 65.3611 37.8479C65.5679 37.8166 65.758 37.8806 65.9321 37.9912C66.0922 38.1019 66.2356 38.2602 66.3304 38.4829C66.4737 38.8004 66.5204 39.2141 66.441 39.6903C66.3444 40.1974 66.1548 40.753 65.9494 41.3567C65.5992 42.3727 65.1869 43.5166 65.2023 44.6914V44.8814L65.0749 44.7553C64.9801 44.6587 64.9488 44.612 64.8848 44.5639C64.3124 43.9602 63.4874 43.1184 62.2659 42.3419C61.6141 41.9282 61.1551 41.2619 60.9946 40.6741C60.9306 40.4514 60.9152 40.2464 60.9478 40.0718C60.9791 39.8803 61.0739 39.737 61.2327 39.6268C61.3601 39.4993 61.5656 39.4526 61.8364 39.4835" fill="#231F20"/>
<path d="M67.4884 42.7537C67.4729 42.8485 67.4557 42.9605 67.4244 43.0558C67.3931 43.151 67.345 43.2458 67.2811 43.3093C67.2656 43.3248 67.2498 43.3574 67.2344 43.3733C67.2189 43.3887 67.2031 43.4046 67.1863 43.4214C67.1223 43.4835 67.0429 43.5475 66.9794 43.5955C66.9173 43.6436 66.8379 43.6903 66.774 43.7062C66.6946 43.7389 66.6152 43.7543 66.5345 43.7702C66.4565 43.7856 66.3617 43.7702 66.2655 43.7547C66.1861 43.7393 66.0913 43.7067 66.012 43.66C65.9326 43.6119 65.8532 43.5479 65.7738 43.484C65.6945 43.4218 65.6305 43.3406 65.5838 43.2458C65.5357 43.1665 65.4872 43.0717 65.4563 42.9923C65.4409 42.9283 65.4251 42.8648 65.4251 42.8022V42.5954C65.4405 42.4521 65.4718 42.2471 65.5199 42.0557C65.5679 41.8488 65.6305 41.6434 65.6786 41.5C65.694 41.4687 65.694 41.4361 65.7099 41.4207C65.7271 41.4052 65.7271 41.3726 65.7426 41.3259C65.758 41.2778 65.7738 41.2311 65.8047 41.1825C65.8219 41.1345 65.8373 41.0877 65.8528 41.0392C65.8854 40.9285 65.9321 40.8324 65.9961 40.7544C66.0601 40.675 66.1376 40.611 66.2342 40.5475C66.329 40.4995 66.4243 40.4682 66.5345 40.4527C66.6465 40.4355 66.7586 40.4527 66.8533 40.4682C66.9327 40.4836 67.0121 40.5162 67.0761 40.563C67.1554 40.611 67.2035 40.6578 67.2661 40.7217C67.3301 40.7857 67.3609 40.865 67.4094 40.9285C67.4407 41.0079 67.4734 41.0873 67.4888 41.1667C67.5042 41.2306 67.5042 41.2928 67.5201 41.3563C67.5201 41.4202 67.5355 41.4837 67.5355 41.5477V42.262C67.4888 42.4362 67.4888 42.5795 67.4888 42.7537" fill="#231F20"/>
<path d="M66.0287 41.8647C65.806 41.8647 65.7425 41.754 65.806 41.5626C65.8528 41.4193 65.9321 41.2605 65.9802 41.1018C66.0768 40.7534 66.4406 40.5947 66.774 40.6741C67.0602 40.738 67.2189 40.9916 67.267 41.2297C67.3137 41.4678 67.3137 41.6901 67.2983 41.9282C67.2983 42.0715 67.2502 42.1817 67.0602 42.0869C66.8066 41.9609 66.4878 41.8801 66.0287 41.8647ZM67.2035 42.4044C67.3296 42.658 67.2502 43.1029 67.0434 43.293C66.7898 43.5152 66.583 43.6277 66.2823 43.5792C65.9961 43.5325 65.7425 43.2463 65.6473 42.9601C65.5679 42.7219 65.6301 42.4512 65.6627 42.2616C65.7267 41.818 67.0429 42.0874 67.203 42.4049" fill="#C5A266"/>
<path d="M62.0904 39.341L62.2178 39.4358L62.456 39.6426L62.8683 39.9756L62.3453 39.8481L62.0432 39.7687C61.8831 39.7374 61.7411 39.722 61.6291 39.722C61.5171 39.722 61.4236 39.7533 61.3601 39.8014C61.3134 39.8327 61.2808 39.8653 61.2495 39.9121C61.2168 39.9601 61.2014 40.0069 61.1841 40.0708C61.1701 40.1348 61.1701 40.2141 61.1701 40.2935C61.1701 40.3729 61.1841 40.4677 61.2168 40.5625C61.2962 40.8333 61.4395 41.1349 61.6463 41.4043C61.8364 41.6597 62.0899 41.896 62.3761 42.072C62.9953 42.4689 63.5182 42.8811 63.9632 43.278C64.3288 43.6109 64.6308 43.913 64.9016 44.1992C64.9329 43.723 65.0277 43.2472 65.1538 42.8018C65.2971 42.262 65.4713 41.7372 65.6468 41.2614C65.7575 40.9594 65.8523 40.675 65.9317 40.4042C66.0111 40.1352 66.0918 39.8812 66.1231 39.6436C66.1544 39.4367 66.1712 39.2467 66.1544 39.0711C66.139 38.897 66.0922 38.7228 66.0283 38.5949C65.9956 38.5155 65.9489 38.4361 65.9008 38.3722C65.8528 38.31 65.7902 38.2615 65.7421 38.2153C65.6781 38.1826 65.6146 38.1513 65.5507 38.1345C65.4885 38.1191 65.4246 38.1191 65.3606 38.1191C65.2813 38.1345 65.2019 38.1518 65.1071 38.1985C65.0277 38.2465 64.9329 38.2933 64.8535 38.3726L64.6776 38.5314L64.3755 38.8022L64.4721 38.4053L64.536 38.1826C64.5828 38.0084 64.6154 37.8651 64.6467 37.7063C64.678 37.563 64.6948 37.4201 64.7261 37.2768C64.7433 37.1335 64.7587 36.992 64.7587 36.8491V36.3728C64.7433 36.1347 64.7107 35.9125 64.6467 35.7052C64.5828 35.4997 64.488 35.3083 64.3759 35.1496C64.3292 35.0702 64.2653 35.0062 64.2018 34.9595C64.1396 34.9114 64.0911 34.8647 64.0276 34.8475C63.9795 34.8162 63.9156 34.8162 63.8688 34.8162C63.8221 34.8162 63.7582 34.8316 63.7101 34.8475C63.6461 34.8801 63.5668 34.9269 63.4874 34.9908C63.408 35.0548 63.3459 35.1496 63.2647 35.2616L63.154 35.4358L62.964 35.722L62.9313 35.3718L62.9159 35.165C62.8832 34.8166 62.7884 34.53 62.6469 34.325C62.5036 34.1023 62.3122 33.9594 62.1072 33.88C61.9638 33.8319 61.8364 33.8161 61.693 33.8319C61.5515 33.8474 61.391 33.88 61.2653 33.944C61.122 34.0079 60.9945 34.0873 60.8843 34.1975C60.7895 34.2923 60.6943 34.4198 60.6462 34.5477C60.5496 34.7531 60.5342 35.0067 60.5981 35.2929C60.6621 35.5464 60.8208 35.8172 61.0744 36.1193L61.2658 36.3248L61.5679 36.6749L61.1229 36.5148L60.8539 36.42C60.7106 36.3733 60.5677 36.3579 60.4244 36.3733C60.2811 36.3887 60.1536 36.4373 60.0434 36.4994C59.9953 36.532 59.9486 36.5788 59.9001 36.6114C59.8534 36.6581 59.8221 36.7062 59.8053 36.7548C59.774 36.8015 59.7572 36.8654 59.7413 36.9135C59.7259 36.9756 59.7259 37.0242 59.7259 37.0877C59.7413 37.2138 59.788 37.3566 59.8847 37.5C59.9795 37.6433 60.1228 37.7862 60.3142 37.9141C60.7265 38.2162 61.0594 38.4697 61.3456 38.692C61.5819 38.9283 61.8373 39.1356 62.0908 39.3424M64.5678 42.4856C63.6638 40.1207 62.8841 38.1989 62.1235 36.2617C63.5364 38.8974 64.473 40.7711 64.5678 42.4856Z" fill="#C5A266"/>
<path d="M62.5984 47.9135C62.3603 47.3579 62.1067 46.8027 61.6618 45.9609C61.391 45.4538 61.3769 45.0397 61.503 44.7381C61.567 44.5639 61.6772 44.436 61.8205 44.3412C61.9638 44.2464 62.1226 44.1824 62.2809 44.167C62.5498 44.1357 62.8365 44.2151 63.0746 44.3893C62.9331 43.6114 63.1554 43.0712 63.535 42.7541C63.8212 42.516 64.1854 42.404 64.551 42.4212C64.9166 42.4366 65.2654 42.58 65.5189 42.8335C65.8537 43.1664 66.012 43.7221 65.7897 44.4364C66.0124 44.3416 66.202 44.2949 66.3762 44.3103C66.583 44.3258 66.7436 44.421 66.8692 44.5639C66.9799 44.7072 67.0593 44.8968 67.0919 45.1195C67.1541 45.5332 67.0747 46.0561 66.8692 46.5324C66.7259 46.8499 66.583 47.1207 66.4088 47.3588C66.2814 47.5656 66.1226 47.7398 65.9639 47.9453C66.1553 47.914 66.3449 47.9298 66.4882 47.9933C66.6783 48.0573 66.8384 48.2002 66.9332 48.3744C67.028 48.5485 67.0747 48.7553 67.0593 48.9781C67.0438 49.3264 66.9005 49.7233 66.6143 50.1047C66.314 50.517 65.8845 50.9293 65.4241 51.3743C64.6463 52.1213 63.789 52.9613 63.266 54.01L63.1853 54.1842L63.1386 54.01C63.1073 53.8825 63.0746 53.8199 63.0592 53.7564C62.8211 52.9613 62.4727 51.8347 61.7257 50.5964C61.3288 49.946 61.2168 49.1368 61.3288 48.5331C61.3769 48.3104 61.4563 48.119 61.567 47.9775C61.6776 47.8341 61.8359 47.7394 62.0273 47.7067C62.1707 47.7239 62.3757 47.7706 62.5984 47.9135Z" fill="#231F20"/>
<path d="M66.1866 53.3591C66.1385 53.4385 66.0591 53.5179 65.9965 53.5972C65.9158 53.6612 65.8378 53.7247 65.7584 53.7714C65.7412 53.7886 65.7103 53.7886 65.6944 53.8041C65.6772 53.8195 65.6464 53.8195 65.6151 53.8354C65.5184 53.868 65.4409 53.8834 65.3615 53.8993C65.2808 53.9147 65.2028 53.9147 65.122 53.9147C65.0413 53.9147 64.9633 53.8834 64.8839 53.868C64.8059 53.8354 64.7252 53.7886 64.6458 53.7406C64.5818 53.6925 64.5197 53.6285 64.4557 53.5492C64.409 53.4698 64.3609 53.375 64.3283 53.2802C64.297 53.1854 64.2661 53.0901 64.2661 52.9781C64.2489 52.8833 64.2489 52.7881 64.2661 52.6933C64.2816 52.6293 64.2974 52.5658 64.3129 52.5019C64.3442 52.4379 64.3609 52.3758 64.4095 52.3277C64.4875 52.2002 64.5995 52.0415 64.7252 51.8827C64.8685 51.724 65.0114 51.5652 65.122 51.455C65.1393 51.4378 65.1701 51.4069 65.186 51.3911C65.2032 51.3756 65.2341 51.3598 65.2654 51.3271C65.298 51.2958 65.3447 51.2632 65.376 51.2323C65.4087 51.201 65.4568 51.1684 65.4881 51.1375C65.5674 51.0581 65.6468 50.9942 65.7416 50.9461C65.8382 50.898 65.9484 50.884 66.0437 50.884C66.1557 50.884 66.2505 50.898 66.3612 50.9307C66.4578 50.962 66.5526 51.0255 66.6474 51.0894C66.7113 51.1375 66.7594 51.2015 66.8061 51.2808C66.8542 51.3602 66.8855 51.4224 66.9009 51.5017C66.9164 51.5811 66.9336 51.6605 66.9336 51.7571C66.9336 51.8537 66.9164 51.9313 66.9009 52.0106C66.8855 52.0746 66.8696 52.1381 66.8388 52.1848C66.8216 52.2488 66.7907 52.2955 66.7735 52.359C66.744 52.4071 66.7268 52.471 66.6955 52.5177C66.6628 52.5658 66.6315 52.6298 66.6161 52.6765C66.5521 52.7731 66.5041 52.8833 66.4573 52.9786C66.3453 53.0906 66.2814 53.2167 66.1866 53.3596" fill="#231F20"/>
<path d="M65.2808 51.9299C65.0907 51.8192 65.0753 51.7072 65.2341 51.5657C65.3447 51.4537 65.4876 51.343 65.5996 51.231C65.8378 50.962 66.2346 50.9774 66.5036 51.2155C66.7263 51.4069 66.759 51.7072 66.695 51.9453C66.6311 52.1676 66.519 52.3903 66.4088 52.5803C66.3294 52.7078 66.2655 52.7872 66.1226 52.613C65.9326 52.3422 65.6777 52.1367 65.2808 51.9299ZM66.0913 52.9151C66.0913 53.184 65.8205 53.5655 65.5516 53.6449C65.2186 53.7397 64.9805 53.7397 64.7424 53.5501C64.5029 53.3759 64.4095 53.0103 64.4562 52.7255C64.4875 52.4701 64.6789 52.2651 64.7891 52.1218C65.0445 51.7408 66.0913 52.5654 66.0913 52.9155" fill="#C5A266"/>
<path d="M62.8995 47.8977L62.9635 48.041L63.0909 48.3272L63.2978 48.8189L62.8837 48.486L62.6455 48.2791C62.5194 48.1671 62.392 48.105 62.2972 48.0564C62.1852 48.0084 62.1071 47.9925 62.0264 48.0084C61.9783 48.0084 61.9316 48.0256 61.8831 48.0564C61.8364 48.0891 61.7883 48.1204 61.757 48.1671C61.7089 48.2152 61.6776 48.2791 61.6463 48.3585C61.6137 48.4379 61.581 48.5173 61.5656 48.6121C61.5189 48.8828 61.5189 49.2158 61.581 49.5641C61.6463 49.8816 61.757 50.1991 61.9312 50.4853C62.3122 51.1203 62.5988 51.724 62.8043 52.2792C62.9803 52.74 63.1218 53.1523 63.2338 53.5179C63.4874 53.1056 63.7736 52.7241 64.0911 52.3744C64.4553 51.9621 64.8535 51.5807 65.2332 51.2151C65.4559 50.9942 65.6781 50.7874 65.8849 50.5801C66.0764 50.3746 66.2646 50.1832 66.4079 49.9764C66.5354 49.8022 66.6306 49.6435 66.6941 49.4847C66.7581 49.3106 66.7889 49.1518 66.8061 48.9931C66.8061 48.8983 66.8061 48.8189 66.7889 48.7395C66.7735 48.6601 66.7422 48.5962 66.7095 48.5327C66.6782 48.4687 66.6302 48.422 66.5821 48.3739C66.5354 48.3272 66.4714 48.2946 66.4079 48.2791C66.3285 48.2465 66.2492 48.2311 66.1544 48.2311C66.0596 48.2311 65.9475 48.2465 65.8369 48.2791L65.5987 48.3431L65.2019 48.4538L65.4708 48.1363L65.6296 47.9621C65.7416 47.8346 65.8523 47.7067 65.9471 47.5965C66.0419 47.4858 66.1231 47.3584 66.2006 47.2482C66.2814 47.1361 66.3607 47.01 66.4247 46.8826C66.5027 46.7551 66.5662 46.6118 66.6302 46.4549C66.725 46.248 66.7889 46.0099 66.8216 45.8031C66.8529 45.5804 66.8683 45.3754 66.837 45.184C66.8216 45.0892 66.8057 45.0098 66.773 44.9304C66.7417 44.8665 66.7091 44.803 66.6782 44.7562C66.6456 44.7082 66.5989 44.6769 66.5508 44.6456C66.5027 44.6129 66.456 44.5975 66.392 44.5975C66.3127 44.5975 66.2333 44.5975 66.1385 44.6288C66.0419 44.6601 65.9317 44.7082 65.8038 44.7721L65.6296 44.8669L65.3293 45.0411L65.4554 44.7236L65.5194 44.5335C65.6468 44.2006 65.6781 43.9144 65.6627 43.6609C65.63 43.3901 65.5194 43.1846 65.3765 43.0259C65.2817 42.9293 65.1538 42.8499 65.0281 42.7864C64.8848 42.7242 64.7419 42.6916 64.5832 42.6916C64.4244 42.6916 64.2811 42.7088 64.1396 42.7555C63.9963 42.8036 63.8688 42.8676 63.7586 42.9624C63.5826 43.1057 63.4397 43.3266 63.393 43.5974C63.3449 43.8509 63.3449 44.1684 63.4397 44.5494L63.5037 44.8202L63.6157 45.2638L63.281 44.9309L63.0909 44.724C62.9803 44.6134 62.8528 44.534 62.7426 44.4859C62.6151 44.4392 62.4718 44.422 62.3457 44.422C62.2818 44.422 62.2183 44.4392 62.1697 44.47C62.123 44.4855 62.0591 44.5181 62.011 44.5494C61.9643 44.5821 61.9162 44.6288 61.8835 44.6769C61.8522 44.7236 61.8214 44.7717 61.7887 44.8356C61.742 44.9617 61.7248 45.1046 61.7574 45.2806C61.7887 45.438 61.8368 45.6289 61.9488 45.8516C62.1852 46.312 62.3611 46.6762 62.5199 47.011C62.6306 47.2958 62.7562 47.5974 62.8995 47.8995M63.7101 51.8206C63.9636 49.297 64.1396 47.2318 64.3124 45.1531C64.3931 48.153 64.3764 50.249 63.7101 51.8206Z" fill="#C5A266"/>
<path d="M59.3123 55.6451C59.359 55.0414 59.4071 54.439 59.4229 53.487C59.4402 52.9146 59.6143 52.5331 59.8525 52.3277C59.994 52.2156 60.1527 52.1363 60.3128 52.1208C60.4716 52.1054 60.6458 52.1208 60.8045 52.2002C61.0426 52.295 61.2649 52.5023 61.4082 52.7713C61.6463 52.0102 62.1067 51.6446 62.5816 51.5498C62.9472 51.4704 63.3286 51.5498 63.6303 51.7394C63.9491 51.9308 64.1859 52.2156 64.2807 52.5658C64.4081 53.0262 64.2979 53.5818 63.7577 54.122C63.9958 54.1374 64.1854 54.2014 64.3288 54.2808C64.5029 54.3914 64.5996 54.5497 64.6309 54.7398C64.6621 54.9158 64.6463 55.1208 64.5669 55.328C64.4236 55.7249 64.1065 56.1372 63.6938 56.4715C63.4248 56.6924 63.1694 56.8525 62.9 56.9945C62.6932 57.1065 62.4705 57.2013 62.2169 57.2966C62.4083 57.3605 62.5499 57.4725 62.6619 57.5828C62.8052 57.7415 62.8674 57.9157 62.8674 58.1225C62.8674 58.3121 62.8206 58.5194 62.6932 58.7248C62.519 59.0269 62.2015 59.3131 61.772 59.52C61.313 59.7427 60.7406 59.8996 60.1228 60.0756C59.0896 60.3604 57.9302 60.6947 56.9628 61.3764L56.804 61.4885L56.8367 61.3125C56.8662 61.1864 56.8662 61.1224 56.8834 61.0589C57.0421 60.2498 57.263 59.0904 57.2009 57.6467C57.1682 56.8843 57.439 56.1064 57.82 55.6455C57.9615 55.4714 58.1221 55.3435 58.2963 55.2646C58.4723 55.1852 58.6446 55.1698 58.8206 55.2491C59.0261 55.2645 59.1848 55.4079 59.3123 55.646" fill="#231F20"/>
<path d="M59.8996 62.1385C59.8202 62.1852 59.7096 62.2333 59.6148 62.2491C59.5181 62.2818 59.4079 62.2818 59.3127 62.2818H59.2319C59.2006 62.2818 59.1852 62.2818 59.1539 62.2664C59.0591 62.2491 58.9779 62.2183 58.8986 62.1856C58.8192 62.1543 58.7412 62.1235 58.6777 62.075C58.6124 62.0282 58.5502 61.9802 58.4863 61.9162C58.4382 61.8522 58.3915 61.7729 58.3429 61.6935C58.3116 61.6141 58.279 61.5347 58.279 61.44C58.2636 61.3452 58.279 61.2499 58.2944 61.1379C58.3116 61.0431 58.3425 60.931 58.3751 60.853C58.4064 60.7582 58.4545 60.6789 58.5185 60.5977C58.5652 60.551 58.5965 60.5029 58.6446 60.4543C58.6913 60.4076 58.7552 60.3768 58.8033 60.3437C58.9308 60.2643 59.1208 60.1849 59.295 60.1055C59.4864 60.0262 59.6932 59.9468 59.852 59.9141C59.8833 59.8987 59.9141 59.8987 59.9468 59.8987C59.9794 59.8987 60.0107 59.8833 60.0416 59.8833C60.0883 59.8679 60.1364 59.8679 60.1849 59.852C60.2316 59.8366 60.2797 59.8193 60.3282 59.8039C60.4389 59.7713 60.5337 59.7572 60.6457 59.7572C60.7578 59.7572 60.8526 59.7885 60.9478 59.8366C61.0426 59.8833 61.1206 59.9473 61.2014 60.0266C61.2635 60.106 61.3274 60.2008 61.3755 60.3115C61.4068 60.3922 61.4222 60.4716 61.4222 60.551C61.4222 60.6303 61.4222 60.7097 61.4068 60.7891C61.3914 60.8685 61.3601 60.9478 61.312 61.0272C61.2639 61.1066 61.2172 61.1705 61.1533 61.2327C61.1052 61.2808 61.0585 61.3293 61.0099 61.3601C60.9632 61.4082 60.9151 61.4395 60.8666 61.4722C60.8199 61.5035 60.7718 61.5515 60.7233 61.5828C60.6766 61.6141 60.6285 61.6468 60.5664 61.6776C60.4716 61.7416 60.3749 61.8037 60.2956 61.869C60.1695 61.9638 60.042 62.0432 59.8987 62.138" fill="#231F20"/>
<path d="M59.773 60.4398C59.6456 60.2484 59.6937 60.1378 59.8991 60.0897C60.0425 60.0584 60.2339 60.0257 60.3767 59.9636C60.7097 59.8516 61.0585 60.043 61.1859 60.3759C61.2966 60.6448 61.1705 60.9315 61.0099 61.1057C60.8525 61.2798 60.6616 61.4078 60.4543 61.5352C60.3282 61.6146 60.2334 61.6459 60.1853 61.4404C60.154 61.1215 60.0266 60.8213 59.773 60.4398ZM60.0266 61.7094C59.8991 61.9475 59.4882 62.1543 59.202 62.0904C58.8673 62.011 58.6622 61.9003 58.5189 61.63C58.3915 61.361 58.4708 60.995 58.6622 60.7569C58.821 60.5501 59.0745 60.4548 59.2333 60.3759C59.6628 60.169 60.1853 61.3919 60.027 61.7094" fill="#C5A266"/>
<path d="M59.5813 55.7717L59.5659 55.9304L59.5364 56.2479L59.4883 56.7723L59.2815 56.2806L59.1554 55.9785C59.0914 55.8198 59.0279 55.7077 58.9485 55.6129C58.8846 55.5181 58.8052 55.4696 58.7258 55.4388C58.6778 55.4233 58.631 55.4075 58.5825 55.4075C58.534 55.4075 58.4718 55.4229 58.4238 55.4542C58.3598 55.4855 58.2963 55.5181 58.2324 55.5649C58.1702 55.6129 58.1063 55.6769 58.0423 55.7563C57.8681 55.979 57.7094 56.2633 57.5987 56.5981C57.5021 56.8983 57.4554 57.2485 57.4713 57.5814C57.5026 58.3285 57.4713 58.9943 57.3919 59.5667C57.3279 60.0584 57.2486 60.4861 57.1851 60.8676C57.5992 60.6294 58.0423 60.4226 58.4718 60.2652C58.9962 60.0738 59.5191 59.9151 60.0262 59.7876C60.3283 59.7082 60.6145 59.6134 60.9007 59.5341C61.1697 59.4547 61.4237 59.3599 61.6459 59.2492C61.8373 59.1544 61.9961 59.0578 62.1235 58.9471C62.2651 58.8351 62.3757 58.6936 62.4551 58.5661C62.5032 58.4868 62.5358 58.4074 62.5671 58.328C62.5826 58.2486 62.5984 58.1693 62.5984 58.1053C62.5984 58.0414 62.583 57.962 62.5671 57.9139C62.5517 57.8518 62.5032 57.8032 62.4551 57.7397C62.4084 57.6758 62.329 57.6291 62.2496 57.581C62.1703 57.5343 62.0582 57.5016 61.9476 57.4703L61.7094 57.4222L61.3126 57.3274L61.6936 57.1841L61.9163 57.1047C62.075 57.0408 62.2165 56.9786 62.3599 56.9306C62.5032 56.8666 62.6306 56.8031 62.7567 56.7405C62.8842 56.6766 62.9949 56.5972 63.1223 56.5178C63.2484 56.4384 63.3759 56.3436 63.5033 56.247C63.6934 56.1055 63.8517 55.9454 63.9796 55.7708C64.1229 55.5966 64.2177 55.4065 64.2816 55.231C64.3129 55.1516 64.3297 55.0568 64.3438 54.9775C64.361 54.8981 64.3438 54.8341 64.3438 54.7706C64.3297 54.7085 64.3125 54.66 64.2816 54.6133C64.249 54.5652 64.2177 54.5325 64.1542 54.5012C64.092 54.4531 64.0127 54.4218 63.9161 54.4064C63.8213 54.3892 63.6934 54.3738 63.5677 54.3738H63.3609L63.0107 54.3892L63.3142 54.1529L63.4557 54.0254C63.7265 53.7873 63.9006 53.5492 63.98 53.3269C64.0748 53.0716 64.092 52.8353 64.0281 52.6284C63.98 52.4851 63.9161 52.3576 63.8367 52.2474C63.7419 52.1368 63.6299 52.0247 63.5038 51.9453C63.3763 51.866 63.233 51.8179 63.0742 51.7866C62.9327 51.7553 62.7894 51.7553 62.6465 51.7866C62.4238 51.8347 62.2016 51.9608 62.0115 52.1835C61.8373 52.3903 61.694 52.6597 61.6146 53.0407L61.5507 53.3115L61.44 53.7723L61.3126 53.3274L61.2332 53.0566C61.1851 52.9151 61.1212 52.7876 61.0264 52.677C60.9316 52.5649 60.8195 52.4855 60.7089 52.4375C60.6467 52.4062 60.5982 52.3908 60.5347 52.3908C60.4707 52.3753 60.4227 52.3753 60.3605 52.3908C60.2966 52.3908 60.2485 52.4062 60.1845 52.4375C60.1378 52.4547 60.0739 52.4855 60.043 52.5341C59.9482 52.6135 59.8516 52.7395 59.8049 52.9151C59.7409 53.0738 59.7083 53.2634 59.7083 53.5016C59.7083 54.0259 59.6929 54.4228 59.6616 54.7883C59.6289 55.1213 59.5976 55.4388 59.5808 55.7717M58.4387 59.598C59.8516 57.4866 60.9796 55.7563 62.1231 54.0105C60.7882 56.6929 59.7718 58.5339 58.4387 59.598Z" fill="#C5A266"/>
<path d="M52.9146 61.1855C53.2321 60.6612 53.5337 60.1382 53.9619 59.2964C54.2173 58.7875 54.5502 58.5339 54.8677 58.4391C55.0419 58.391 55.216 58.4078 55.3766 58.4545C55.5335 58.5026 55.6769 58.6133 55.7875 58.7407C55.9635 58.9308 56.0737 59.217 56.0737 59.5186C56.6307 58.9476 57.2004 58.8042 57.678 58.9303C58.0422 59.0251 58.3439 59.2651 58.5339 59.5653C58.7253 59.8688 58.8201 60.2484 58.7566 60.5986C58.6772 61.0748 58.3289 61.518 57.6145 61.7579C57.8213 61.884 57.9629 62.0115 58.0581 62.153C58.1701 62.329 58.1856 62.5185 58.1388 62.6927C58.0908 62.8687 57.9801 63.0429 57.8213 63.2016C57.5193 63.4878 57.0575 63.7414 56.5346 63.8366C56.1862 63.9006 55.8996 63.9473 55.5979 63.9473C55.3598 63.9645 55.1217 63.9473 54.8527 63.9319C54.9942 64.0752 55.0736 64.234 55.1217 64.3768C55.1856 64.5823 55.153 64.7737 55.0736 64.9479C54.9942 65.122 54.8527 65.2826 54.6613 65.4082C54.3751 65.5997 53.9628 65.7103 53.4866 65.7103C52.9795 65.6949 52.3912 65.5997 51.7562 65.4881C50.6921 65.298 49.5169 65.0758 48.3421 65.2654L48.1521 65.298L48.2628 65.1547C48.3421 65.0599 48.3748 64.996 48.4215 64.9479C48.9304 64.282 49.6444 63.3454 50.2154 62.0119C50.5175 61.3134 51.1053 60.7424 51.6609 60.487C51.8664 60.3922 52.0732 60.3437 52.2474 60.3437C52.4388 60.3437 52.5976 60.423 52.725 60.5659C52.8185 60.7247 52.8838 60.9315 52.9151 61.185" fill="#231F20"/>
<path d="M50.5647 67.282C50.4699 67.282 50.3578 67.282 50.2644 67.2666C50.1678 67.2511 50.073 67.2185 49.9782 67.1718C49.961 67.1563 49.9301 67.1391 49.9129 67.1391C49.8975 67.1237 49.8662 67.1078 49.8507 67.0924C49.7714 67.0284 49.7074 66.9817 49.6607 66.9164C49.5967 66.8524 49.5487 66.7903 49.516 66.7263C49.4693 66.647 49.438 66.583 49.4226 66.5036C49.4053 66.4243 49.3899 66.3295 49.3899 66.2347C49.3899 66.1553 49.4053 66.0587 49.438 65.9639C49.4693 65.8691 49.516 65.7897 49.5813 65.7103C49.6435 65.631 49.7074 65.5516 49.7868 65.4876C49.8662 65.4237 49.9455 65.3602 50.0249 65.3289C50.0889 65.2976 50.1524 65.2822 50.1991 65.2649C50.2644 65.2495 50.3265 65.2336 50.3905 65.2336C50.532 65.2182 50.7388 65.2182 50.9461 65.2336C51.1516 65.2491 51.3757 65.2649 51.5172 65.2976C51.5485 65.2976 51.5811 65.313 51.612 65.313C51.6446 65.313 51.6759 65.3284 51.7086 65.3284C51.7553 65.3439 51.8034 65.3439 51.8519 65.3597C51.8986 65.377 51.9467 65.377 51.9934 65.3924C52.1055 65.4078 52.2002 65.4405 52.2955 65.4872C52.3903 65.5353 52.4697 65.6146 52.5336 65.694C52.5976 65.7734 52.6443 65.8682 52.677 65.9789C52.7083 66.0737 52.7083 66.1857 52.7083 66.2977C52.7083 66.3753 52.677 66.4565 52.6443 66.5359C52.613 66.6139 52.5663 66.6792 52.5182 66.7427C52.4701 66.8048 52.4075 66.8688 52.3268 66.9155C52.2488 66.9636 52.1835 67.0121 52.1059 67.0275C52.042 67.0429 51.9785 67.0588 51.9299 67.0915C51.8678 67.1069 51.8038 67.1228 51.7558 67.1382C51.6918 67.1554 51.6451 67.1554 51.5816 67.1709C51.5176 67.1863 51.4541 67.1863 51.4074 67.1863C51.2954 67.2017 51.1847 67.2176 51.0745 67.233C50.8831 67.2502 50.7398 67.2656 50.5656 67.2811" fill="#231F20"/>
<path d="M51.2151 65.7103C51.1838 65.4876 51.2791 65.4083 51.4859 65.4568C51.6292 65.4881 51.8188 65.5362 51.9776 65.5675C52.3259 65.6155 52.5486 65.933 52.5173 66.2832C52.4847 66.5835 52.2638 66.7749 52.0411 66.8543C51.8184 66.9336 51.5807 66.9817 51.358 66.9958C51.2147 67.013 51.1045 66.9958 51.168 66.7903C51.2473 66.4882 51.2628 66.1712 51.2147 65.7103M50.8663 66.9491C50.6436 67.1078 50.1833 67.1078 49.9606 66.9336C49.6916 66.7268 49.5483 66.5368 49.5637 66.2179C49.5637 65.9331 49.8018 65.6314 50.0726 65.5035C50.2935 65.3928 50.5797 65.4087 50.7543 65.4087C51.2147 65.4087 51.1684 66.7436 50.8663 66.9491Z" fill="#C5A266"/>
<path d="M53.0888 61.4232L53.0094 61.5665L52.8506 61.8373L52.5799 62.2981L52.6125 61.7738L52.6279 61.4563C52.6434 61.2803 52.6279 61.1542 52.6125 61.044C52.5799 60.932 52.5486 60.8526 52.5018 60.7886C52.4692 60.7573 52.4211 60.7247 52.3898 60.7093C52.3431 60.6938 52.2791 60.678 52.2311 60.678C52.1671 60.678 52.0877 60.678 52.0084 60.6934C51.929 60.7088 51.851 60.7415 51.7548 60.7882C51.5013 60.9002 51.2305 61.1057 50.9924 61.3438C50.7697 61.5819 50.5801 61.8527 50.454 62.1702C50.1678 62.8533 49.833 63.4243 49.5155 63.916C49.2466 64.3301 48.9912 64.6785 48.7544 64.9806C49.2307 64.9479 49.7065 64.9633 50.1814 65.0118C50.7384 65.0758 51.2786 65.172 51.7857 65.2654C52.1045 65.3293 52.3894 65.3774 52.6756 65.4241C52.9604 65.4722 53.2153 65.4881 53.4693 65.5049C53.6761 65.5049 53.8662 65.4876 54.0404 65.4409C54.2163 65.3928 54.3733 65.3289 54.5007 65.2495C54.5801 65.2028 54.6441 65.1388 54.6921 65.0753C54.7389 65.0114 54.7869 64.9479 54.8182 64.8853C54.8509 64.8213 54.8663 64.7578 54.8663 64.6939C54.8663 64.6299 54.8663 64.5678 54.8509 64.5043C54.8337 64.4249 54.7869 64.3456 54.7389 64.2662C54.6749 64.1868 54.6128 64.1074 54.5162 64.0435L54.3261 63.8847L54.0073 63.6312L54.4214 63.6625L54.6595 63.6779C54.8337 63.6933 54.9924 63.7105 55.1357 63.7105H55.5653C55.7068 63.7105 55.8501 63.6933 55.993 63.6779C56.1363 63.6625 56.2951 63.6312 56.4534 63.5985C56.6761 63.5518 56.8983 63.4724 57.1038 63.3758C57.3106 63.281 57.4694 63.1531 57.6127 63.0275C57.6766 62.9635 57.7234 62.9 57.7714 62.8361C57.8195 62.7721 57.8354 62.71 57.8508 62.6465C57.8662 62.5825 57.8662 62.5358 57.8662 62.4723C57.8662 62.4242 57.8349 62.3603 57.8023 62.3135C57.771 62.2496 57.7075 62.1861 57.6281 62.124C57.5487 62.0586 57.4539 61.9947 57.3278 61.948L57.1364 61.8686L56.8189 61.7253L57.1519 61.6305L57.3419 61.5824C57.6921 61.4876 57.9456 61.3443 58.1216 61.1855C58.3271 61.0113 58.4219 60.7886 58.4699 60.5832C58.5026 60.4398 58.4854 60.297 58.4545 60.1536C58.4219 60.0103 58.3597 59.8688 58.2785 59.7413C58.1992 59.6139 58.0885 59.5032 57.9783 59.4084C57.8662 59.329 57.7388 59.2651 57.5973 59.217C57.3746 59.1531 57.121 59.1703 56.8502 59.2964C56.6121 59.4084 56.3586 59.5985 56.1204 59.8829L55.9445 60.0897L55.6442 60.4553L55.7236 59.9949L55.7703 59.7259C55.8016 59.5672 55.7875 59.4238 55.7549 59.2964C55.7236 59.1531 55.6601 59.0428 55.5648 58.948C55.5167 58.9 55.47 58.8514 55.4215 58.8206C55.3748 58.7893 55.3267 58.7566 55.2627 58.7412C55.2147 58.7258 55.1521 58.7086 55.0886 58.7086C55.0251 58.7086 54.9765 58.7086 54.9126 58.7258C54.7865 58.7571 54.659 58.8365 54.5316 58.9485C54.4055 59.0592 54.2935 59.2175 54.1832 59.4402C53.9451 59.9005 53.7555 60.2648 53.5809 60.5668C53.4208 60.8689 53.2462 61.1379 53.0879 61.4241M50.3728 64.3619C52.5635 63.0923 54.342 62.0278 56.1363 60.9651C53.7555 62.7903 52.041 64.0131 50.3728 64.3619Z" fill="#C5A266"/>
<path d="M45.0084 60.2335C45.1826 60.2489 45.3259 60.2648 45.5001 60.2974C45.6588 60.3441 45.8484 60.4081 46.1192 60.5355C46.3419 60.6303 46.6263 60.5995 46.913 60.5836C46.9923 60.5836 47.0717 60.5664 47.1665 60.5664H47.7856C48.1666 60.5836 48.5168 60.8045 48.8171 61.0753C49.2312 61.4567 49.5641 61.9793 49.7383 62.3294C49.7709 62.3761 49.8022 62.4555 49.8657 62.5675C50.1986 63.2025 50.9439 64.6308 51.2146 65.7108C51.3407 66.187 51.3734 66.5839 51.2786 66.8701C51.1679 67.1876 50.9284 67.3618 50.4694 67.3464C50.0399 67.331 49.8657 67.4258 49.6916 67.5205C49.4688 67.6326 49.2466 67.7587 48.691 67.7587C48.4528 67.7587 48.31 67.7432 48.1821 67.7274C48.0406 67.712 47.9594 67.6947 47.7852 67.7428C47.7539 67.7582 47.7058 67.7582 47.6745 67.7755C47.5625 67.8068 47.4677 67.8376 47.3262 67.8376C47.04 67.8222 46.8966 67.7115 46.8331 67.394C46.8177 67.3133 46.8177 67.2992 46.8018 67.2026C46.7692 66.9336 46.595 67.0125 46.4998 67.0284C46.3084 67.0765 46.2616 67.0765 46.1342 67.0597C45.9909 67.0443 45.8652 67.013 45.7065 66.949C45.6738 66.9336 45.6425 66.9336 45.6099 66.9164C45.4838 66.8851 45.4992 66.7749 45.3563 66.7749H45.1976C45.1336 66.8388 45.0715 66.8543 44.9921 66.8697H44.9594C44.8801 66.8697 44.8007 66.8384 44.754 66.7749H44.5939C44.4523 66.7749 44.4678 66.8855 44.3403 66.9164C44.309 66.9336 44.2782 66.9336 44.2455 66.949C44.1022 67.013 43.9593 67.0438 43.816 67.0597C43.7053 67.0597 43.6418 67.0597 43.4518 67.0284C43.357 67.013 43.181 66.9336 43.1497 67.2026C43.1343 67.2992 43.1343 67.33 43.1184 67.394C43.0544 67.7115 42.8957 67.8376 42.6254 67.8376C42.4838 67.8376 42.3872 67.8063 42.277 67.7755C42.2289 67.7582 42.1976 67.7428 42.165 67.7428C41.9908 67.6947 41.896 67.7115 41.7681 67.7274C41.6574 67.7428 41.5146 67.7587 41.261 67.7587C40.7054 67.7587 40.4831 67.6326 40.2604 67.5205C40.0863 67.4258 39.9121 67.3305 39.4826 67.3464C39.0376 67.3618 38.7841 67.1876 38.6734 66.8701C38.5768 66.5839 38.6253 66.2025 38.7355 65.7108C39.0063 64.6308 39.7533 63.2025 40.0863 62.5675C40.133 62.4709 40.1811 62.3934 40.2123 62.3294C40.3883 61.9793 40.7213 61.4567 41.1336 61.0753C41.4356 60.7891 41.8012 60.5836 42.165 60.5664H42.7841C42.8807 60.5664 42.9583 60.5836 43.0395 60.5836C43.3084 60.599 43.6105 60.6303 43.8332 60.5355C44.1181 60.4235 44.2922 60.3441 44.4523 60.2974C44.6732 60.2493 44.8166 60.2335 45.008 60.2335" fill="#231F20"/>
<path d="M45.2629 66.3458C45.3096 66.251 45.3423 66.1557 45.389 66.0437L45.4217 65.9643C45.4371 65.933 45.453 65.885 45.4838 65.8369C45.5632 65.6936 45.6752 65.4885 45.7065 65.2985C45.7065 65.2658 45.7219 65.2345 45.7378 65.2178C45.755 65.2023 45.755 65.171 45.7705 65.1556C45.7859 65.1384 45.8031 65.123 45.8185 65.1075C45.834 65.0921 45.8498 65.0921 45.8807 65.0921H45.9446C45.9601 65.0921 45.9927 65.1075 46.0086 65.1234C46.0399 65.1388 46.0725 65.1561 46.088 65.1874C46.1206 65.2187 46.1519 65.2513 46.1673 65.284C46.2154 65.3461 46.264 65.4101 46.3107 65.4414C46.3587 65.4894 46.4213 65.5207 46.4694 65.538C46.4848 65.538 46.5175 65.5534 46.5334 65.5534C46.5647 65.5534 46.5801 65.5534 46.5955 65.538C46.6127 65.538 46.6436 65.5207 46.6608 65.4899C46.6762 65.4745 46.6921 65.4572 46.6921 65.4418C46.7075 65.3951 46.7234 65.3311 46.7234 65.2518C46.7234 65.1878 46.708 65.093 46.6921 64.9982C46.6767 64.9343 46.6767 64.8862 46.6608 64.8395C46.6436 64.7914 46.6282 64.7447 46.6127 64.6961C46.5955 64.6481 46.5801 64.6168 46.5488 64.5687C46.5334 64.5374 46.5021 64.4893 46.4694 64.458C46.454 64.4426 46.4368 64.4267 46.4213 64.4099C46.4059 64.3945 46.39 64.3786 46.3592 64.3632C46.342 64.346 46.3111 64.3306 46.2798 64.3306C46.2472 64.3152 46.2317 64.3151 46.1991 64.2993C46.1678 64.2839 46.1524 64.2839 46.1369 64.2666C46.1369 64.2512 46.1524 64.2512 46.1837 64.2353C46.1991 64.2353 46.2163 64.2199 46.2163 64.2027C46.2317 64.1872 46.2476 64.1714 46.2644 64.1714C46.2957 64.1401 46.3265 64.1074 46.3424 64.0593C46.3597 64.028 46.3905 63.9818 46.3905 63.9332C46.4059 63.8852 46.4059 63.8384 46.4059 63.7899C46.4059 63.7414 46.3905 63.6951 46.3905 63.6638C46.3751 63.6157 46.3592 63.5831 46.3424 63.5518C46.327 63.5205 46.3111 63.4878 46.2803 63.4724C46.2476 63.457 46.2322 63.4411 46.1837 63.4243C46.1524 63.4089 46.1215 63.4089 46.073 63.393C46.0403 63.393 46.0249 63.3776 46.0249 63.3776V63.3137C46.0249 63.2982 46.0403 63.2656 46.0403 63.2343C46.0576 63.1862 46.073 63.1395 46.073 63.091C46.0884 63.0288 46.0884 62.9635 46.073 62.9014C46.0576 62.8533 46.0576 62.8048 46.0249 62.758C46.0095 62.71 45.9782 62.6787 45.961 62.646C45.9297 62.6147 45.9142 62.5993 45.8662 62.5993C45.8349 62.5839 45.804 62.5839 45.7714 62.5993C45.692 62.6147 45.628 62.6147 45.5954 62.5993C45.5641 62.5839 45.5487 62.5512 45.5332 62.5199C45.5178 62.4886 45.5178 62.4405 45.5178 62.3766C45.5178 62.3126 45.5332 62.2505 45.5332 62.1852C45.5487 62.0904 45.5332 61.9956 45.5006 61.9003C45.4693 61.7897 45.4226 61.6935 45.3745 61.5828C45.3105 61.488 45.247 61.3928 45.1831 61.312C45.1051 61.234 45.0398 61.186 44.9622 61.1533L44.9295 61.1379L44.8982 61.1533C44.8343 61.186 44.7549 61.234 44.6755 61.312C44.6134 61.3928 44.5322 61.4722 44.4855 61.5828C44.4215 61.6776 44.3735 61.7897 44.358 61.9003C44.3267 61.9951 44.3267 62.0904 44.3267 62.1852C44.3422 62.2505 44.3422 62.3299 44.3422 62.3766C44.3422 62.4233 44.3422 62.4714 44.3267 62.5199C44.3095 62.568 44.2941 62.5839 44.2628 62.5993C44.2315 62.6147 44.1662 62.6147 44.0868 62.5993H43.992C43.9607 62.6147 43.9299 62.6306 43.8972 62.646C43.8659 62.6787 43.8491 62.71 43.8333 62.758C43.8178 62.8048 43.802 62.8528 43.7852 62.9014C43.7711 62.9635 43.7711 63.0288 43.7852 63.091C43.8024 63.139 43.8024 63.1858 43.8178 63.2343C43.8333 63.2656 43.8333 63.2824 43.8333 63.3137V63.3776C43.8333 63.3776 43.8178 63.393 43.7852 63.393C43.7385 63.393 43.7072 63.4085 43.6745 63.4243C43.6432 63.4416 43.6106 63.457 43.5797 63.4724C43.5471 63.4878 43.5316 63.5205 43.5176 63.5518C43.5003 63.5831 43.4849 63.6157 43.4695 63.6638C43.4523 63.7105 43.4523 63.7586 43.4523 63.7899C43.4523 63.838 43.4523 63.8847 43.4695 63.9332C43.4849 63.9813 43.5008 64.028 43.5176 64.0593C43.5471 64.1074 43.5797 64.1401 43.5956 64.1714C43.611 64.1868 43.6282 64.2027 43.6437 64.2027C43.6591 64.2199 43.675 64.2199 43.675 64.2353C43.6922 64.2507 43.7076 64.2666 43.723 64.2666C43.723 64.2839 43.6917 64.2839 43.6591 64.2993C43.6278 64.3147 43.5951 64.3147 43.5797 64.3306C43.5471 64.346 43.5316 64.346 43.5003 64.3632C43.4849 64.3786 43.4523 64.3945 43.4364 64.4099C43.421 64.4272 43.4051 64.4426 43.3897 64.458C43.357 64.4893 43.3257 64.522 43.3089 64.5687C43.2935 64.6014 43.2622 64.6481 43.245 64.6961C43.2309 64.7442 43.2137 64.7909 43.1983 64.8395C43.1828 64.8862 43.1828 64.9343 43.167 64.9982C43.1497 65.093 43.1357 65.1883 43.1357 65.2518C43.1357 65.3311 43.1497 65.3951 43.167 65.4418C43.1824 65.4572 43.1824 65.4899 43.1983 65.4899C43.2137 65.5053 43.2309 65.5212 43.2622 65.538C43.2776 65.538 43.3089 65.5534 43.3262 65.5534C43.3416 65.5534 43.3742 65.5534 43.3901 65.538C43.4368 65.5207 43.5008 65.4899 43.5471 65.4414C43.5951 65.3947 43.6437 65.3466 43.6917 65.284C43.723 65.2513 43.7539 65.2187 43.7711 65.1874C43.8024 65.1561 43.8333 65.1393 43.8491 65.1234C43.8818 65.108 43.8972 65.108 43.9144 65.0921H43.9766C43.992 65.0921 44.0233 65.1075 44.0405 65.1075C44.056 65.123 44.0718 65.1388 44.0873 65.1556C44.1045 65.171 44.1199 65.1869 44.1199 65.2178C44.1353 65.235 44.1353 65.2658 44.1526 65.2985C44.1666 65.3933 44.2147 65.4885 44.246 65.5833C44.2941 65.6781 44.3267 65.7593 44.3735 65.8369C44.4061 65.9008 44.4215 65.9489 44.4374 65.9802L44.4701 66.0596C44.5168 66.1716 44.5494 66.2818 44.5962 66.3771C44.6442 66.4719 44.691 66.5685 44.7395 66.5998C44.7549 66.6152 44.7708 66.6324 44.7862 66.6324H44.8502C44.8674 66.6324 44.8982 66.6324 44.9141 66.6152C44.9295 66.5998 44.9454 66.5998 44.9622 66.5839C45.1831 66.52 45.2157 66.4406 45.2643 66.3458M44.2637 65.7421C44.2637 65.7108 44.2791 65.6627 44.2637 65.6314C44.2637 65.5988 44.2637 65.5675 44.2465 65.5366C44.2324 65.504 44.2152 65.4727 44.1997 65.44C44.1895 65.4297 44.1786 65.4193 44.1671 65.4087C44.153 65.4087 44.153 65.3933 44.1358 65.3933C44.1204 65.3779 44.0877 65.3779 44.0718 65.3606H44.0079C43.9766 65.3606 43.9612 65.3779 43.9299 65.3779C43.9144 65.3933 43.8818 65.4092 43.8659 65.4246C43.8487 65.44 43.8333 65.4559 43.8178 65.4727C43.8024 65.4881 43.7852 65.504 43.7711 65.5366C43.7385 65.5833 43.6917 65.6473 43.6437 65.7108C43.5797 65.7747 43.5176 65.8369 43.4695 65.885C43.4214 65.933 43.3575 65.9798 43.3262 66.0283C43.3089 66.0437 43.2935 66.0596 43.2935 66.075C43.2781 66.0904 43.2781 66.1077 43.2622 66.139C43.245 66.1716 43.2309 66.2183 43.2309 66.2664V66.3925C43.2309 66.4406 43.245 66.4891 43.2622 66.5372C43.2776 66.5839 43.3089 66.6152 43.3416 66.6479C43.357 66.6633 43.3742 66.6792 43.3897 66.6792L43.469 66.7118C43.5471 66.7431 43.6106 66.7585 43.6745 66.774C43.7385 66.7912 43.802 66.7912 43.8659 66.7912C43.9299 66.7912 43.992 66.774 44.056 66.7585C44.1199 66.7431 44.1834 66.7272 44.246 66.6946C44.2632 66.6946 44.2787 66.6792 44.2941 66.6792C44.3095 66.6792 44.3267 66.6637 44.3422 66.6637C44.3889 66.6483 44.4215 66.6324 44.4696 66.6157C44.5009 66.5844 44.549 66.5517 44.5803 66.505C44.5957 66.4896 44.6129 66.4569 44.6129 66.4256C44.6129 66.3943 44.6284 66.3775 44.6284 66.3462V66.2823C44.6284 66.2669 44.6129 66.2342 44.6129 66.2183C44.6129 66.2025 44.5957 66.187 44.5957 66.1716C44.5803 66.1562 44.5644 66.139 44.549 66.1235C44.549 66.1235 44.5318 66.1081 44.5163 66.1081H44.485C44.4057 66.1081 44.3576 66.0909 44.3091 66.0755C44.2778 66.06 44.2623 66.0442 44.2451 66.0287C44.231 66.0133 44.231 65.9807 44.231 65.9494C44.231 65.9181 44.2451 65.87 44.2451 65.8219C44.2451 65.8219 44.2451 65.7906 44.2623 65.7425M45.7546 65.7425C45.7546 65.7752 45.77 65.8219 45.77 65.8546C45.7854 65.9013 45.7854 65.9339 45.7854 65.9807C45.7854 66.0133 45.7854 66.0287 45.77 66.06C45.7546 66.0755 45.7374 66.0913 45.7061 66.1081C45.6748 66.1235 45.6113 66.1394 45.5319 66.1394H45.4992C45.4889 66.1394 45.4785 66.1452 45.4679 66.1566C45.4525 66.1721 45.4366 66.1721 45.4212 66.2034C45.404 66.2188 45.404 66.2347 45.404 66.2514C45.404 66.2669 45.3886 66.2982 45.3886 66.3136V66.3775C45.3886 66.4102 45.3886 66.4256 45.404 66.4569C45.404 66.4896 45.4212 66.505 45.4366 66.5376C45.4679 66.5998 45.4988 66.6324 45.5473 66.6483C45.58 66.6796 45.6267 66.6796 45.6748 66.695C45.685 66.695 45.7006 66.7002 45.7215 66.7105C45.7369 66.7105 45.7541 66.7277 45.7696 66.7277C45.8335 66.759 45.897 66.7744 45.9596 66.7916C46.0236 66.8071 46.0871 66.8229 46.151 66.8229C46.215 66.8229 46.2785 66.8229 46.3411 66.8075C46.405 66.7921 46.4685 66.7749 46.5479 66.7436L46.6273 66.7109C46.6427 66.6955 46.6599 66.6955 46.6753 66.6796C46.7066 66.6483 46.7375 66.6157 46.7547 66.5689C46.7701 66.5209 46.786 66.4723 46.786 66.4256V66.2982C46.786 66.2514 46.7706 66.2034 46.7547 66.1721C46.7375 66.1567 46.7375 66.124 46.7221 66.1081C46.7066 66.0909 46.6908 66.0755 46.6908 66.06C46.6427 66.0133 46.5941 65.9652 46.5474 65.9167C46.4835 65.8546 46.42 65.7906 46.3733 65.7425C46.3252 65.6786 46.2785 65.6319 46.2458 65.5684C46.2304 65.5529 46.2145 65.5203 46.1977 65.5044C46.1823 65.489 46.1664 65.4731 46.151 65.4563C46.1356 65.4409 46.1043 65.425 46.0871 65.4096C46.0558 65.3942 46.039 65.3942 46.0077 65.3942H45.9437C45.9283 65.3942 45.897 65.4096 45.8798 65.4255C45.8644 65.4255 45.8644 65.4409 45.8485 65.4409C45.8382 65.4512 45.8278 65.4621 45.8172 65.4736C45.8018 65.5049 45.7845 65.5375 45.7691 65.5684C45.7537 65.5997 45.7537 65.6323 45.7537 65.6632C45.7364 65.6786 45.7537 65.7112 45.7537 65.7425" fill="#C5A266"/>
<path d="M44.9608 60.5188C44.6587 60.7256 44.0877 61.5039 43.6427 62.6941C43.3252 63.5033 43.0717 64.5038 42.9751 65.6319V65.6473C42.9597 65.7888 42.9438 65.9648 42.9597 66.1544C42.9751 66.7427 42.9751 67.1082 42.9284 67.3291C42.8971 67.5051 42.8163 67.5845 42.673 67.5845C42.5782 67.5845 42.4988 67.5673 42.404 67.5346C42.3727 67.5205 42.3247 67.5051 42.2766 67.5051C42.0557 67.4398 41.9437 67.457 41.7849 67.4879C41.6742 67.5051 41.5314 67.5205 41.3087 67.5205C40.8156 67.5205 40.6102 67.4085 40.4355 67.3137C40.2287 67.203 40.0232 67.091 39.5297 67.1082C39.2122 67.1223 39.0381 67.0116 38.9741 66.7894C38.8947 66.5513 38.9428 66.2029 39.0549 65.7747C39.3238 64.7261 40.0536 63.3132 40.3884 62.6782C40.4351 62.5834 40.4832 62.504 40.5144 62.4401C40.6886 62.1072 40.9907 61.6137 41.3876 61.2653C41.6584 61.01 41.96 60.8358 42.2761 60.8204H42.8971C42.9751 60.8204 43.054 60.8358 43.1506 60.8358C43.4509 60.8512 43.7856 60.8839 44.0546 60.7718C44.3254 60.6612 44.4995 60.5977 44.6429 60.551C44.7844 60.5183 44.9118 60.5029 45.0706 60.487C45.2293 60.487 45.3568 60.5024 45.4983 60.551C45.6584 60.5977 45.833 60.6616 46.0866 60.7718C46.3574 60.8839 46.6903 60.8685 46.9924 60.8358C47.0872 60.8358 47.1665 60.8204 47.2459 60.8204H47.865C48.1825 60.8358 48.4842 61.0258 48.7549 61.2653C49.1518 61.6137 49.4521 62.1072 49.6263 62.4401C49.6589 62.504 49.6916 62.5834 49.7537 62.6782C50.0866 63.2973 50.8178 64.7102 51.0886 65.7747C51.1992 66.2025 51.2301 66.5513 51.1666 66.7894C51.1044 66.9962 50.9285 67.1082 50.611 67.1082C50.1193 67.091 49.9125 67.203 49.707 67.3137C49.5156 67.4244 49.3242 67.5205 48.8325 67.5205C48.6116 67.5205 48.4683 67.5051 48.3581 67.4879C48.1993 67.4725 48.0873 67.4566 47.865 67.5051C47.817 67.5205 47.7702 67.5346 47.7376 67.5346C47.6582 67.5673 47.5788 67.5845 47.4686 67.5845C47.3253 67.5845 47.2459 67.5051 47.2151 67.3291C47.167 67.1082 47.167 66.7427 47.1824 66.1544C47.1824 65.9643 47.167 65.7747 47.167 65.6473V65.6319C47.0722 64.5038 46.8186 63.5033 46.5011 62.6941C46.039 61.5193 45.4697 60.7256 45.1831 60.5188L45.135 60.4875L44.9608 60.5188Z" fill="#C5A266"/>
<path d="M40.9594 38.8966L41.7218 45.2466C40.7852 44.9604 39.9121 45.8657 39.9447 46.6114C39.976 47.4532 40.4677 48.105 41.8479 48.2483C42.8812 46.4853 43.9144 44.2306 44.0559 41.8811C44.2627 38.6584 43.8178 35.1809 43.9611 32.1964C44.0078 31.3078 44.5167 30.5767 44.9925 30.0211C45.4688 30.5767 45.9777 31.3078 46.024 32.1964C46.1673 35.1809 45.7219 38.6584 45.9292 41.8811C46.0725 44.2306 47.1039 46.4853 48.1358 48.2483C49.516 48.105 50.009 47.4532 50.0403 46.6114C50.073 45.8661 49.2003 44.9776 48.2632 45.2466L49.0257 38.8966C49.3414 36.225 51.2305 33.4927 53.5818 32.215V53.1682H48.7708C48.3739 55.1054 47.406 56.8358 45.6275 58.1534C45.31 58.3915 45.1359 58.6777 44.9771 58.9798C44.8184 58.6777 44.6424 58.3915 44.3253 58.1534C42.5641 56.8512 41.579 55.1054 41.1821 53.1682H36.3724V32.1964C38.7532 33.4659 40.6419 36.2141 40.9594 38.8966ZM52.217 35.1655C51.0736 36.435 50.5819 37.8964 50.4059 39.4368L49.8662 44.041C50.5973 44.3893 51.1049 45.0089 51.3911 45.8974H52.2175V35.1659L52.217 35.1655ZM48.9463 51.7245H52.217V47.3584H51.3906C50.9611 48.6919 50.0399 49.4217 48.6597 49.5977C48.8497 50.3121 48.9459 51.0106 48.9459 51.7245M47.2314 49.9306C46.3102 50.1048 45.7858 50.7085 45.6752 51.7245H47.4849C47.5003 51.1362 47.421 50.5343 47.2314 49.9306ZM45.6597 56.2493C46.4363 55.4229 47.0245 54.4228 47.3107 53.1686H45.6597V56.2493ZM45.008 49.7392C45.3427 49.1836 45.8979 48.8039 46.6744 48.5644C45.9446 47.279 45.4048 45.9455 45.008 44.5639C44.6111 45.9455 44.0559 47.2949 43.3415 48.5644C44.104 48.8039 44.675 49.1836 45.008 49.7392ZM44.3403 56.2493V53.1686H42.6893C42.9914 54.4228 43.5638 55.4234 44.3403 56.2493ZM44.3249 51.7245C44.2142 50.7085 43.6899 50.1048 42.7705 49.9306C42.5945 50.5343 42.5151 51.1366 42.5151 51.7245H44.3249ZM37.8007 51.7245H41.0714C41.0714 51.0101 41.1662 50.3116 41.3563 49.5977C39.976 49.4217 39.0548 48.6919 38.6253 47.3584H37.8007V51.7245ZM37.8007 45.8974H38.6253C38.9115 45.0089 39.4204 44.3898 40.1502 44.041L39.6105 39.4368C39.4363 37.8964 38.9446 36.435 37.8007 35.1655V45.897V45.8974ZM53.6127 32.1968C53.6018 32.2032 53.5923 32.2091 53.5814 32.2154V32.1968H53.6127Z" fill="#C5A266"/>
</g>
<defs>
<clipPath id="clip0_110_27">
<rect width="90" height="90" fill="white" transform="matrix(-1 0 0 1 90 0)"/>
</clipPath>
</defs>
</svg>
