<svg width="26" height="20" viewBox="0 0 26 20" fill="none" xmlns="http://www.w3.org/2000/svg">
<path d="M15.55 0.522646L25.2998 9.60133C25.3502 9.64817 25.3901 9.7038 25.4174 9.76503C25.4446 9.82626 25.4587 9.89189 25.4587 9.95817C25.4587 10.0245 25.4446 10.0901 25.4174 10.1513C25.3901 10.2125 25.3502 10.2682 25.2998 10.315L15.55 19.3937C15.4483 19.4883 15.3105 19.5415 15.1667 19.5415C15.023 19.5415 14.8852 19.4883 14.7835 19.3937C14.6819 19.2991 14.6248 19.1707 14.6248 19.0369C14.6248 18.903 14.6819 18.7747 14.7835 18.68L23.6085 10.4625L1.08365 10.4625C0.939993 10.4625 0.802221 10.4094 0.70064 10.3148C0.59906 10.2202 0.541992 10.0919 0.541992 9.95817C0.541992 9.8244 0.59906 9.69611 0.70064 9.60153C0.802221 9.50694 0.939993 9.4538 1.08365 9.4538L23.6085 9.4538L14.7835 1.23633C14.6819 1.14169 14.6248 1.01333 14.6248 0.87949C14.6248 0.745647 14.6819 0.617287 14.7835 0.522646C14.8852 0.428005 15.023 0.374838 15.1667 0.374838C15.3105 0.374838 15.4483 0.428005 15.55 0.522646Z" fill="white"/>
</svg>
