<svg width="26" height="20" viewBox="0 0 26 20" fill="none" xmlns="http://www.w3.org/2000/svg">
<path d="M10.45 0.522646L0.700201 9.60133C0.649839 9.64817 0.609888 9.7038 0.58263 9.76503C0.555372 9.82626 0.541342 9.89189 0.541342 9.95817C0.541342 10.0245 0.555372 10.0901 0.58263 10.1513C0.609888 10.2125 0.649839 10.2682 0.700201 10.315L10.45 19.3937C10.5517 19.4883 10.6895 19.5415 10.8333 19.5415C10.977 19.5415 11.1148 19.4883 11.2165 19.3937C11.3181 19.2991 11.3752 19.1707 11.3752 19.0369C11.3752 18.903 11.3181 18.7747 11.2165 18.68L2.39153 10.4625L24.9164 10.4625C25.06 10.4625 25.1978 10.4094 25.2994 10.3148C25.4009 10.2202 25.458 10.0919 25.458 9.95817C25.458 9.8244 25.4009 9.69611 25.2994 9.60153C25.1978 9.50694 25.06 9.4538 24.9164 9.4538L2.39153 9.4538L11.2165 1.23633C11.3181 1.14169 11.3752 1.01333 11.3752 0.87949C11.3752 0.745647 11.3181 0.617287 11.2165 0.522646C11.1148 0.428005 10.977 0.374838 10.8333 0.374838C10.6895 0.374838 10.5517 0.428005 10.45 0.522646Z" fill="#6D633B"/>
</svg>
