<svg width="65" height="65" viewBox="0 0 65 65" fill="none" xmlns="http://www.w3.org/2000/svg">
<g clip-path="url(#clip0_163_8336)">
<path d="M63.5679 30.4189L32.7893 17.0601C32.6983 17.0208 32.6001 17.0005 32.5008 17.0005C32.4015 17.0005 32.3032 17.0208 32.2122 17.0601L1.43359 30.4189C1.30523 30.4749 1.19606 30.5667 1.11941 30.6832C1.04277 30.7997 1.00195 30.9358 1.00195 31.0749C1.00195 31.214 1.04277 31.3502 1.11941 31.4666C1.19606 31.5831 1.30523 31.675 1.43359 31.731L8.69446 34.8827V41.6737C8.01445 41.8479 7.42182 42.2621 7.02765 42.8388C6.63349 43.4154 6.46484 44.1149 6.55334 44.8061C6.64183 45.4973 6.98139 46.1327 7.50836 46.5933C8.03532 47.0539 8.71353 47.308 9.41584 47.308C10.1181 47.308 10.7963 47.0539 11.3233 46.5933C11.8503 46.1327 12.1898 45.4973 12.2783 44.8061C12.3668 44.1149 12.1982 43.4154 11.804 42.8388C11.4099 42.2621 10.8172 41.8479 10.1372 41.6737V35.5115L15.4273 37.8016V48.2844C15.4272 48.4078 15.4592 48.5291 15.5203 48.6365C15.5814 48.744 15.6694 48.834 15.7759 48.8977C15.8823 48.9615 16.0036 48.9968 16.1279 49.0004C16.2522 49.0039 16.3753 48.9755 16.4853 48.918C21.4909 46.5459 26.9531 45.2721 32.4998 45.1832C38.0465 45.2721 43.5087 46.5459 48.5143 48.918C48.6243 48.9755 48.7474 49.0039 48.8717 49.0004C48.996 48.9968 49.1173 48.9615 49.2237 48.8977C49.3302 48.834 49.4183 48.744 49.4793 48.6365C49.5404 48.5291 49.5724 48.4078 49.5723 48.2844V37.8016L63.5679 31.7271C63.6963 31.6712 63.8055 31.5793 63.8821 31.4628C63.9588 31.3463 63.9996 31.2102 63.9996 31.0711C63.9996 30.932 63.9588 30.7959 63.8821 30.6794C63.8055 30.5629 63.6963 30.4711 63.5679 30.4151M10.8586 44.4342C10.8586 44.7173 10.774 44.994 10.6154 45.2294C10.4569 45.4648 10.2316 45.6482 9.96795 45.7565C9.70432 45.8649 9.41424 45.8932 9.13437 45.838C8.8545 45.7828 8.59743 45.6464 8.39566 45.4463C8.19389 45.2461 8.05648 44.9911 8.00081 44.7134C7.94514 44.4358 7.97371 44.148 8.08291 43.8865C8.19211 43.6249 8.37703 43.4014 8.61429 43.2441C8.85155 43.0868 9.13049 43.0029 9.41584 43.0029C9.79848 43.0029 10.1654 43.1537 10.436 43.4221C10.7066 43.6905 10.8586 44.0546 10.8586 44.4342ZM48.1296 47.1527C43.206 44.9798 37.8882 43.8237 32.4998 43.7548C27.1115 43.8237 21.7936 44.9798 16.87 47.1527V33.4619C21.7743 31.2132 27.0978 30.0051 32.4998 29.9151C37.9018 30.0051 43.2253 31.2132 48.1296 33.4619V47.1527ZM49.5723 36.2453V33.0163C49.5723 32.8859 49.5365 32.7581 49.4687 32.6464C49.4009 32.5348 49.3037 32.4436 49.1876 32.3827C43.9816 29.8817 38.2837 28.5505 32.4998 28.4838C26.7159 28.5505 21.018 29.8817 15.812 32.3827C15.6959 32.4436 15.5987 32.5348 15.5309 32.6464C15.4631 32.7581 15.4273 32.8859 15.4273 33.0163V36.2424L9.69765 33.7558L3.52077 31.0745L32.4998 18.4972L61.4788 31.0745L49.5723 36.2453Z" fill="#6D633B"/>
</g>
<defs>
<clipPath id="clip0_163_8336">
<rect width="63" height="32" fill="white" transform="translate(1 17)"/>
</clipPath>
</defs>
</svg>
