<svg width="25" height="25" viewBox="0 0 25 25" fill="none" xmlns="http://www.w3.org/2000/svg">
<path d="M11.9792 19.2708H13.0208V9.375H11.9792V19.2708ZM12.5 0C5.59635 0 0 5.59635 0 12.5C0 19.4036 5.59635 25 12.5 25C19.4036 25 25 19.4036 25 12.5C25 5.59635 19.4036 0 12.5 0ZM12.5 23.9583C6.18177 23.9583 1.04167 18.8182 1.04167 12.5C1.04167 6.18177 6.18177 1.04167 12.5 1.04167C18.8182 1.04167 23.9583 6.18177 23.9583 12.5C23.9583 18.8182 18.8182 23.9583 12.5 23.9583ZM12.5 5.20833C12.0536 5.20833 11.4583 5.83802 11.4583 6.25C11.4583 6.6625 12.0536 7.29167 12.5 7.29167C12.9464 7.29167 13.5417 6.69479 13.5417 6.25C13.5417 5.80521 12.9464 5.20833 12.5 5.20833Z" fill="#FF8000"/>
</svg>
