<svg width="65" height="65" viewBox="0 0 65 65" fill="none" xmlns="http://www.w3.org/2000/svg">
<path d="M57.375 13.1562H8.625C8.40951 13.1562 8.20285 13.232 8.05048 13.3668C7.8981 13.5016 7.8125 13.6844 7.8125 13.875V46.9375C7.8125 47.1281 7.8981 47.3109 8.05048 47.4457C8.20285 47.5805 8.40951 47.6562 8.625 47.6562H39.1206C39.2373 47.8114 39.3643 47.9633 39.5 48.1131V54.125C39.4999 54.2389 39.5304 54.3512 39.589 54.4527C39.6477 54.5541 39.7328 54.6417 39.8373 54.7083C39.9418 54.7749 40.0627 54.8185 40.19 54.8356C40.3174 54.8527 40.4475 54.8427 40.5696 54.8065L45.1875 53.4448L49.8054 54.8065C49.8882 54.8313 49.9751 54.8439 50.0625 54.8438C50.1692 54.8438 50.2749 54.8253 50.3736 54.7892C50.4722 54.7531 50.5618 54.7002 50.6373 54.6334C50.7127 54.5667 50.7726 54.4874 50.8134 54.4002C50.8542 54.3129 50.8751 54.2194 50.875 54.125V48.1134C51.0113 47.9629 51.1382 47.8111 51.2546 47.6562H57.375C57.5905 47.6562 57.7972 47.5805 57.9495 47.4457C58.1019 47.3109 58.1875 47.1281 58.1875 46.9375V13.875C58.1875 13.6844 58.1019 13.5016 57.9495 13.3668C57.7972 13.232 57.5905 13.1562 57.375 13.1562ZM39.4127 40.093C39.3299 40.187 39.252 40.2846 39.1752 40.3829C39.1419 40.4253 39.1068 40.4664 39.0747 40.5096C38.9898 40.6236 38.9109 40.7415 38.8341 40.8607C38.8143 40.8913 38.7926 40.9205 38.7734 40.9514C38.5831 41.2576 38.4212 41.5769 38.2894 41.9062H18.3076C18.137 41.0238 17.6611 40.21 16.9456 39.577C16.23 38.944 15.31 38.523 14.3125 38.3722V22.4403C15.31 22.2895 16.23 21.8685 16.9456 21.2355C17.6611 20.6025 18.137 19.7887 18.3076 18.9062H47.6924C47.863 19.7887 48.3388 20.6025 49.0544 21.2355C49.77 21.8685 50.69 22.2895 51.6875 22.4403V38.3722C51.0103 38.4724 50.365 38.699 49.7944 39.0369L49.7911 39.0347L49.7659 39.0182C49.5972 38.8984 49.4235 38.7862 49.2449 38.6815C49.1865 38.6471 49.1258 38.6168 49.0661 38.584C48.9354 38.5115 48.8039 38.4407 48.6687 38.376C48.5956 38.341 48.5213 38.3095 48.4472 38.2768C48.3212 38.2211 48.1943 38.1676 48.0653 38.1187C47.9853 38.0883 47.9047 38.0602 47.8235 38.0324C47.6955 37.9887 47.5663 37.9481 47.4358 37.9109C47.3523 37.887 47.2688 37.8636 47.1844 37.8424C47.0504 37.8089 46.9151 37.7803 46.7789 37.7535C46.6962 37.7372 46.6142 37.7197 46.5306 37.706C46.3812 37.6814 46.23 37.6635 46.0786 37.6472C46.0071 37.6395 45.9365 37.6288 45.8648 37.6229C45.6406 37.6046 45.415 37.5938 45.1875 37.5938C44.9853 37.5938 44.7848 37.6018 44.5863 37.6162C44.52 37.6209 44.4554 37.6305 44.3897 37.6367C44.2579 37.6495 44.126 37.662 43.9962 37.6809C43.9185 37.6921 43.8426 37.708 43.7657 37.7214C43.65 37.7417 43.5343 37.7614 43.4205 37.7861C43.3399 37.8038 43.2611 37.8255 43.1815 37.8455C43.0735 37.8727 42.9656 37.8998 42.8594 37.9313C42.7797 37.955 42.7016 37.9816 42.6231 38.0078C42.5201 38.042 42.4174 38.0764 42.3165 38.1145C42.239 38.1437 42.1631 38.1754 42.087 38.207C41.988 38.248 41.8896 38.2899 41.7929 38.3348C41.7191 38.369 41.6466 38.4049 41.5742 38.4414C41.4787 38.4894 41.3843 38.5388 41.2915 38.5904C41.2219 38.6292 41.1534 38.669 41.0854 38.7098C40.9934 38.7649 40.9029 38.8219 40.8141 38.8806C40.7497 38.9232 40.6858 38.9662 40.623 39.0105C40.5341 39.0734 40.4475 39.1384 40.362 39.2046C40.3037 39.2499 40.2456 39.295 40.1889 39.3419C40.1028 39.4131 40.0198 39.4872 39.9375 39.5621C39.8863 39.6089 39.8343 39.6551 39.7846 39.7033C39.7008 39.7844 39.6208 39.8686 39.5416 39.9538C39.4984 40.0006 39.4543 40.0457 39.4127 40.093ZM49.25 53.1276L45.4446 52.0063C45.2778 51.9567 45.0972 51.9567 44.9304 52.0063L41.125 53.1276V49.4412C41.1656 49.4651 41.2105 49.4814 41.2513 49.5046C41.471 49.629 41.698 49.7429 41.9314 49.8458C41.9898 49.8715 42.0457 49.9008 42.105 49.9248C42.3929 50.043 42.6892 50.1444 42.992 50.2284C43.0635 50.2484 43.1366 50.2627 43.2087 50.2808C43.4527 50.3414 43.7001 50.3908 43.9498 50.4288C44.0392 50.4424 44.1277 50.4565 44.2179 50.4671C44.8608 50.5522 45.5144 50.5522 46.1573 50.4671C46.2476 50.4564 46.3361 50.4423 46.4254 50.4288C46.6746 50.3908 46.9214 50.3415 47.1648 50.281C47.2379 50.2629 47.3111 50.2483 47.3834 50.2283C47.6857 50.1443 47.9815 50.0431 48.269 49.9251C48.3294 49.9003 48.3866 49.8704 48.4462 49.8441C48.6779 49.7419 48.9033 49.6288 49.1215 49.5053C49.163 49.4818 49.2088 49.4652 49.2498 49.4406L49.25 53.1276ZM50.1021 46.5837C49.9171 46.8715 49.6993 47.1417 49.4521 47.3902C48.9193 47.9263 48.2634 48.3557 47.5282 48.6498C46.793 48.944 45.9954 49.0963 45.1885 49.0964C44.3815 49.0965 43.5839 48.9446 42.8485 48.6506C42.1132 48.3566 41.4572 47.9274 40.9241 47.3916C40.0144 46.4684 39.5091 45.2872 39.5 44.0625C39.5009 43.6384 39.5606 43.2159 39.6778 42.8047C39.993 41.7242 40.7054 40.7672 41.7028 40.084C42.7002 39.4009 43.9261 39.0306 45.1875 39.0312C45.375 39.0312 45.5612 39.0393 45.746 39.0553C46.8543 39.1513 47.9062 39.5333 48.7711 40.1537C48.9153 40.2568 49.0546 40.3665 49.1889 40.4828C49.7247 40.9504 50.1498 41.5079 50.4393 42.1225C50.7288 42.7371 50.8769 43.3966 50.875 44.0625C50.8792 44.9492 50.6121 45.8204 50.1021 46.5837ZM56.5625 46.2188H52.0803C52.1357 46.0807 52.1818 45.9397 52.2265 45.7985C52.2346 45.7736 52.2447 45.7495 52.2523 45.7245C52.3232 45.4843 52.3785 45.2407 52.4177 44.9948C52.4274 44.936 52.4356 44.8773 52.4435 44.8183C52.5627 43.9847 52.4933 43.1385 52.2393 42.3289C51.9853 41.5193 51.5517 40.7625 50.964 40.1025C51.4348 39.8737 51.9628 39.7525 52.5 39.75C52.7155 39.75 52.9222 39.6743 53.0745 39.5395C53.2269 39.4047 53.3125 39.2219 53.3125 39.0312V21.7812C53.3125 21.5906 53.2269 21.4078 53.0745 21.273C52.9222 21.1382 52.7155 21.0625 52.5 21.0625C51.6383 21.0618 50.8121 20.7586 50.2028 20.2196C49.5935 19.6806 49.2508 18.9498 49.25 18.1875C49.25 17.9969 49.1644 17.8141 49.012 17.6793C48.8597 17.5445 48.653 17.4688 48.4375 17.4688H17.5625C17.347 17.4688 17.1403 17.5445 16.988 17.6793C16.8356 17.8141 16.75 17.9969 16.75 18.1875C16.7492 18.9498 16.4065 19.6806 15.7972 20.2196C15.1879 20.7586 14.3617 21.0618 13.5 21.0625C13.2845 21.0625 13.0778 21.1382 12.9255 21.273C12.7731 21.4078 12.6875 21.5906 12.6875 21.7812V39.0312C12.6875 39.2219 12.7731 39.4047 12.9255 39.5395C13.0778 39.6743 13.2845 39.75 13.5 39.75C14.3617 39.7507 15.1879 40.0539 15.7972 40.5929C16.4065 41.1319 16.7492 41.8627 16.75 42.625C16.75 42.8156 16.8356 42.9984 16.988 43.1332C17.1403 43.268 17.347 43.3438 17.5625 43.3438H37.9258C37.8939 43.5823 37.877 43.8223 37.875 44.0625C37.877 44.3147 37.8958 44.5665 37.9313 44.8167C37.9394 44.8769 37.9476 44.9366 37.9576 44.9964C37.9964 45.2401 38.0511 45.4816 38.1212 45.7197C38.1304 45.7503 38.143 45.7798 38.1526 45.8103C38.1963 45.9474 38.2409 46.0844 38.2947 46.2187H9.4375V14.5938H56.5625V46.2188Z" fill="#6D633B"/>
<path d="M26.5 26.8125H39.5C39.7155 26.8125 39.9222 26.7368 40.0745 26.602C40.2269 26.4672 40.3125 26.2844 40.3125 26.0938V21.7812C40.3125 21.5906 40.2269 21.4078 40.0745 21.273C39.9222 21.1382 39.7155 21.0625 39.5 21.0625H26.5C26.2845 21.0625 26.0778 21.1382 25.9255 21.273C25.7731 21.4078 25.6875 21.5906 25.6875 21.7812V26.0938C25.6875 26.2844 25.7731 26.4672 25.9255 26.602C26.0778 26.7368 26.2845 26.8125 26.5 26.8125ZM27.3125 22.5H38.6875V25.375H27.3125V22.5Z" fill="#6D633B"/>
<path d="M24.875 31.125H41.125C41.3405 31.125 41.5472 31.0493 41.6995 30.9145C41.8519 30.7797 41.9375 30.5969 41.9375 30.4062C41.9375 30.2156 41.8519 30.0328 41.6995 29.898C41.5472 29.7632 41.3405 29.6875 41.125 29.6875H24.875C24.6595 29.6875 24.4528 29.7632 24.3005 29.898C24.1481 30.0328 24.0625 30.2156 24.0625 30.4062C24.0625 30.5969 24.1481 30.7797 24.3005 30.9145C24.4528 31.0493 24.6595 31.125 24.875 31.125Z" fill="#6D633B"/>
<path d="M44.375 34.7188C44.375 34.5281 44.2894 34.3453 44.137 34.2105C43.9847 34.0757 43.778 34 43.5625 34H22.4375C22.222 34 22.0153 34.0757 21.863 34.2105C21.7106 34.3453 21.625 34.5281 21.625 34.7188C21.625 34.9094 21.7106 35.0922 21.863 35.227C22.0153 35.3618 22.222 35.4375 22.4375 35.4375H43.5625C43.778 35.4375 43.9847 35.3618 44.137 35.227C44.2894 35.0922 44.375 34.9094 44.375 34.7188Z" fill="#6D633B"/>
</svg>
