<svg xmlns="http://www.w3.org/2000/svg">
  <symbol id="facebook" width="24" height="24" viewBox="0 0 24 24" >
    <path d="M22.676 0H1.324C0.5928 0 0 0.5928 0 1.324V22.676C0 23.4072 0.5928 24 1.324 24H12.828V14.7184H9.7032V11.0856H12.828V8.4128C12.828 5.3128 14.7232 3.6248 17.4872 3.6248C18.4186 3.62281 19.3495 3.66981 20.276 3.7656V7.0056H18.372C16.8664 7.0056 16.572 7.7176 16.572 8.768V11.0816H20.172L19.7048 14.7144H16.552V24H22.676C23.4072 24 24 23.4072 24 22.676V1.324C24 0.5928 23.4072 0 22.676 0Z" />
  </symbol>

  <symbol id="tiktok" width="24" height="24" viewBox="0 0 24 24" > 
	<path fill-rule="evenodd" clip-rule="evenodd" d="M13.5873 0.666641H2.41269C1.44993 0.666641 0.666656 1.44991 0.666656 2.41267V13.5873C0.666656 14.55 1.44993 15.3333 2.41269 15.3333H13.5873C14.5501 15.3333 15.3333 14.55 15.3333 13.5873V2.41267C15.3333 1.44991 14.5501 0.666641 13.5873 0.666641ZM12.1926 7.06515C12.1125 7.07293 12.0321 7.07701 11.9516 7.07737C11.5172 7.07743 11.0896 6.96931 10.7074 6.76275C10.3252 6.5562 10.0004 6.25772 9.76243 5.89426V9.92305C9.76243 10.512 9.5878 11.0877 9.2606 11.5774C8.93341 12.067 8.46836 12.4487 7.92426 12.6741C7.38016 12.8994 6.78145 12.9584 6.20383 12.8435C5.62622 12.7286 5.09565 12.445 4.67921 12.0286C4.26278 11.6122 3.97918 11.0816 3.86428 10.504C3.74939 9.92636 3.80836 9.32764 4.03373 8.78354C4.25911 8.23944 4.64076 7.77439 5.13044 7.4472C5.62012 7.12001 6.19582 6.94537 6.78475 6.94537C6.84691 6.94537 6.90767 6.95096 6.96878 6.9548V8.42216C6.90767 8.41483 6.84761 8.40366 6.78475 8.40366C6.38169 8.40366 5.99514 8.56377 5.71013 8.84878C5.42512 9.13379 5.26501 9.52034 5.26501 9.9234C5.26501 10.3265 5.42512 10.713 5.71013 10.998C5.99514 11.283 6.38169 11.4431 6.78475 11.4431C7.62424 11.4431 8.36561 10.7818 8.36561 9.94226L8.38028 3.09991H9.78409C9.84822 3.70987 10.1247 4.27787 10.5652 4.7046C11.0058 5.13133 11.5823 5.38964 12.194 5.43436V7.06515" />
  </symbol>
  <symbol id="tiktok2" width="24" height="24" viewBox="0.666656 0.666641 14.67 14.67" > 
	<path fill-rule="evenodd" clip-rule="evenodd" d="M13.5873 0.666641H2.41269C1.44993 0.666641 0.666656 1.44991 0.666656 2.41267V13.5873C0.666656 14.55 1.44993 15.3333 2.41269 15.3333H13.5873C14.5501 15.3333 15.3333 14.55 15.3333 13.5873V2.41267C15.3333 1.44991 14.5501 0.666641 13.5873 0.666641ZM12.1926 7.06515C12.1125 7.07293 12.0321 7.07701 11.9516 7.07737C11.5172 7.07743 11.0896 6.96931 10.7074 6.76275C10.3252 6.5562 10.0004 6.25772 9.76243 5.89426V9.92305C9.76243 10.512 9.5878 11.0877 9.2606 11.5774C8.93341 12.067 8.46836 12.4487 7.92426 12.6741C7.38016 12.8994 6.78145 12.9584 6.20383 12.8435C5.62622 12.7286 5.09565 12.445 4.67921 12.0286C4.26278 11.6122 3.97918 11.0816 3.86428 10.504C3.74939 9.92636 3.80836 9.32764 4.03373 8.78354C4.25911 8.23944 4.64076 7.77439 5.13044 7.4472C5.62012 7.12001 6.19582 6.94537 6.78475 6.94537C6.84691 6.94537 6.90767 6.95096 6.96878 6.9548V8.42216C6.90767 8.41483 6.84761 8.40366 6.78475 8.40366C6.38169 8.40366 5.99514 8.56377 5.71013 8.84878C5.42512 9.13379 5.26501 9.52034 5.26501 9.9234C5.26501 10.3265 5.42512 10.713 5.71013 10.998C5.99514 11.283 6.38169 11.4431 6.78475 11.4431C7.62424 11.4431 8.36561 10.7818 8.36561 9.94226L8.38028 3.09991H9.78409C9.84822 3.70987 10.1247 4.27787 10.5652 4.7046C11.0058 5.13133 11.5823 5.38964 12.194 5.43436V7.06515"/>
	</symbol>
  <symbol id="telegram" width="24" height="24" viewBox="0 0 24 24" >
    <path fill-rule="evenodd" clip-rule="evenodd" d="M24 2.24406L20.2035 21.6261C20.2035 21.6261 19.6726 22.9701 18.2137 22.3246L12.8121 18.132L9.34729 21.3299C9.34729 21.3299 9.07674 21.5384 8.78 21.408L9.48038 15.3622C9.48038 15.3622 19.1955 6.51851 19.5926 6.14198C19.9912 5.76619 19.8581 5.68514 19.8581 5.68514C19.885 5.22829 19.1417 5.68514 19.1417 5.68514L6.26867 13.9644L0.906361 12.137C0.906361 12.137 0.0837966 11.8408 0.00452199 11.196C-0.0754799 10.5505 0.932544 10.2013 0.932544 10.2013L22.248 1.73342C22.248 1.73342 24 0.95384 24 2.24406Z" />
  </symbol>

  <symbol id="instagram" width="24" height="24" viewBox="0 0 24 24" >
    <path fill-rule="evenodd" clip-rule="evenodd" d="M12 0C8.7408 0 8.332 0.0136 7.0528 0.072C5.7752 0.1304 4.9032 0.3336 4.1392 0.6304C3.33873 0.931748 2.61361 1.40406 2.0144 2.0144C1.40406 2.61361 0.931748 3.33873 0.6304 4.1392C0.3336 4.904 0.1304 5.776 0.072 7.0528C0.0136 8.3328 0 8.7408 0 12C0 15.2592 0.0136 15.668 0.072 16.9472C0.1304 18.2248 0.3336 19.0976 0.6304 19.8608C0.931748 20.6613 1.40406 21.3864 2.0144 21.9856C2.61364 22.5959 3.33875 23.0682 4.1392 23.3696C4.9032 23.6664 5.7752 23.8696 7.0528 23.928C8.3328 23.9864 8.7408 24 12 24C15.2592 24 15.668 23.9864 16.9472 23.928C18.2248 23.8696 19.0976 23.6664 19.8608 23.3704C20.6613 23.069 21.3864 22.5967 21.9856 21.9864C22.596 21.387 23.0684 20.6616 23.3696 19.8608C23.6664 19.0976 23.8696 18.2248 23.928 16.9472C23.9864 15.6672 24 15.2592 24 12C24 8.7408 23.9864 8.332 23.928 7.0528C23.8696 5.7752 23.6664 4.9032 23.3696 4.1392C23.0682 3.33874 22.5959 2.61363 21.9856 2.0144C21.3864 1.40406 20.6613 0.931748 19.8608 0.6304C19.0976 0.3336 18.224 0.1304 16.9472 0.072C15.6672 0.0136 15.26 0 12 0ZM12 2.1624C15.204 2.1624 15.584 2.1744 16.8488 2.232C18.0192 2.2856 18.6544 2.4808 19.0776 2.6456C19.6376 2.8632 20.0376 3.1232 20.4568 3.5432C20.8768 3.9632 21.1368 4.3624 21.3544 4.9224C21.5192 5.3464 21.7144 5.9808 21.768 7.1512C21.8256 8.4168 21.8376 8.796 21.8376 12C21.8376 15.204 21.8256 15.584 21.768 16.8488C21.7144 18.0192 21.5192 18.6544 21.3544 19.0776C21.1368 19.6376 20.8768 20.0376 20.4568 20.4568C20.0699 20.8552 19.5986 21.162 19.0776 21.3544C18.6544 21.5192 18.0192 21.7144 16.8488 21.768C15.584 21.8256 15.2048 21.8376 12 21.8376C8.796 21.8376 8.416 21.8256 7.1512 21.768C5.9808 21.7144 5.3456 21.5192 4.9224 21.3544C4.3624 21.1368 3.9624 20.8768 3.5432 20.4568C3.14475 20.0699 2.83804 19.5986 2.6456 19.0776C2.4808 18.6544 2.2856 18.0192 2.232 16.8488C2.1744 15.584 2.1624 15.204 2.1624 12.0008C2.1624 8.796 2.1744 8.4168 2.232 7.1512C2.2856 5.9808 2.4808 5.3456 2.6456 4.9232C2.8632 4.3632 3.1232 3.9632 3.5432 3.5432C3.93011 3.14473 4.40139 2.83802 4.9224 2.6456C5.3456 2.4808 5.9808 2.2856 7.1512 2.232C8.416 2.1744 8.796 2.1624 12 2.1624Z" />
    <path fill-rule="evenodd" clip-rule="evenodd" d="M11.9999 15.9999C10.9391 15.9999 9.92167 15.5785 9.17152 14.8283C8.42137 14.0782 7.99995 13.0608 7.99995 11.9999C7.99995 10.939 8.42137 9.92162 9.17152 9.17147C9.92167 8.42133 10.9391 7.9999 11.9999 7.9999C13.0608 7.9999 14.0782 8.42133 14.8284 9.17147C15.5785 9.92162 15.9999 10.939 15.9999 11.9999C15.9999 13.0608 15.5785 14.0782 14.8284 14.8283C14.0782 15.5785 13.0608 15.9999 11.9999 15.9999ZM11.9999 5.8375C11.1848 5.82821 10.376 5.98073 9.62022 6.28624C8.86447 6.59174 8.17684 7.04415 7.59715 7.61727C7.01747 8.19039 6.55725 8.87282 6.24316 9.62504C5.92906 10.3773 5.76733 11.1843 5.76733 11.9995C5.76733 12.8147 5.92906 13.6217 6.24316 14.374C6.55725 15.1262 7.01747 15.8086 7.59715 16.3817C8.17684 16.9548 8.86447 17.4073 9.62022 17.7128C10.376 18.0183 11.1848 18.1708 11.9999 18.1615C13.622 18.143 15.1714 17.4857 16.312 16.3321C17.4525 15.1785 18.0921 13.6217 18.0921 11.9995C18.0921 10.3773 17.4525 8.82051 16.312 7.66692C15.1714 6.51333 13.622 5.85598 11.9999 5.8375ZM19.8455 5.5943C19.8455 5.7834 19.8083 5.97065 19.7359 6.14536C19.6636 6.32007 19.5575 6.47881 19.4238 6.61253C19.2901 6.74625 19.1313 6.85232 18.9566 6.92468C18.7819 6.99705 18.5947 7.0343 18.4055 7.0343C18.2164 7.0343 18.0292 6.99705 17.8545 6.92468C17.6798 6.85232 17.521 6.74625 17.3873 6.61253C17.2536 6.47881 17.1475 6.32007 17.0752 6.14536C17.0028 5.97065 16.9655 5.7834 16.9655 5.5943C16.9655 5.21239 17.1173 4.84612 17.3873 4.57606C17.6574 4.30601 18.0236 4.1543 18.4055 4.1543C18.7875 4.1543 19.1537 4.30601 19.4238 4.57606C19.6938 4.84612 19.8455 5.21239 19.8455 5.5943Z" />
  </symbol>

  <symbol id="instagram2" width="24" height="24" viewBox="0.361084 0.36084 15.28 15.28" >
   <path d="M7.99997 0.36084C10.0755 0.36084 10.3344 0.368479 11.1487 0.406673C11.9623 0.444868 12.5161 0.572437 13.0034 0.761882C13.5076 0.955909 13.9323 1.21869 14.3571 1.64265C14.7455 2.02451 15.0461 2.48643 15.2378 2.99626C15.4265 3.48285 15.5548 4.03744 15.593 4.85098C15.6289 5.66528 15.6389 5.92424 15.6389 7.99973C15.6389 10.0752 15.6312 10.3342 15.593 11.1485C15.5548 11.962 15.4265 12.5158 15.2378 13.0032C15.0466 13.5133 14.746 13.9753 14.3571 14.3568C13.9751 14.7451 13.5132 15.0457 13.0034 15.2376C12.5168 15.4263 11.9623 15.5546 11.1487 15.5928C10.3344 15.6287 10.0755 15.6386 7.99997 15.6386C5.92449 15.6386 5.66553 15.631 4.85122 15.5928C4.03768 15.5546 3.48386 15.4263 2.9965 15.2376C2.48647 15.0462 2.02447 14.7456 1.64289 14.3568C1.25438 13.975 0.953809 13.5131 0.762126 13.0032C0.572681 12.5166 0.445112 11.962 0.406917 11.1485C0.371014 10.3342 0.361084 10.0752 0.361084 7.99973C0.361084 5.92424 0.368723 5.66528 0.406917 4.85098C0.445112 4.03667 0.572681 3.48362 0.762126 2.99626C0.953278 2.48612 1.25392 2.02407 1.64289 1.64265C2.02458 1.254 2.48655 0.953411 2.9965 0.761882C3.48386 0.572437 4.03692 0.444868 4.85122 0.406673C5.66553 0.37077 5.92449 0.36084 7.99997 0.36084ZM7.99997 4.18028C6.98699 4.18028 6.0155 4.58269 5.29922 5.29897C4.58293 6.01526 4.18053 6.98675 4.18053 7.99973C4.18053 9.01271 4.58293 9.9842 5.29922 10.7005C6.0155 11.4168 6.98699 11.8192 7.99997 11.8192C9.01295 11.8192 9.98444 11.4168 10.7007 10.7005C11.417 9.9842 11.8194 9.01271 11.8194 7.99973C11.8194 6.98675 11.417 6.01526 10.7007 5.29897C9.98444 4.58269 9.01295 4.18028 7.99997 4.18028ZM12.9653 3.98931C12.9653 3.73607 12.8647 3.49319 12.6856 3.31412C12.5065 3.13505 12.2636 3.03445 12.0104 3.03445C11.7571 3.03445 11.5143 3.13505 11.3352 3.31412C11.1561 3.49319 11.0555 3.73607 11.0555 3.98931C11.0555 4.24256 11.1561 4.48543 11.3352 4.6645C11.5143 4.84357 11.7571 4.94417 12.0104 4.94417C12.2636 4.94417 12.5065 4.84357 12.6856 4.6645C12.8647 4.48543 12.9653 4.24256 12.9653 3.98931ZM7.99997 5.70806C8.60776 5.70806 9.19066 5.9495 9.62043 6.37927C10.0502 6.80905 10.2916 7.39194 10.2916 7.99973C10.2916 8.60752 10.0502 9.19041 9.62043 9.62018C9.19066 10.05 8.60776 10.2914 7.99997 10.2914C7.39219 10.2914 6.80929 10.05 6.37952 9.62018C5.94975 9.19041 5.70831 8.60752 5.70831 7.99973C5.70831 7.39194 5.94975 6.80905 6.37952 6.37927C6.80929 5.9495 7.39219 5.70806 7.99997 5.70806Z"/>  
  </symbol>

  <symbol id="twitter" width="24" height="24" viewBox="0 0 24 24" >
    <path d="M7.53941 21.75C16.5959 21.75 21.5513 14.2461 21.5513 7.749C21.5513 7.53739 21.5513 7.3265 21.5412 7.11561C22.5069 6.41629 23.3395 5.55177 24 4.56256C23.0996 4.95997 22.1447 5.22212 21.1666 5.34039C22.1985 4.72258 22.9697 3.75418 23.3375 2.61472C22.3708 3.18783 21.3116 3.59052 20.2067 3.80494C19.7478 3.31438 19.192 2.92309 18.574 2.65554C17.9559 2.38799 17.289 2.24993 16.6148 2.25C13.897 2.25 11.6884 4.45711 11.6884 7.17267C11.6884 7.55689 11.7364 7.931 11.8127 8.29572C7.72195 8.09422 4.09151 6.12689 1.6625 3.15278C1.22625 3.90585 0.99749 4.75976 0.999242 5.62856C0.998699 6.43741 1.19807 7.23403 1.57986 7.94851C1.96165 8.66299 2.51419 9.2735 3.18899 9.72644C2.40802 9.69853 1.64475 9.48768 0.961425 9.11111V9.17828C0.961425 11.558 2.66101 13.5542 4.90822 14.0049C4.49514 14.1204 4.06315 14.1782 3.61153 14.1782C3.30205 14.1788 2.99324 14.1498 2.68937 14.0916C3.31408 16.0488 5.13875 17.4694 7.28996 17.5077C5.54898 18.8772 3.39261 19.6215 1.1716 19.6194C0.778158 19.6194 0.383988 19.6007 0 19.5523C2.24906 20.9874 4.8661 21.7502 7.53941 21.75Z" />
  </symbol>

  <symbol id="youtube" width="24" height="24" viewBox="0 0 24 24" >
    <path fill-rule="evenodd" clip-rule="evenodd" d="M23.4987 5.6936C23.3619 5.17138 23.0938 4.69523 22.7214 4.31284C22.349 3.93044 21.8853 3.65523 21.3767 3.51476C19.5053 3 12 3 12 3C12 3 4.49467 3 2.62333 3.51476C2.11473 3.65523 1.65101 3.93044 1.27859 4.31284C0.906172 4.69523 0.638139 5.17138 0.501333 5.6936C0 7.61506 0 11.625 0 11.625C0 11.625 0 15.6343 0.501333 17.5564C0.63818 18.0785 0.906238 18.5546 1.27866 18.9368C1.65108 19.3191 2.11478 19.5942 2.62333 19.7346C4.49467 20.25 12 20.25 12 20.25C12 20.25 19.5053 20.25 21.3767 19.7346C21.8852 19.5942 22.3489 19.3191 22.7213 18.9368C23.0938 18.5546 23.3618 18.0785 23.4987 17.5564C24 15.6343 24 11.625 24 11.625C24 11.625 24 7.61506 23.4987 5.6936ZM9.6 15.3214L15.8353 11.625L9.6 7.92857V15.3214Z" />
  </symbol>
  
  <symbol id="radio" width="17" height="17" viewBox="0 0 17 17" >
    <path  fill-rule="evenodd" clip-rule="evenodd" d="M16.4289 1.56057C16.8506 1.43772 17.093 0.992801 16.9701 0.571121C16.8473 0.149441 16.4023 -0.0929416 15.9773 0.0332303L1.7166 4.2135C1.40449 4.30315 1.12227 4.45589 0.883203 4.65179C0.348633 5.03694 0 5.66448 0 6.37503V14.875C0 16.0471 0.95293 17 2.125 17H14.875C16.0471 17 17 16.0471 17 14.875V6.37503C17 5.20296 16.0471 4.25003 14.875 4.25003H7.25488L16.4289 1.56057ZM12.2188 7.96878C12.9232 7.96878 13.5989 8.24863 14.097 8.74677C14.5951 9.24492 14.875 9.92055 14.875 10.625C14.875 11.3295 14.5951 12.0051 14.097 12.5033C13.5989 13.0014 12.9232 13.2813 12.2188 13.2813C11.5143 13.2813 10.8386 13.0014 10.3405 12.5033C9.84235 12.0051 9.5625 11.3295 9.5625 10.625C9.5625 9.92055 9.84235 9.24492 10.3405 8.74677C10.8386 8.24863 11.5143 7.96878 12.2188 7.96878ZM2.65625 8.50003C2.65625 8.20784 2.89531 7.96878 3.1875 7.96878H6.375C6.66719 7.96878 6.90625 8.20784 6.90625 8.50003C6.90625 8.79221 6.66719 9.03128 6.375 9.03128H3.1875C2.89531 9.03128 2.65625 8.79221 2.65625 8.50003ZM2.125 10.625C2.125 10.3328 2.36406 10.0938 2.65625 10.0938H6.90625C7.19844 10.0938 7.4375 10.3328 7.4375 10.625C7.4375 10.9172 7.19844 11.1563 6.90625 11.1563H2.65625C2.36406 11.1563 2.125 10.9172 2.125 10.625ZM2.65625 12.75C2.65625 12.4578 2.89531 12.2188 3.1875 12.2188H6.375C6.66719 12.2188 6.90625 12.4578 6.90625 12.75C6.90625 13.0422 6.66719 13.2813 6.375 13.2813H3.1875C2.89531 13.2813 2.65625 13.0422 2.65625 12.75Z"  />
  </symbol>
  <symbol id="newspaper" width="17" height="17" viewBox="0 0 17 17" >
	<path fill-rule="evenodd" clip-rule="evenodd" d="M5.39127 2.05849L6.22353 3.30541H6.57979V1.40582H6.20803V2.6557L5.37576 1.40582H5.02246V3.30541H5.39127V2.05849Z" fill="white"/>
	<path fill-rule="evenodd" clip-rule="evenodd" d="M8.08603 2.95134H7.39423V2.45095H8.08603V2.10431H7.39423V1.75912H8.08603V1.40582H7.02539V3.30541H8.08603V2.95134Z" fill="white"/>
	<path fill-rule="evenodd" clip-rule="evenodd" d="M9.07676 3.30541L9.42784 2.07696L9.78633 3.30541H10.1418L10.5801 1.40582H10.2158L9.93711 2.61947L9.58601 1.40582H9.27632L8.93114 2.61947L8.64807 1.40582H8.28516L8.7242 3.30541H9.07676Z" fill="white"/>
	<path fill-rule="evenodd" clip-rule="evenodd" d="M11.3361 3.00828C11.2127 3.00828 11.1062 2.92477 11.0131 2.75698L10.7012 2.94027C10.7751 3.08367 10.8623 3.18714 10.965 3.25365C11.067 3.32016 11.189 3.35343 11.3272 3.35343C11.5054 3.35343 11.6488 3.30316 11.7589 3.20191C11.869 3.09991 11.9237 2.97055 11.9237 2.81684C11.9237 2.73626 11.9074 2.66013 11.8771 2.59213C11.8461 2.52486 11.7928 2.45465 11.7175 2.37926C11.6864 2.35191 11.6014 2.27652 11.4617 2.16121C11.3102 2.03851 11.2185 1.95646 11.1897 1.91581C11.1668 1.88992 11.1564 1.85964 11.1564 1.82711C11.1564 1.79533 11.1727 1.76502 11.2023 1.7421C11.234 1.71475 11.2725 1.70514 11.322 1.70514C11.4218 1.70514 11.5194 1.77091 11.6169 1.8988L11.8904 1.66302C11.7884 1.54697 11.6938 1.46566 11.6051 1.42503C11.5179 1.37921 11.4247 1.35852 11.3287 1.35852C11.1771 1.35852 11.05 1.40583 10.9473 1.49749C10.8445 1.59358 10.7935 1.70666 10.7935 1.83898C10.7935 1.92841 10.8231 2.02227 10.8867 2.11173C10.948 2.20559 11.0848 2.33644 11.2969 2.50422C11.4077 2.59143 11.4809 2.65797 11.5134 2.70232C11.5445 2.74371 11.5608 2.78806 11.5608 2.82871C11.5608 2.87675 11.5401 2.92037 11.4972 2.95584C11.4536 2.99128 11.3989 3.00828 11.3361 3.00828Z" fill="white"/>
	<path fill-rule="evenodd" clip-rule="evenodd" d="M2.21777 0V17H14.783V0H2.21777ZM3.18455 5.19461H8.01698V9.4446H3.18455V5.19461ZM13.8162 13.6946H3.18455V12.75H13.8162V13.6946ZM13.8162 11.8054H3.18455V10.8608H13.8162V11.8054ZM13.8162 9.91542H8.98376V8.9708H13.8162V9.91542ZM13.8162 8.02917H8.98376V7.08455H13.8162V8.02917ZM13.8162 6.13996H10.434V5.19461H13.8162V6.13996ZM13.8162 3.77918H3.18455V0.944619H13.8162V3.77918Z" fill="white"/>
  </symbol>
  <symbol id="search" width="24" height="24" viewBox="0 0 24 24" >
	<path d="M21.71,20.29,18,16.61A9,9,0,1,0,16.61,18l3.68,3.68a1,1,0,0,0,1.42,0A1,1,0,0,0,21.71,20.29ZM11,18a7,7,0,1,1,7-7A7,7,0,0,1,11,18Z" fill="white"/>
  </symbol>
  <symbol id="arrow" width="16" height="20" viewBox="0 0 16 20" >
	<path d="M15.374 11.7493L8.17363 19.3563C8.13647 19.3956 8.09236 19.4268 8.0438 19.4481C7.99523 19.4693 7.94318 19.4803 7.89061 19.4803C7.83804 19.4803 7.78599 19.4693 7.73743 19.4481C7.68887 19.4268 7.64475 19.3956 7.6076 19.3563L0.407267 11.7493C0.332207 11.67 0.290039 11.5625 0.290039 11.4503C0.290039 11.3382 0.332207 11.2306 0.407267 11.1513C0.482327 11.072 0.584129 11.0275 0.69028 11.0275C0.79643 11.0275 0.898233 11.072 0.973293 11.1513L7.49059 18.0367L7.49059 0.462407C7.49059 0.350323 7.53274 0.24283 7.60776 0.163575C7.68277 0.08432 7.78452 0.0397949 7.89061 0.0397949C7.9967 0.0397949 8.09845 0.08432 8.17347 0.163575C8.24849 0.24283 8.29063 0.350323 8.29063 0.462407L8.29063 18.0367L14.8079 11.1513C14.883 11.072 14.9848 11.0275 15.0909 11.0275C15.1971 11.0275 15.2989 11.072 15.374 11.1513C15.449 11.2306 15.4912 11.3382 15.4912 11.4503C15.4912 11.5625 15.449 11.67 15.374 11.7493Z" fill="#3E3B21"/>
</symbol>
  <symbol id="arrow_white" width="16" height="20" viewBox="0 0 16 20" >
	<path d="M15.374 11.7493L8.17363 19.3563C8.13647 19.3956 8.09236 19.4268 8.0438 19.4481C7.99523 19.4693 7.94318 19.4803 7.89061 19.4803C7.83804 19.4803 7.78599 19.4693 7.73743 19.4481C7.68887 19.4268 7.64475 19.3956 7.6076 19.3563L0.407267 11.7493C0.332207 11.67 0.290039 11.5625 0.290039 11.4503C0.290039 11.3382 0.332207 11.2306 0.407267 11.1513C0.482327 11.072 0.584129 11.0275 0.69028 11.0275C0.79643 11.0275 0.898233 11.072 0.973293 11.1513L7.49059 18.0367L7.49059 0.462407C7.49059 0.350323 7.53274 0.24283 7.60776 0.163575C7.68277 0.08432 7.78452 0.0397949 7.89061 0.0397949C7.9967 0.0397949 8.09845 0.08432 8.17347 0.163575C8.24849 0.24283 8.29063 0.350323 8.29063 0.462407L8.29063 18.0367L14.8079 11.1513C14.883 11.072 14.9848 11.0275 15.0909 11.0275C15.1971 11.0275 15.2989 11.072 15.374 11.1513C15.449 11.2306 15.4912 11.3382 15.4912 11.4503C15.4912 11.5625 15.449 11.67 15.374 11.7493Z" fill="#fff"/>
</symbol>
  <symbol id="arrow_left" width="26" height="20" viewBox="0 0 26 20" >
	<path d="M10.45 0.522646L0.700201 9.60133C0.649839 9.64817 0.609888 9.7038 0.58263 9.76503C0.555372 9.82626 0.541342 9.89189 0.541342 9.95817C0.541342 10.0245 0.555372 10.0901 0.58263 10.1513C0.609888 10.2125 0.649839 10.2682 0.700201 10.315L10.45 19.3937C10.5517 19.4883 10.6895 19.5415 10.8333 19.5415C10.977 19.5415 11.1148 19.4883 11.2165 19.3937C11.3181 19.2991 11.3752 19.1707 11.3752 19.0369C11.3752 18.903 11.3181 18.7747 11.2165 18.68L2.39153 10.4625L24.9164 10.4625C25.06 10.4625 25.1978 10.4094 25.2994 10.3148C25.4009 10.2202 25.458 10.0919 25.458 9.95817C25.458 9.8244 25.4009 9.69611 25.2994 9.60153C25.1978 9.50694 25.06 9.4538 24.9164 9.4538L2.39153 9.4538L11.2165 1.23633C11.3181 1.14169 11.3752 1.01333 11.3752 0.87949C11.3752 0.745647 11.3181 0.617287 11.2165 0.522646C11.1148 0.428005 10.977 0.374838 10.8333 0.374838C10.6895 0.374838 10.5517 0.428005 10.45 0.522646Z" fill=""/>
</symbol>
  <symbol id="arrow_right" width="26" height="20" viewBox="0 0 26 20" >
	<path d="M15.55 0.522646L25.2998 9.60133C25.3502 9.64817 25.3901 9.7038 25.4174 9.76503C25.4446 9.82626 25.4587 9.89189 25.4587 9.95817C25.4587 10.0245 25.4446 10.0901 25.4174 10.1513C25.3901 10.2125 25.3502 10.2682 25.2998 10.315L15.55 19.3937C15.4483 19.4883 15.3105 19.5415 15.1667 19.5415C15.023 19.5415 14.8852 19.4883 14.7835 19.3937C14.6819 19.2991 14.6248 19.1707 14.6248 19.0369C14.6248 18.903 14.6819 18.7747 14.7835 18.68L23.6085 10.4625L1.08365 10.4625C0.939993 10.4625 0.802221 10.4094 0.70064 10.3148C0.59906 10.2202 0.541992 10.0919 0.541992 9.95817C0.541992 9.8244 0.59906 9.69611 0.70064 9.60153C0.802221 9.50694 0.939993 9.4538 1.08365 9.4538L23.6085 9.4538L14.7835 1.23633C14.6819 1.14169 14.6248 1.01333 14.6248 0.87949C14.6248 0.745647 14.6819 0.617287 14.7835 0.522646C14.8852 0.428005 15.023 0.374838 15.1667 0.374838C15.3105 0.374838 15.4483 0.428005 15.55 0.522646Z" fill=""/>
</symbol>
</svg>
