<svg width="40" height="40" viewBox="0 0 40 40" fill="none" xmlns="http://www.w3.org/2000/svg">
<path d="M25.75 15L25.5 19.25L25.125 25.625L24.75 31C22.25 33.875 18.625 35.625 14.625 35.625C7.25 35.75 1.25 29.75 1.25 22.375C1.25 15 7.25 9 14.625 9C19.25 9 23.375 11.375 25.75 15Z" stroke="#605E3E" stroke-miterlimit="10" stroke-linecap="round" stroke-linejoin="round"/>
<path d="M14.625 35.75C17.5245 35.75 19.875 29.7618 19.875 22.375C19.875 14.9882 17.5245 9 14.625 9C11.7255 9 9.375 14.9882 9.375 22.375C9.375 29.7618 11.7255 35.75 14.625 35.75Z" stroke="#605E3E" stroke-miterlimit="10" stroke-linecap="round" stroke-linejoin="round"/>
<path d="M25.5 19.25L25.125 25.625C22.625 26.875 18.875 27.625 14.625 27.625C7.25 27.625 1.25 25.25 1.25 22.375C1.25 19.5 7.25 17.125 14.625 17.125C19.125 17 23.125 17.875 25.5 19.25Z" stroke="#605E3E" stroke-miterlimit="10" stroke-linecap="round" stroke-linejoin="round"/>
<path d="M36.25 33.75H24.5L26.125 9.5H34.75L36.25 33.75Z" stroke="#605E3E" stroke-miterlimit="10" stroke-linecap="round" stroke-linejoin="round"/>
<path d="M38.75 37.75H22.125V35.375C22.125 34.5 22.75 33.875 23.625 33.875H37.25C38.125 33.875 38.75 34.5 38.75 35.375V37.75Z" stroke="#605E3E" stroke-miterlimit="10" stroke-linecap="round" stroke-linejoin="round"/>
<path d="M38.75 2.25V7.625C38.75 8.625 38 9.375 37 9.375H23.875C22.875 9.375 22.125 8.625 22.125 7.625V2.25H25.5V5.875H28.75V2.25H32.125V5.875H35.5V2.25H38.75Z" stroke="#605E3E" stroke-miterlimit="10" stroke-linecap="round" stroke-linejoin="round"/>
</svg>
