<svg width="39" height="41" viewBox="0 0 39 41" fill="none" xmlns="http://www.w3.org/2000/svg">
<path d="M37.6161 22.1811C36.0928 20.5964 34.9264 18.7239 34.1904 16.6818C34.2425 12.3082 32.4938 8.09369 29.329 4.96545C26.1641 1.83722 21.8423 0.0514875 17.3143 0.00109599C12.7864 -0.0492955 8.42311 1.63978 5.18446 4.69675C1.9458 7.75372 0.0970397 11.9282 0.0448695 16.3018C-0.487726 22.0377 3.84727 26.992 6.35437 31.6148C7.00374 33.3237 7.37921 35.1183 7.46781 36.9366C7.55136 37.8983 8.00713 38.7942 8.74422 39.4457C9.4813 40.0972 10.4455 40.4564 11.4446 40.4517H13.7513C14.81 40.4502 15.8249 40.0434 16.5736 39.3203C17.3222 38.5972 17.7434 37.6169 17.7449 36.5943V32.3425H23.0077C24.9579 32.3411 26.8278 31.5923 28.207 30.2605C29.5862 28.9287 30.3619 27.1227 30.3639 25.239C30.3639 25.0774 30.2974 24.9224 30.1791 24.8081C30.0607 24.6938 29.9002 24.6296 29.7329 24.6296H23.8391C22.6355 24.6295 21.4503 24.9151 20.3876 25.4611C19.325 26.0071 18.4175 26.7969 17.7449 27.761V20.9747H20.4765C22.4283 20.9733 24.2996 20.2233 25.6791 18.8895C27.0585 17.5558 27.8331 15.7475 27.8326 13.8622C27.8326 13.7009 27.7664 13.5462 27.6485 13.4319C27.5306 13.3177 27.3706 13.2533 27.2035 13.2528H23.8391C22.6349 13.254 21.4494 13.5409 20.3868 14.0881C19.3242 14.6354 18.417 15.4263 17.7449 16.3914V14.6814C17.7429 12.7975 16.9672 10.9913 15.5881 9.65925C14.209 8.32716 12.3391 7.57795 10.3887 7.57605H7.86679C7.6996 7.57652 7.5394 7.64088 7.42118 7.75507C7.30296 7.86926 7.23633 8.024 7.23584 8.18549C7.23633 10.0703 8.01133 11.8778 9.3906 13.2111C10.7699 14.5444 12.6406 15.2943 14.592 15.2962H16.483V22.0807C15.8106 21.1159 14.9033 20.3253 13.8407 19.7784C12.7781 19.2315 11.5928 18.9449 10.3887 18.9439H5.34485C5.17766 18.9443 5.01746 19.0087 4.89924 19.1229C4.78102 19.2371 4.71439 19.3918 4.7139 19.5533C4.71586 21.4372 5.49151 23.2433 6.87063 24.5754C8.24974 25.9075 10.1197 26.6567 12.07 26.6586H16.483V36.5943C16.4825 37.2939 16.1945 37.9647 15.6823 38.4594C15.1702 38.9542 14.4756 39.2323 13.7513 39.2328H11.4484C10.7649 39.2364 10.1052 38.991 9.60089 38.5454C9.09659 38.0998 8.78483 37.4869 8.72785 36.8291C8.59899 33.2413 7.30366 29.7838 5.02566 26.9472C3.12407 24.7537 1.88698 22.0954 1.45096 19.2656C1.01494 16.4358 1.39696 13.5447 2.55484 10.9114C3.71272 8.27814 5.60143 6.00511 8.01244 4.3433C10.4235 2.68148 13.263 1.6955 16.2176 1.49422C18.3643 1.38652 20.5113 1.7007 22.5287 2.41774C24.5461 3.13477 26.3918 4.23975 27.9543 5.66579C29.5167 7.09183 30.7633 8.80928 31.6186 10.7142C32.4739 12.6191 32.9202 14.6718 32.9303 16.7481C33.619 19.0844 34.8983 21.2187 36.6529 22.959C36.9747 23.2821 37.1594 23.7099 37.1707 24.1581C37.1558 24.2388 37.1094 24.4898 36.6325 24.7568C35.5354 25.3488 34.3991 25.8703 33.231 26.3181C33.0992 26.3672 32.9883 26.4577 32.9163 26.5751C32.8442 26.6925 32.8152 26.8299 32.8338 26.9651C33.1007 28.887 33.1232 30.8331 32.9006 32.7602C32.7151 33.6725 30.5865 34.2856 27.5895 34.2856C27.2241 34.2543 26.856 34.2991 26.5101 34.4172C26.1642 34.5352 25.8485 34.7237 25.5846 34.9698C25.3207 35.2159 25.1145 35.5139 24.9802 35.8437C24.8458 36.1734 24.7864 36.5272 24.8059 36.8811V39.835C24.8147 39.9907 24.8849 40.1372 25.0021 40.2445C25.1193 40.3517 25.2745 40.4114 25.436 40.4114C25.5974 40.4114 25.7526 40.3517 25.8698 40.2445C25.987 40.1372 26.0572 39.9907 26.066 39.835V36.8882C26.0521 36.696 26.0826 36.5032 26.1555 36.3238C26.2284 36.1444 26.3417 35.9829 26.4872 35.8511C26.6328 35.7193 26.8069 35.6204 26.9969 35.5617C27.1869 35.503 27.3881 35.4859 27.5858 35.5116C35.224 35.474 34.5578 32.8785 34.1384 27.2824C36.2948 26.3521 40.1788 25.1852 37.6161 22.1811ZM23.8391 25.8466H29.0611C28.9033 27.2926 28.198 28.6312 27.0807 29.6055C25.9635 30.5798 24.513 31.1211 23.0077 31.1255H17.7764C17.9344 29.678 18.641 28.3381 19.7602 27.3636C20.8795 26.3891 22.3323 25.8488 23.8391 25.8466ZM23.8391 14.4788H26.5336C26.3756 15.9261 25.6689 17.2658 24.5496 18.24C23.4304 19.2142 21.9776 19.7541 20.4709 19.7558H17.7764C17.9348 18.3087 18.6416 16.9693 19.7608 15.9951C20.88 15.021 22.3325 14.4809 23.8391 14.4788ZM14.592 14.0719C13.0861 14.069 11.6344 13.5285 10.516 12.5544C9.39761 11.5804 8.69137 10.2414 8.533 8.79493H10.3887C11.8954 8.79663 13.3482 9.33656 14.4674 10.3108C15.5867 11.285 16.2934 12.6247 16.4514 14.0719H14.592ZM12.07 25.4416C10.5632 25.4394 9.1104 24.8991 7.99117 23.9246C6.87195 22.9501 6.16535 21.6102 6.00734 20.1627H10.3887C11.8956 20.1649 13.3484 20.7052 14.4676 21.6797C15.5868 22.6542 16.2934 23.9941 16.4514 25.4416H12.07Z" fill="#605E3E"/>
</svg>
