<svg width="33" height="34" viewBox="0 0 33 34" fill="none" xmlns="http://www.w3.org/2000/svg">
<path d="M25.8009 0.196353C27.6487 0.196995 29.4725 0.193789 31.2957 0.2002C31.7837 0.202123 32.2129 0.357274 32.5398 0.75669C32.7478 1.01121 32.8337 1.29651 32.8337 1.61963C32.8325 6.35492 32.8306 11.0902 32.8306 15.8255C32.8312 21.3545 32.8318 26.8828 32.8363 32.4118C32.8369 32.9824 32.6213 33.4178 32.108 33.6607C31.9234 33.7479 31.7047 33.8018 31.5011 33.8018C28.0413 33.8069 24.582 33.7992 21.1222 33.7986C17.8741 33.7973 14.6266 33.8024 11.3786 33.8018C8.47249 33.8011 5.56641 33.7973 2.66033 33.7915C2.20517 33.7909 1.74938 33.7922 1.29548 33.7627C0.742336 33.7268 0.196142 33.1818 0.196142 32.5817C0.194878 31.1193 0.189188 29.657 0.189188 28.1939C0.189821 22.4918 0.196142 16.7897 0.192982 11.0876C0.191085 8.03016 0.176545 4.97267 0.162637 1.91519C0.159477 1.21445 0.34407 0.617567 1.03503 0.33227C1.27462 0.233538 1.5553 0.202123 1.81765 0.202123C9.80447 0.195712 17.7907 0.196995 25.8009 0.196353ZM13.5924 19.8517C13.7201 19.8081 13.8478 19.7273 13.9755 19.7267C15.1722 19.7196 16.3683 19.7235 17.565 19.7318C17.9025 19.7344 18.1497 19.953 18.1889 20.2979C18.2224 20.5922 18.2199 20.891 18.2237 21.1878C18.2287 21.5558 18.2249 21.9238 18.2249 22.2809C19.2004 22.2809 20.1398 22.2809 21.0697 22.2809C21.0697 21.0096 21.0684 19.7632 21.0703 18.5169C21.071 18.0047 21.3295 17.7476 21.8321 17.7469C23.0775 17.745 24.3228 17.7424 25.5688 17.7431C25.6801 17.7431 25.7983 17.7482 25.902 17.7841C26.2408 17.9002 26.3489 18.1021 26.3489 18.6137C26.3496 22.8611 26.3489 27.1092 26.3483 31.3566C26.3483 31.7752 26.3483 32.1945 26.3483 32.6157C28.155 32.6157 29.9251 32.6157 31.6971 32.6157C31.6971 23.817 31.6971 15.0363 31.6971 6.24273C21.5679 6.24273 11.4544 6.24273 1.33973 6.24273C1.33973 15.0376 1.33973 23.8247 1.33973 32.6119C1.86507 32.6119 2.36638 32.6119 2.88855 32.6119C2.88855 32.5074 2.88855 32.4183 2.88855 32.3285C2.88918 31.0559 2.89108 29.7833 2.89044 28.5106C2.88981 27.263 2.88539 26.0148 2.88602 24.7672C2.88602 24.4556 3.01688 24.2959 3.28808 24.2947C4.60678 24.2902 5.92548 24.2882 7.24419 24.2966C7.62222 24.2991 7.90543 24.5902 7.9048 24.9409C7.89911 27.4361 7.89279 29.9314 7.8871 32.4272C7.8871 32.4907 7.89595 32.5535 7.89974 32.6119C8.48387 32.6119 9.04966 32.6119 9.63189 32.6119C9.63189 32.5196 9.63189 32.4465 9.63189 32.3734C9.63189 30.6712 9.63252 28.9684 9.63189 27.2662C9.63189 26.8546 9.75769 26.7187 10.1667 26.7181C11.1434 26.7162 12.1207 26.7194 13.0974 26.7206C13.1916 26.7206 13.2858 26.7206 13.3946 26.7206C13.3946 26.611 13.3946 26.5373 13.3946 26.4636C13.3933 24.4472 13.392 22.4309 13.3889 20.414C13.3882 20.2127 13.38 20.0139 13.5924 19.8517ZM30.2216 5.05538C30.7141 5.05538 31.2072 5.05538 31.6952 5.05538C31.6952 3.79943 31.6952 2.58131 31.6952 1.35165C21.566 1.35165 11.4544 1.35165 1.33973 1.35165C1.33973 2.59349 1.33973 3.81802 1.33973 5.05538C10.9658 5.05538 20.5697 5.05538 30.2216 5.05538ZM22.1602 24.16C22.1602 26.9745 22.1602 29.789 22.1602 32.6016C23.1944 32.6016 24.1977 32.6016 25.1959 32.6016C25.1959 28.0195 25.1959 23.4631 25.1959 18.8977C24.1768 18.8977 23.1729 18.8977 22.1615 18.8977C22.1615 20.6512 22.1615 22.3835 22.1602 24.16ZM17.0674 24.6652C17.0674 23.3791 17.0674 22.0924 17.0674 20.7916C16.1925 20.7916 15.3359 20.7916 14.4888 20.7916C14.4888 24.7466 14.4888 28.6818 14.4888 32.6074C15.3517 32.6074 16.1951 32.6074 17.0674 32.6074C17.0674 29.9634 17.0674 27.3393 17.0674 24.6652ZM4.02013 31.5079C4.02013 31.8759 4.02013 32.2445 4.02013 32.6074C4.95131 32.6074 5.85026 32.6074 6.74477 32.6074C6.74477 30.1949 6.74477 27.8048 6.74477 25.3999C5.82497 25.3999 4.92792 25.3999 4.02013 25.3999C4.02076 27.4316 4.02076 29.4447 4.02013 31.5079ZM18.2212 25.7064C18.2212 26.486 18.2212 27.2662 18.2212 28.0401C19.189 28.0401 20.1202 28.0401 21.0469 28.0401C21.0469 26.4873 21.0469 24.9557 21.0469 23.4144C20.1 23.4144 19.17 23.4144 18.2212 23.4144C18.2212 24.1735 18.2212 24.9153 18.2212 25.7064ZM13.3832 30.318C13.3832 29.471 13.3832 28.6235 13.3832 27.7618C12.4937 27.7618 11.6352 27.7618 10.7717 27.7618C10.7717 29.3864 10.7717 30.993 10.7717 32.6112C11.6428 32.6112 12.5 32.6112 13.3825 32.6112C13.3832 31.8509 13.3832 31.1091 13.3832 30.318ZM19.1334 29.2011C18.835 29.2011 18.5366 29.2011 18.2338 29.2011C18.2338 30.3564 18.2338 31.4816 18.2338 32.6061C19.1846 32.6061 20.1158 32.6061 21.0476 32.6061C21.0476 31.4656 21.0476 30.3474 21.0476 29.2011C20.4154 29.2011 19.799 29.2011 19.1334 29.2011Z" fill="#605E3E"/>
<path d="M7.57795 17.3007C8.27586 15.7691 10.826 15.5389 11.9311 17.361C13.5614 16.3813 15.1924 15.4011 16.8405 14.4112C16.7469 13.6277 16.8007 12.8552 17.3633 12.2102C17.7932 11.7172 18.3299 11.4159 18.9778 11.3563C20.1587 11.2473 21.7025 12.1237 21.6582 13.9964C22.389 14.4195 23.1362 14.8516 23.9043 15.2966C24.192 14.9465 24.4733 14.6099 24.7476 14.2669C25.4936 13.3354 26.2377 12.4013 26.9811 11.4672C27.368 10.9806 27.7561 10.4952 28.1335 10.0016C28.1974 9.91824 28.2334 9.79643 28.241 9.68936C28.2694 9.30469 28.5855 8.98157 28.9876 8.94759C29.3479 8.91681 29.7253 9.19378 29.7936 9.55473C29.8423 9.81246 29.7038 10.0093 29.5509 10.1965C28.6475 11.3056 27.7447 12.4154 26.8439 13.5264C26.3085 14.1868 25.7743 14.8484 25.2445 15.5133C25.077 15.7236 24.919 15.9428 24.766 16.164C24.4948 16.557 23.9745 16.6974 23.5288 16.4198C22.903 16.03 22.255 15.6761 21.6165 15.3081C21.5274 15.2568 21.4363 15.2081 21.3478 15.1594C20.3313 16.6756 18.4443 16.7442 17.4429 15.4325C15.7184 16.457 13.9894 17.4847 12.2219 18.5349C12.1877 19.3536 11.8128 20.0357 11.1194 20.5191C10.6579 20.8409 10.142 21.007 9.56991 20.9698C8.68993 20.9128 7.43824 20.1998 7.45847 18.8484C6.91038 19.199 6.37746 19.5344 5.85086 19.8786C5.10427 20.3659 4.36274 20.8608 3.61804 21.3513C3.42334 21.4795 3.22357 21.5789 2.98335 21.466C2.75008 21.357 2.60594 21.1724 2.58129 20.9204C2.5579 20.6852 2.66537 20.4883 2.8664 20.3614C3.70339 19.8338 4.54227 19.3093 5.3799 18.783C5.9362 18.4336 6.49062 18.0816 7.04882 17.736C7.16388 17.6649 7.29347 17.6168 7.43697 17.5488C7.47364 17.4879 7.52295 17.4026 7.57795 17.3007ZM18.3039 12.8885C17.936 13.2572 17.8342 13.7066 17.9569 14.2009C18.089 14.7356 18.6415 15.144 19.1669 15.1728C19.8591 15.2107 20.3718 14.7189 20.5064 14.2689C20.6727 13.7137 20.5342 13.1046 19.9754 12.7372C19.4254 12.375 18.8969 12.4 18.3039 12.8885ZM10.1066 19.7228C10.1363 19.71 10.166 19.6966 10.1958 19.6844C10.9961 19.3709 11.302 18.5111 10.8475 17.8027C10.5517 17.3424 10.0921 17.2225 9.57686 17.2449C9.02561 17.2693 8.60332 17.6123 8.44275 18.181C8.31 18.6503 8.55338 19.251 8.96492 19.5395C9.30819 19.7799 9.68244 19.7594 10.1066 19.7228Z" fill="#605E3E"/>
<path d="M24.4703 3.77764C24.1877 3.47311 24.1232 3.13396 24.2737 2.79609C24.4045 2.50118 24.6764 2.34218 25.0449 2.36719C25.4128 2.39219 25.6897 2.57363 25.8364 2.92239C25.9546 3.20385 25.8263 3.55967 25.5349 3.81355C25.2769 4.03858 24.9444 4.07833 24.6625 3.91484C24.5992 3.87894 24.5423 3.83214 24.4703 3.77764Z" fill="#605E3E"/>
<path d="M27.8568 2.78969C28.2424 2.17293 28.9258 2.31334 29.2539 2.74032C29.4859 3.04229 29.4353 3.5321 29.1622 3.79752C28.8771 4.07449 28.3808 4.08154 28.073 3.81355C27.7348 3.51928 27.6734 3.24488 27.8568 2.78969Z" fill="#605E3E"/>
<path d="M22.1957 4.01353C21.726 3.94429 21.3998 3.58527 21.4125 3.17239C21.4245 2.76977 21.7747 2.3992 22.1654 2.37548C22.6193 2.34791 23.0536 2.73258 23.0612 3.18329C23.0694 3.63656 22.599 4.07765 22.1957 4.01353Z" fill="#605E3E"/>
<path d="M18.1574 2.81402C18.3825 2.44923 18.6695 2.30947 18.9925 2.39666C19.4091 2.50949 19.6816 2.8121 19.6898 3.16984C19.6986 3.56926 19.308 4.00073 18.9268 4.01227C18.5038 4.02509 18.1005 3.66094 18.0872 3.23716C18.0828 3.10253 18.1245 2.96533 18.1574 2.81402Z" fill="#605E3E"/>
</svg>
