<svg width="39" height="35" viewBox="0 0 39 35" fill="none" xmlns="http://www.w3.org/2000/svg">
<path d="M18.9765 6.19733H1.98047C1.0984 6.19733 0.380859 6.91494 0.380859 7.79694V19.3088C0.380859 19.9067 0.709693 20.4427 1.22256 20.7175V21.7461C1.22256 22.1246 1.43302 22.4644 1.77191 22.6329C1.91275 22.7029 2.0638 22.7374 2.21394 22.7374C2.42501 22.7374 2.63418 22.6692 2.81044 22.5357L4.96031 20.9085H18.9765C19.8586 20.9085 20.5762 20.1909 20.5762 19.3089V7.79701C20.5762 6.91494 19.8586 6.19733 18.9765 6.19733Z" fill="#ADAB80"/>
<path d="M13.8168 11.4598H7.14014C6.92983 11.4598 6.75928 11.2893 6.75928 11.0789C6.75928 10.8685 6.92983 10.6981 7.14014 10.6981H13.8168C14.0271 10.6981 14.1976 10.8685 14.1976 11.0789C14.1976 11.2893 14.0271 11.4598 13.8168 11.4598Z" fill="white"/>
<path d="M10.4785 11.4598C10.2682 11.4598 10.0977 11.2893 10.0977 11.0789V9.58862C10.0977 9.37824 10.2682 9.20776 10.4785 9.20776C10.6888 9.20776 10.8594 9.37824 10.8594 9.58862V11.0789C10.8594 11.2893 10.6888 11.4598 10.4785 11.4598Z" fill="white"/>
<path d="M7.44141 17.898C7.2311 17.898 7.06055 17.7275 7.06055 17.5171C7.06055 17.3068 7.2311 17.1363 7.44141 17.1363C9.21461 17.1363 10.4841 16.1426 11.2147 14.1827C11.7843 12.6543 11.7994 11.0928 11.7994 11.0772C11.8006 10.8676 11.9708 10.6982 12.1803 10.6982C12.1809 10.6982 12.1815 10.6982 12.1821 10.6982C12.3923 10.6992 12.562 10.8703 12.5611 11.0805C12.5608 11.149 12.5473 12.7765 11.9353 14.4303C11.0957 16.6988 9.54177 17.898 7.44141 17.898Z" fill="white"/>
<path d="M13.5157 17.898C11.4153 17.898 9.86139 16.6989 9.02183 14.4303C8.40986 12.7765 8.3963 11.149 8.396 11.0805C8.39516 10.8701 8.56495 10.699 8.77526 10.6981C8.98785 10.6943 9.1568 10.8671 9.15772 11.0773C9.15795 11.1048 9.17501 12.6601 9.74241 14.1826C10.4729 16.1424 11.7425 17.1362 13.5157 17.1362C13.726 17.1362 13.8965 17.3067 13.8965 17.517C13.8965 17.7274 13.726 17.898 13.5157 17.898Z" fill="white"/>
<path d="M28.5218 15.2729C26.9915 15.2729 25.7466 16.518 25.7466 18.0483V23.5823C25.7466 23.7927 25.9171 23.9632 26.1274 23.9632C26.3378 23.9632 26.5083 23.7927 26.5083 23.5823V20.4347H30.5354V23.5823C30.5354 23.7927 30.7059 23.9632 30.9162 23.9632C31.1265 23.9632 31.2971 23.7927 31.2971 23.5823V18.0483C31.2971 16.5179 30.0521 15.2729 28.5218 15.2729ZM30.5354 19.6729H26.5083V18.0482C26.5083 16.9379 27.4115 16.0346 28.5218 16.0346C29.6321 16.0346 30.5354 16.9378 30.5354 18.0482V19.6729Z" fill="#605E3E"/>
<path d="M33.271 4.29332C33.0713 4.22667 32.8558 4.33491 32.7893 4.53441L32.274 6.08313C29.0069 2.44554 24.3899 0.37146 19.5002 0.37146C16.3354 0.37146 13.243 1.24066 10.5575 2.88513C10.3781 2.9949 10.3218 3.22943 10.4316 3.40881C10.5414 3.5882 10.776 3.64472 10.9553 3.53465C13.5211 1.9636 16.4758 1.13318 19.5002 1.13318C24.1627 1.13318 28.5661 3.10717 31.6877 6.57033L30.0928 6.82741C29.8851 6.86085 29.7439 7.05638 29.7773 7.26402C29.8075 7.45118 29.9693 7.58433 30.153 7.58433C30.1731 7.58433 30.1935 7.58273 30.214 7.57945L32.485 7.21337C32.6225 7.19044 32.7419 7.09043 32.7858 6.95766L33.5121 4.77503C33.5785 4.57531 33.4705 4.35974 33.271 4.29332Z" fill="#605E3E"/>
<path d="M28.5688 31.6315C28.459 31.4522 28.2246 31.3958 28.0451 31.5057C25.4794 33.0767 22.5246 33.9071 19.5002 33.9071C14.8377 33.9071 10.4343 31.9331 7.31273 28.47L8.90762 28.2129C9.11527 28.1795 9.25649 27.9839 9.22297 27.7763C9.18946 27.5687 8.99377 27.428 8.78635 27.4609L6.51537 27.827C6.37772 27.849 6.25867 27.9506 6.21464 28.0827L5.48834 30.2654C5.42192 30.465 5.52986 30.6806 5.7295 30.747C5.76942 30.7603 5.80994 30.7666 5.84985 30.7666C6.00936 30.7666 6.15804 30.6656 6.21114 30.5059L6.72644 28.9572C9.9936 32.5948 14.6106 34.6688 19.5002 34.6688C22.6652 34.6688 25.7575 33.7996 28.443 32.1552C28.6223 32.0454 28.6786 31.8109 28.5688 31.6315Z" fill="#605E3E"/>
<path d="M35.6573 28.8026C35.4462 28.8026 35.237 28.7344 35.0607 28.601L32.9108 26.9737H20.0234C19.1414 26.9737 18.4238 26.2561 18.4238 25.3741V20.585C18.4238 20.3746 18.566 20.6992 18.7764 20.6992C18.9867 20.6992 19.1855 20.4889 19.1855 20.6992V25.3741C19.1855 25.8361 19.5615 26.212 20.0234 26.212H33.0387C33.1216 26.212 33.2024 26.239 33.2686 26.2892L35.5205 27.9937C35.6224 28.0709 35.7222 28.0351 35.7601 28.0161C35.7982 27.9971 35.8868 27.9392 35.8868 27.8114V26.5928C35.8868 26.3824 36.0574 26.212 36.2677 26.212H37.0195C37.4815 26.212 37.8574 25.8361 37.8574 25.3741V13.8621C37.8574 13.4001 37.4815 13.0242 37.0195 13.0242H20.4521C20.2418 13.0242 20.3379 12.8354 20.3379 12.625C20.3379 12.4146 20.1276 12.2625 20.3379 12.2625H37.0195C37.9016 12.2625 38.6191 12.9801 38.6191 13.8621V25.374C38.6191 26.256 37.9016 26.9736 37.0195 26.9736H36.6486V27.8113C36.6486 28.1898 36.4381 28.5296 36.0993 28.6981C35.9584 28.7681 35.8074 28.8026 35.6573 28.8026Z" fill="#605E3E"/>
</svg>
