<svg width="35" height="35" viewBox="0 0 35 35" fill="none" xmlns="http://www.w3.org/2000/svg">
<path d="M29.6663 6.10695C30.0989 6.39352 30.6157 6.5625 31.1719 6.5625C32.6796 6.5625 33.9062 5.33586 33.9062 3.82812C33.9062 2.32039 32.6796 1.09375 31.1719 1.09375C29.6641 1.09375 28.4375 2.32039 28.4375 3.82812C28.4375 4.3843 28.6065 4.90109 28.893 5.33367L24.3359 9.89078L19.7788 5.33367C20.0654 4.90109 20.2344 4.3843 20.2344 3.82812C20.2344 2.32039 19.0077 1.09375 17.5 1.09375C15.9923 1.09375 14.7656 2.32039 14.7656 3.82812C14.7656 4.3843 14.9346 4.90109 15.2212 5.33367L10.6641 9.89078L6.10695 5.33367C6.39352 4.90109 6.5625 4.3843 6.5625 3.82812C6.5625 2.32039 5.33586 1.09375 3.82812 1.09375C2.32039 1.09375 1.09375 2.32039 1.09375 3.82812C1.09375 5.33586 2.32039 6.5625 3.82812 6.5625C3.89539 6.5625 3.95828 6.54773 4.02391 6.54281L7.30133 13.2535L5.33367 15.2212C4.90109 14.9346 4.3843 14.7656 3.82812 14.7656C2.32039 14.7656 1.09375 15.9923 1.09375 17.5C1.09375 19.0077 2.32039 20.2344 3.82812 20.2344C5.14828 20.2344 6.25297 19.2932 6.50727 18.0469H9.6425L11.7879 22.4394L5.33367 28.893C4.90109 28.6065 4.3843 28.4375 3.82812 28.4375C2.32039 28.4375 1.09375 29.6641 1.09375 31.1719C1.09375 32.6796 2.32039 33.9062 3.82812 33.9062C5.33586 33.9062 6.5625 32.6796 6.5625 31.1719C6.5625 31.1046 6.54773 31.0417 6.54281 30.9761L14.1438 27.2639L15.2791 29.5887C14.9587 30.0366 14.7656 30.5807 14.7656 31.1719C14.7656 32.6796 15.9923 33.9062 17.5 33.9062C19.0077 33.9062 20.2344 32.6796 20.2344 31.1719C20.2344 29.8517 19.2932 28.747 18.0469 28.4927V25.3575L22.4394 23.2121L28.893 29.6658C28.6065 30.0989 28.4375 30.6157 28.4375 31.1719C28.4375 32.6796 29.6641 33.9062 31.1719 33.9062C32.6796 33.9062 33.9062 32.6796 33.9062 31.1719C33.9062 29.6641 32.6796 28.4375 31.1719 28.4375C30.9252 28.4375 30.6912 28.4807 30.4637 28.542L26.606 21.1772L29.5887 19.7203C30.0366 20.0413 30.5807 20.2344 31.1719 20.2344C32.6796 20.2344 33.9062 19.0077 33.9062 17.5C33.9062 15.9923 32.6796 14.7656 31.1719 14.7656C30.6157 14.7656 30.0989 14.9346 29.6663 15.2212L25.1092 10.6641L29.6663 6.10695ZM31.1719 2.1875C32.0764 2.1875 32.8125 2.92359 32.8125 3.82812C32.8125 4.73266 32.0764 5.46875 31.1719 5.46875C30.2673 5.46875 29.5312 4.73266 29.5312 3.82812C29.5312 2.92359 30.2673 2.1875 31.1719 2.1875ZM18.8202 16.9531L21.6672 14.1061L23.1585 16.9531H18.8202ZM23.7316 18.0469L25.1152 20.6888L22.6603 21.8876L18.8202 18.0469H23.7316ZM18.0469 16.1798V7.19414L21.1356 13.0911L18.0469 16.1798ZM18.777 6.23109C18.8535 6.19008 18.9334 6.15453 19.0055 6.10695L23.5627 10.6641L21.9461 12.2806L18.777 6.23109ZM17.5 2.1875C18.4045 2.1875 19.1406 2.92359 19.1406 3.82812C19.1406 4.73266 18.4045 5.46875 17.5 5.46875C16.5955 5.46875 15.8594 4.73266 15.8594 3.82812C15.8594 2.92359 16.5955 2.1875 17.5 2.1875ZM15.9945 6.10695C16.281 6.29727 16.6048 6.43617 16.9531 6.50727V16.1798L11.4373 10.6641L15.9945 6.10695ZM16.1798 16.9531H10.325L8.62641 13.475L10.6641 11.4373L16.1798 16.9531ZM2.1875 3.82812C2.1875 2.92359 2.92359 2.1875 3.82812 2.1875C4.73266 2.1875 5.46875 2.92359 5.46875 3.82812C5.46875 4.73266 4.73266 5.46875 3.82812 5.46875C2.92359 5.46875 2.1875 4.73266 2.1875 3.82812ZM5.09195 6.2382C5.17289 6.19555 5.25711 6.15727 5.33367 6.10695L9.89078 10.6641L8.11891 12.4359L5.09195 6.2382ZM3.82812 19.1406C2.92359 19.1406 2.1875 18.4045 2.1875 17.5C2.1875 16.5955 2.92359 15.8594 3.82812 15.8594C4.73266 15.8594 5.46875 16.5955 5.46875 17.5C5.46875 18.4045 4.73266 19.1406 3.82812 19.1406ZM6.50727 16.9531C6.43617 16.6048 6.29727 16.281 6.10695 15.9945L7.80883 14.2926L9.1082 16.9531H6.50727ZM10.8593 18.0469H16.1798L12.6049 21.6218L10.8593 18.0469ZM16.9531 18.8202V24.675L14.6464 25.8016L13.1124 22.6609L16.9531 18.8202ZM3.82812 32.8125C2.92359 32.8125 2.1875 32.0764 2.1875 31.1719C2.1875 30.2673 2.92359 29.5312 3.82812 29.5312C4.73266 29.5312 5.46875 30.2673 5.46875 31.1719C5.46875 32.0764 4.73266 32.8125 3.82812 32.8125ZM6.2382 29.908C6.19555 29.8271 6.15727 29.7429 6.10695 29.6663L12.2948 23.4784L13.6637 26.2812L6.2382 29.908ZM19.1406 31.1719C19.1406 32.0764 18.4045 32.8125 17.5 32.8125C16.5955 32.8125 15.8594 32.0764 15.8594 31.1719C15.8594 30.2673 16.5955 29.5312 17.5 29.5312C18.4045 29.5312 19.1406 30.2673 19.1406 31.1719ZM16.9531 28.4927C16.6534 28.554 16.3778 28.6732 16.1224 28.8236L15.1266 26.7843L16.9531 25.8918V28.4927ZM18.0469 24.1407V18.8202L21.6218 22.3951L18.0469 24.1407ZM32.8125 31.1719C32.8125 32.0764 32.0764 32.8125 31.1719 32.8125C30.2673 32.8125 29.5312 32.0764 29.5312 31.1719C29.5312 30.2673 30.2673 29.5312 31.1719 29.5312C32.0764 29.5312 32.8125 30.2673 32.8125 31.1719ZM29.1342 28.3609L23.4784 22.7052L25.6233 21.6579L29.1342 28.3609ZM24.9665 18.0469H28.4933C28.5545 18.3466 28.6737 18.6222 28.8241 18.8776L26.0991 20.2087L24.9665 18.0469ZM31.1719 15.8594C32.0764 15.8594 32.8125 16.5955 32.8125 17.5C32.8125 18.4045 32.0764 19.1406 31.1719 19.1406C30.2673 19.1406 29.5312 18.4045 29.5312 17.5C29.5312 16.5955 30.2673 15.8594 31.1719 15.8594ZM28.893 15.9945C28.7027 16.281 28.5638 16.6048 28.4927 16.9531H24.3934L22.4777 13.2956L24.3359 11.4373L28.893 15.9945Z" fill="#605E3E"/>
</svg>
