<svg width="35" height="35" viewBox="0 0 35 35" fill="none" xmlns="http://www.w3.org/2000/svg">
<g clip-path="url(#clip0_163_8262)">
<path d="M9.8464 31.7177H16.9544V2.32586L7.85385 4.89082L13.0308 13.3646L13.0381 13.3754L13.0453 13.3863L13.0526 13.3972L13.0598 13.408L13.0671 13.4189L13.0707 13.4298V13.4334L13.0743 13.4443V13.4479L13.0779 13.4588V13.4624L13.0816 13.4733V13.4769L13.0852 13.4878V13.4914L13.0888 13.5022V13.5059L13.0924 13.5131V13.5167L13.0961 13.524V13.5276L13.0997 13.5385V13.5421L13.1033 13.553V13.5566L13.1069 13.5675V13.5711L13.1106 13.5819V13.5856L13.1142 13.5964V13.6001V13.6109V13.6146L13.1178 13.6254L13.1214 13.6508V13.6653V13.6761V13.6798V13.6906V13.6943V13.7015C13.1142 15.502 12.3824 17.1359 11.2013 18.317L11.1687 18.3496C9.98406 19.5197 8.3538 20.2407 6.56413 20.2407C4.75634 20.2407 3.11521 19.5052 1.92693 18.317C0.738644 17.1287 0.00683594 15.4875 0.00683594 13.6798C0.00683594 13.5675 0.0394413 13.4624 0.101029 13.3754L0.108275 13.3646L0.111898 13.361L5.27078 4.9198C4.75272 4.86908 4.28538 4.63722 3.93397 4.28943H3.93034C3.53546 3.89454 3.2891 3.3475 3.2891 2.74249H4.38319C4.38319 3.04318 4.50637 3.31489 4.70562 3.51415C4.90488 3.70978 5.17659 3.83295 5.47728 3.83295H5.93376L6.10765 3.55037C6.15113 3.47792 6.21271 3.41633 6.28879 3.36923C6.54601 3.21345 6.88294 3.29315 7.03872 3.55037L7.21261 3.83295H7.61474L16.9616 1.19917V0.00726318H18.0557V1.19917L27.4062 3.83295H27.8011L27.975 3.55037C28.0184 3.47792 28.08 3.41633 28.1561 3.36923C28.4133 3.21345 28.7502 3.29315 28.906 3.55037L29.0799 3.83295H29.54C29.8407 3.83295 30.116 3.70978 30.3117 3.51415V3.51052C30.5109 3.31127 30.6341 3.03956 30.6341 2.73886H31.7282C31.7282 3.34387 31.4818 3.89092 31.087 4.28581C30.7355 4.63722 30.2646 4.8727 29.7465 4.9198L34.9126 13.3718L34.9199 13.3827L34.9271 13.3936L34.9344 13.4044L34.9416 13.4153L34.9489 13.4262L34.9525 13.437V13.4407L34.9561 13.4515V13.4551L34.9597 13.466V13.4696L34.9634 13.4805V13.4841L34.967 13.495V13.4986L34.9706 13.5095V13.5131L34.9742 13.5204V13.524L34.9779 13.5312V13.5348L34.9815 13.5457V13.5493L34.9851 13.5602V13.5638L34.9887 13.5747V13.5783L34.9923 13.5892V13.5928L34.996 13.6037V13.6073V13.6182V13.6218L34.9996 13.6327L35.0032 13.658V13.6725V13.6834V13.687V13.6979V13.7015V13.7087C34.996 15.5093 34.2642 17.1432 33.0831 18.3242L33.0505 18.3568C31.8659 19.527 30.2356 20.2479 28.4459 20.2479C26.6381 20.2479 24.997 19.5125 23.8087 18.3242C22.6204 17.1359 21.8886 15.4948 21.8886 13.687C21.8886 13.5747 21.9212 13.4696 21.9828 13.3827L21.9901 13.3718L21.9937 13.3682L27.1671 4.90531L18.0702 2.34398V31.7359H25.1781C25.631 31.7359 26.0404 31.9206 26.3374 32.2177C26.6345 32.5148 26.8193 32.9241 26.8193 33.377V34.4711V35.0181H26.2722H8.77404H8.227V34.4711V33.377C8.227 32.9241 8.41176 32.5148 8.70883 32.2177C9.0059 31.9206 9.41528 31.7359 9.86813 31.7359L9.8464 31.7177ZM33.4744 13.1255L28.4604 4.92342H28.4024L23.3885 13.1255H33.4708H33.4744ZM32.297 17.5381C33.1664 16.6686 33.7425 15.5093 33.8729 14.2196H22.99C23.1168 15.5129 23.6964 16.6722 24.5623 17.5381L24.5659 17.5417C25.5549 18.5307 26.9207 19.1393 28.4314 19.1393C29.9277 19.1393 31.2862 18.538 32.2716 17.567L32.297 17.5381ZM11.6035 13.1255L6.58949 4.92342H6.53152L1.51755 13.1255H11.5998H11.6035ZM10.426 17.5381C11.2955 16.6686 11.8715 15.5093 12.002 14.2196H1.11904C1.24584 15.5129 1.82549 16.6722 2.69134 17.5381L2.69496 17.5417C3.68399 18.5307 5.04979 19.1393 6.5605 19.1393C8.05673 19.1393 9.41528 18.538 10.4007 17.567L10.426 17.5381ZM25.1528 32.8118H9.83915C9.69062 32.8118 9.55295 32.8734 9.45513 32.9712C9.35732 33.0691 9.29573 33.2067 9.29573 33.3553V33.9023H25.6998V33.3553C25.6998 33.2067 25.6382 33.0691 25.5404 32.9712C25.4426 32.8734 25.3049 32.8118 25.1564 32.8118H25.1528Z" fill="#605E3E"/>
</g>
<defs>
<clipPath id="clip0_163_8262">
<rect width="35" height="35" fill="white"/>
</clipPath>
</defs>
</svg>
