<svg width="28" height="41" viewBox="0 0 28 41" fill="none" xmlns="http://www.w3.org/2000/svg">
<path d="M25.8574 8.76522H16.6101C16.4348 7.53809 15.5583 6.57391 14.375 6.22331C15.12 5.34678 16.2595 4.82087 17.4428 4.82087H24.7617C26.0765 4.82087 27.1722 3.72522 27.1722 2.41044C27.1722 1.09565 26.0765 0 24.7617 0H13.5861H2.41044C1.09565 0 0 1.09565 0 2.41044C0 3.72522 1.09565 4.82087 2.41044 4.82087H9.72939C10.9127 4.82087 12.0522 5.34678 12.7972 6.22331C11.6139 6.53009 10.7374 7.53809 10.5621 8.76522H1.31478C0.569739 8.76522 0 9.33496 0 10.08V39.0052C0 39.7503 0.569739 40.32 1.31478 40.32H25.8574C26.6024 40.32 27.1722 39.7503 27.1722 39.0052V10.08C27.1722 9.33496 26.6024 8.76522 25.8574 8.76522ZM15.7336 8.76522H14.8132C14.6817 8.41461 14.375 8.10783 14.0244 7.97635V7.056C14.9009 7.23131 15.5583 7.8887 15.7336 8.76522ZM9.72939 3.94435H2.41044C1.57774 3.94435 0.876522 3.24313 0.876522 2.41044C0.876522 1.57774 1.57774 0.876522 2.41044 0.876522H13.5861H24.7617C25.5944 0.876522 26.2957 1.57774 26.2957 2.41044C26.2957 3.24313 25.5944 3.94435 24.7617 3.94435H17.4428C15.9527 3.94435 14.5064 4.64557 13.5861 5.82887C12.6657 4.64557 11.2195 3.94435 9.72939 3.94435ZM13.1478 7.056V7.97635C12.7972 8.10783 12.4904 8.41461 12.359 8.76522H11.4386C11.6139 7.8887 12.2713 7.23131 13.1478 7.056ZM26.2957 39.0052C26.2957 39.2682 26.1204 39.4435 25.8574 39.4435H1.31478C1.05183 39.4435 0.876522 39.2682 0.876522 39.0052V10.08C0.876522 9.81705 1.05183 9.64174 1.31478 9.64174H25.8574C26.1204 9.64174 26.2957 9.81705 26.2957 10.08V39.0052Z" fill="#605E3E"/>
<path d="M24.9808 10.5183H2.19119C1.92823 10.5183 1.75293 10.6936 1.75293 10.9566V38.1287C1.75293 38.3917 1.92823 38.567 2.19119 38.567H24.9808C25.2437 38.567 25.419 38.3917 25.419 38.1287V10.9566C25.419 10.6936 25.2437 10.5183 24.9808 10.5183ZM24.5425 37.6905H2.62945V11.3948H24.5425V37.6905Z" fill="#605E3E"/>
<path d="M7.88851 26.7339H19.2833C20.0283 26.7339 20.5981 26.1641 20.5981 25.4191V14.0243C20.5981 13.2793 20.0283 12.7095 19.2833 12.7095H7.88851C7.14347 12.7095 6.57373 13.2793 6.57373 14.0243V25.4191C6.57373 26.1641 7.14347 26.7339 7.88851 26.7339ZM13.5859 20.5982C12.1396 20.5982 10.9563 19.4149 10.9563 17.9687C10.9563 16.5224 12.1396 15.3391 13.5859 15.3391C15.0322 15.3391 16.2155 16.5224 16.2155 17.9687C16.2155 19.4149 15.0322 20.5982 13.5859 20.5982ZM13.5859 21.4748C14.068 21.4748 14.5063 21.3871 14.9007 21.2118C17.092 21.7815 18.6259 23.6222 18.8012 25.8574H8.32677C8.50208 23.6222 10.0798 21.7815 12.2273 21.2118C12.6656 21.3871 13.1038 21.4748 13.5859 21.4748ZM7.45025 14.0243C7.45025 13.7614 7.62556 13.5861 7.88851 13.5861H19.2833C19.5463 13.5861 19.7216 13.7614 19.7216 14.0243V25.4191C19.7216 25.5068 19.7216 25.5506 19.6777 25.5944C19.4148 23.3593 17.9685 21.4309 15.8649 20.5982C16.6099 19.9408 17.092 19.0205 17.092 17.9687C17.092 16.0403 15.5143 14.4626 13.5859 14.4626C11.6576 14.4626 10.0798 16.0403 10.0798 17.9687C10.0798 19.0205 10.5619 19.9847 11.3069 20.5982C9.2033 21.4309 7.75703 23.3593 7.49408 25.5944C7.45025 25.5506 7.45025 25.5068 7.45025 25.4191V14.0243Z" fill="#605E3E"/>
<path d="M4.82107 29.8018H22.3515C22.6145 29.8018 22.7898 29.6264 22.7898 29.3635C22.7898 29.1005 22.6145 28.9252 22.3515 28.9252H4.82107C4.55812 28.9252 4.38281 29.1005 4.38281 29.3635C4.38281 29.6264 4.55812 29.8018 4.82107 29.8018Z" fill="#605E3E"/>
<path d="M4.82107 31.993H22.3515C22.6145 31.993 22.7898 31.8177 22.7898 31.5548C22.7898 31.2918 22.6145 31.1165 22.3515 31.1165H4.82107C4.55812 31.1165 4.38281 31.2918 4.38281 31.5548C4.38281 31.8177 4.55812 31.993 4.82107 31.993Z" fill="#605E3E"/>
<path d="M4.82107 34.1843H22.3515C22.6145 34.1843 22.7898 34.009 22.7898 33.7461C22.7898 33.4831 22.6145 33.3078 22.3515 33.3078H4.82107C4.55812 33.3078 4.38281 33.4831 4.38281 33.7461C4.38281 34.009 4.55812 34.1843 4.82107 34.1843Z" fill="#605E3E"/>
<path d="M4.82107 36.3757H22.3515C22.6145 36.3757 22.7898 36.2004 22.7898 35.9374C22.7898 35.6744 22.6145 35.4991 22.3515 35.4991H4.82107C4.55812 35.4991 4.38281 35.6744 4.38281 35.9374C4.38281 36.2004 4.55812 36.3757 4.82107 36.3757Z" fill="#605E3E"/>
</svg>
