<svg width="42" height="42" viewBox="0 0 42 42" fill="none" xmlns="http://www.w3.org/2000/svg">
<path fill-rule="evenodd" clip-rule="evenodd" d="M6.52679 13.5981H4.72112C3.43061 13.5981 2.3833 12.5516 2.3833 11.2603V7.33782C2.3833 6.04653 3.43061 5 4.72112 5H13.8737C15.1642 5 16.2115 6.04653 16.2115 7.33782V11.2603C16.2115 12.5516 15.1642 13.5981 13.8737 13.5981H12.068L9.56412 16.1038C9.41637 16.2513 9.17841 16.2513 9.03066 16.1038L6.52679 13.5981ZM9.29739 15.3037L11.6457 12.9549C11.7163 12.8843 11.8117 12.845 11.9124 12.845H13.8737C14.7484 12.845 15.4584 12.1343 15.4584 11.2603V7.33782C15.4584 6.46388 14.7484 5.75312 13.8737 5.75312H4.72112C3.8464 5.75312 3.13642 6.46388 3.13642 7.33782V11.2603C3.13642 12.1343 3.8464 12.845 4.72112 12.845H6.68238C6.78306 12.845 6.87851 12.8843 6.94911 12.9549L9.29739 15.3037Z" fill="#605E3E"/>
<path fill-rule="evenodd" clip-rule="evenodd" d="M5.3751 8.36811H13.2201C13.428 8.36811 13.5967 8.19945 13.5967 7.99155C13.5967 7.78366 13.428 7.61499 13.2201 7.61499H5.3751C5.1672 7.61499 4.99854 7.78366 4.99854 7.99155C4.99854 8.19945 5.1672 8.36811 5.3751 8.36811Z" fill="#605E3E"/>
<path fill-rule="evenodd" clip-rule="evenodd" d="M5.3751 9.67567H13.2201C13.428 9.67567 13.5967 9.507 13.5967 9.29911C13.5967 9.09121 13.428 8.92255 13.2201 8.92255H5.3751C5.1672 8.92255 4.99854 9.09121 4.99854 9.29911C4.99854 9.507 5.1672 9.67567 5.3751 9.67567Z" fill="#605E3E"/>
<path fill-rule="evenodd" clip-rule="evenodd" d="M5.3751 10.9831H13.2201C13.428 10.9831 13.5967 10.8144 13.5967 10.6065C13.5967 10.3986 13.428 10.23 13.2201 10.23H5.3751C5.1672 10.23 4.99854 10.3986 4.99854 10.6065C4.99854 10.8144 5.1672 10.9831 5.3751 10.9831Z" fill="#605E3E"/>
<path fill-rule="evenodd" clip-rule="evenodd" d="M29.4081 13.5981H27.6025C26.312 13.5981 25.2646 12.5516 25.2646 11.2603V7.33782C25.2646 6.04653 26.312 5 27.6025 5H36.755C38.0455 5 39.0928 6.04653 39.0928 7.33782V11.2603C39.0928 12.5516 38.0455 13.5981 36.755 13.5981H34.9493L32.4455 16.1038C32.2977 16.2513 32.0598 16.2513 31.912 16.1038L29.4081 13.5981ZM32.1787 15.3037L34.527 12.9549C34.5976 12.8843 34.6931 12.845 34.7937 12.845H36.755C37.6297 12.845 38.3397 12.1343 38.3397 11.2603V7.33782C38.3397 6.46388 37.6297 5.75312 36.755 5.75312H27.6025C26.7277 5.75312 26.0178 6.46388 26.0178 7.33782V11.2603C26.0178 12.1343 26.7277 12.845 27.6025 12.845H29.5637C29.6644 12.845 29.7599 12.8843 29.8305 12.9549L32.1787 15.3037Z" fill="#605E3E"/>
<path fill-rule="evenodd" clip-rule="evenodd" d="M28.2564 8.36811H36.1015C36.3094 8.36811 36.478 8.19945 36.478 7.99155C36.478 7.78366 36.3094 7.61499 36.1015 7.61499H28.2564C28.0486 7.61499 27.8799 7.78366 27.8799 7.99155C27.8799 8.19945 28.0486 8.36811 28.2564 8.36811Z" fill="#605E3E"/>
<path fill-rule="evenodd" clip-rule="evenodd" d="M28.2564 9.67567H36.1015C36.3094 9.67567 36.478 9.507 36.478 9.29911C36.478 9.09121 36.3094 8.92255 36.1015 8.92255H28.2564C28.0486 8.92255 27.8799 9.09121 27.8799 9.29911C27.8799 9.507 28.0486 9.67567 28.2564 9.67567Z" fill="#605E3E"/>
<path fill-rule="evenodd" clip-rule="evenodd" d="M28.2564 10.9831H36.1015C36.3094 10.9831 36.478 10.8144 36.478 10.6065C36.478 10.3986 36.3094 10.23 36.1015 10.23H28.2564C28.0486 10.23 27.8799 10.3986 27.8799 10.6065C27.8799 10.8144 28.0486 10.9831 28.2564 10.9831Z" fill="#605E3E"/>
<path fill-rule="evenodd" clip-rule="evenodd" d="M40.0998 37.259H1.37754C1.16872 37.259 1 37.0903 1 36.8828C1 33.8556 1.68179 30.9874 2.90154 28.4234C6.07123 21.7576 12.8711 17.1442 20.7387 17.1442C28.6062 17.1442 35.4047 21.7576 38.5744 28.4234C39.7942 30.9874 40.476 33.8556 40.476 36.8828C40.476 37.0903 40.3072 37.259 40.0998 37.259ZM11.5186 28.9614H3.48237L3.48099 28.9655C3.31089 29.3375 3.15047 29.7151 3.00526 30.0968C2.73006 30.8145 2.49772 31.5488 2.31241 32.2942C2.10912 33.1157 1.96114 33.9496 1.86849 34.7891C1.80625 35.3588 1.76891 35.9314 1.75785 36.5053H10.6819C10.7082 33.8252 11.0042 31.2764 11.5186 28.9614ZM29.187 28.9614H21.1148V36.5053H30.0389C30.014 33.8196 29.7126 31.2681 29.187 28.9614ZM37.9936 28.9614H29.9587C30.4718 31.2764 30.7691 33.8252 30.794 36.5053H39.7181C39.707 35.9314 39.6697 35.3588 39.6075 34.7891C39.5148 33.9496 39.3668 33.1157 39.1636 32.2942C38.9782 31.5488 38.7473 30.8145 38.4721 30.0968C38.3255 29.7151 38.1665 29.3375 37.995 28.9655L37.9936 28.9614ZM11.437 36.5053H20.3611V28.9614H12.2889C11.7648 31.2681 11.4619 33.8196 11.437 36.5053ZM17.5054 18.1731C16.807 18.2934 16.1169 18.4524 15.4365 18.6502C14.4919 18.924 13.5681 19.2739 12.6775 19.6915C11.567 20.2143 10.5091 20.8449 9.52028 21.5696C8.5218 22.3025 7.59523 23.1337 6.75717 24.045C6.02006 24.8485 5.35072 25.7142 4.76159 26.6297C4.5417 26.9713 4.33288 27.3198 4.1365 27.6739C4.0397 27.8467 3.94566 28.0224 3.85438 28.198L3.85023 28.2077H11.6956C12.4009 25.363 13.4423 22.9069 14.7104 21.0468C15.5513 19.8132 16.4944 18.8396 17.5081 18.1731H17.5054ZM21.1148 17.9145V28.2077H29.0059C28.3269 25.5372 27.3422 23.2305 26.1418 21.4714C24.7174 19.3818 22.9956 18.0693 21.1148 17.9145ZM23.9678 18.1731C24.9815 18.8396 25.9247 19.8132 26.7655 21.0468C28.0351 22.9069 29.075 25.363 29.7803 28.2077H37.6257L37.6216 28.198C37.5303 28.0224 37.4363 27.8467 37.3395 27.6739C37.1431 27.3198 36.9343 26.9713 36.7144 26.6297C36.1252 25.7142 35.4573 24.8485 34.7188 24.045C33.8821 23.1337 32.9542 22.3025 31.9571 21.5696C30.9669 20.8449 29.9089 20.2143 28.7984 19.6915C27.9078 19.2739 26.9854 18.924 26.0395 18.6502C25.3605 18.4524 24.669 18.2934 23.9706 18.1731H23.9678ZM20.3611 17.9145C18.4803 18.0693 16.7586 19.3818 15.3342 21.4714C14.1338 23.2305 13.1505 25.5372 12.4701 28.2077H20.3611V17.9145Z" fill="#605E3E"/>
<path fill-rule="evenodd" clip-rule="evenodd" d="M17.2809 9.60127H18.6638C18.8726 9.60127 19.0413 9.43256 19.0413 9.22373C19.0413 9.01491 18.8726 8.84619 18.6638 8.84619H17.2809C17.072 8.84619 16.9033 9.01491 16.9033 9.22373C16.9033 9.43256 17.072 9.60127 17.2809 9.60127Z" fill="#605E3E"/>
<path fill-rule="evenodd" clip-rule="evenodd" d="M20.0465 9.60127H21.4294C21.6382 9.60127 21.807 9.43256 21.807 9.22373C21.807 9.01491 21.6382 8.84619 21.4294 8.84619H20.0465C19.8377 8.84619 19.6689 9.01491 19.6689 9.22373C19.6689 9.43256 19.8377 9.60127 20.0465 9.60127Z" fill="#605E3E"/>
<path fill-rule="evenodd" clip-rule="evenodd" d="M22.8126 9.60127H24.1955C24.4044 9.60127 24.5731 9.43256 24.5731 9.22373C24.5731 9.01491 24.4044 8.84619 24.1955 8.84619H22.8126C22.6038 8.84619 22.4351 9.01491 22.4351 9.22373C22.4351 9.43256 22.6038 9.60127 22.8126 9.60127Z" fill="#605E3E"/>
</svg>
